<?xml version="1.0" encoding="utf-8"?>
<!-- Generator: Adobe Illustrator 23.1.1, SVG Export Plug-In . SVG Version: 6.00 Build 0)  -->
<svg version="1.1" id="Layer_1" xmlns="http://www.w3.org/2000/svg" xmlns:xlink="http://www.w3.org/1999/xlink" x="0px" y="0px"
	 viewBox="0 0 144 72" style="enable-background:new 0 0 144 72;" xml:space="preserve">
<style type="text/css">
	.st0{fill:#0288D1;}
	.st1{fill:#FFFFFF;}
	.st2{fill:#EF7B48;}
	.st3{fill:#A3A3A3;}
</style>
<g>
	<g>
		<path class="st0" d="M67,52.8c0,3.4-2.7,6.1-5.9,6.1H30.2c-3.3,0-5.9-2.7-5.9-6.1V21.1c0-3.4,2.7-6.1,5.9-6.1h30.8
			c3.3,0,5.9,2.7,5.9,6.1V52.8z"/>
		<path class="st1" d="M31.4,30.9h5.9v20.7h-5.9V30.9z M34.4,28.4L34.4,28.4c-1.8,0-2.9-1.4-2.9-3c0-1.7,1.2-3,3-3
			c1.8,0,2.9,1.3,2.9,3C37.3,27.1,36.2,28.4,34.4,28.4z M59.9,51.6h-5.9V40.5c0-2.7-1.5-4.5-3.8-4.5c-1.8,0-2.7,1.2-3.2,2.4
			c-0.2,0.4-0.1,1.6-0.1,2.2v11h-5.9V30.9h5.9v3.2c0.9-1.4,2.2-3.2,5.6-3.2c4.2,0,7.4,2.7,7.4,8.9L59.9,51.6L59.9,51.6z"/>
	</g>
	<path class="st2" d="M89.2,16.9c-2.2,0-3.9,1.8-3.9,4s1.7,4,3.9,4c0.7,0,1.5-0.2,2.1-0.6l11.7,9.1c-1.3,1.6-2.1,3.7-2.1,6
		c0,2.5,0.9,4.8,2.4,6.5l-4.8,4.9c-0.3-0.1-0.5-0.1-0.8-0.1c-1.7,0-3.1,1.4-3.1,3.2s1.4,3.2,3.1,3.2c1.7,0,3.1-1.4,3.1-3.2
		c0-0.3,0-0.6-0.1-0.8l5-5.2c0,0,0,0,0,0c1.3,0.7,2.9,1.2,4.5,1.2c5.2,0,9.4-4.3,9.4-9.6c0-4.8-3.4-8.7-7.8-9.5v-5.4
		c1.5-0.9,2-2.9,1.1-4.4c-0.6-1-1.6-1.6-2.7-1.6c-1.7,0-3.1,1.4-3.1,3.2c0,1.1,0.6,2.2,1.6,2.8v5.4c-1.2,0.2-2.4,0.7-3.4,1.3
		l-12.3-9.5c0.4-2.2-1-4.3-3.1-4.7C89.7,16.9,89.4,16.9,89.2,16.9z M110.3,34.6c2.6,0,4.7,2.2,4.7,4.8c0,2.7-2.1,4.8-4.7,4.8
		s-4.7-2.2-4.7-4.8C105.6,36.7,107.7,34.6,110.3,34.6z"/>
	<path class="st3" d="M78.7,31.9c-0.5,0-0.8,0.3-0.9,0.8c0,0.3,0.1,0.6,0.4,0.7l4.8,3.5l-4.8,3.5c-0.4,0.3-0.5,0.8-0.2,1.2
		s0.8,0.5,1.1,0.2c0,0,0,0,0,0l5.8-4.2c0.4-0.3,0.5-0.8,0.2-1.2c-0.1-0.1-0.1-0.1-0.2-0.2L79.2,32C79.1,31.9,78.9,31.9,78.7,31.9z"
		/>
</g>
</svg>
