<?xml version="1.0" encoding="utf-8"?>
<!-- Generator: Adobe Illustrator 24.1.0, SVG Export Plug-In . SVG Version: 6.00 Build 0)  -->
<svg version="1.1" id="Layer_1" xmlns="http://www.w3.org/2000/svg" xmlns:xlink="http://www.w3.org/1999/xlink" x="0px" y="0px"
	 viewBox="0 0 144 72" style="enable-background:new 0 0 144 72;" xml:space="preserve">
<style type="text/css">
	.st0{fill:#A3A3A3;}
	.st1{fill:url(#SVGID_1_);}
	.st2{fill:#FFFFFF;}
	.st3{fill:#7A7979;}
</style>
<path class="st0" d="M73.2,31.4c-0.5,0-0.8,0.3-0.9,0.8c0,0.3,0.1,0.6,0.4,0.7l4.8,3.5l-4.8,3.5c-0.4,0.3-0.5,0.8-0.2,1.2
	s0.8,0.5,1.1,0.2l0,0l5.8-4.2c0.4-0.3,0.5-0.8,0.2-1.2c-0.1-0.1-0.1-0.1-0.2-0.2l-5.7-4.2C73.6,31.4,73.4,31.4,73.2,31.4z"/>
<g>
	
		<radialGradient id="SVGID_1_" cx="-1979.5889" cy="4369.2842" r="69.648" gradientTransform="matrix(0.6435 -0.7654 0.5056 0.4251 -909.8317 -3304.2644)" gradientUnits="userSpaceOnUse">
		<stop  offset="7.300000e-02" style="stop-color:#EACC7B"/>
		<stop  offset="0.184" style="stop-color:#ECAA59"/>
		<stop  offset="0.307" style="stop-color:#EF802E"/>
		<stop  offset="0.358" style="stop-color:#EF6D3A"/>
		<stop  offset="0.46" style="stop-color:#F04B50"/>
		<stop  offset="0.516" style="stop-color:#F03E58"/>
		<stop  offset="0.689" style="stop-color:#DB359E"/>
		<stop  offset="0.724" style="stop-color:#CE37A4"/>
		<stop  offset="0.789" style="stop-color:#AC3CB4"/>
		<stop  offset="0.877" style="stop-color:#7544CF"/>
		<stop  offset="0.98" style="stop-color:#2B4FF2"/>
	</radialGradient>
	<path class="st1" d="M51.9,59h-26c-5.5,0-10-4.5-10-10V23c0-5.5,4.5-10,10-10h26c5.5,0,10,4.5,10,10v26C61.9,54.5,57.4,59,51.9,59z
		"/>
	<path class="st2" d="M38.9,22c4.6,0,5.1,0,6.9,0.1c1.7,0.1,2.6,0.4,3.2,0.6c0.8,0.3,1.4,0.7,2,1.3c0.6,0.6,1,1.2,1.3,2
		c0.2,0.6,0.5,1.5,0.6,3.2c0,1.7,0,2.2,0,6.8s0,5.1-0.1,6.9c-0.1,1.7-0.4,2.6-0.6,3.2c-0.3,0.8-0.7,1.4-1.3,2s-1.2,1-2,1.3
		c-0.6,0.2-1.5,0.5-3.2,0.6c-1.7,0-2.2,0-6.8,0s-5.1,0-6.9-0.1c-1.7-0.1-2.6-0.4-3.2-0.6c-0.8-0.3-1.4-0.7-2-1.3s-1-1.2-1.3-2
		c-0.2-0.6-0.5-1.5-0.6-3.2c0-1.7,0-2.2,0-6.8s0-5.1,0.1-6.9c0.1-1.7,0.4-2.6,0.6-3.2c0.3-0.8,0.7-1.4,1.3-2c0.6-0.6,1.2-1,2-1.3
		c0.6-0.2,1.5-0.5,3.2-0.6C33.8,22,34.3,22,38.9,22 M38.9,19c-4.6,0-5.2,0-7,0.1c-1.8,0.1-3,0.4-4.1,0.8s-2.1,1-3,2s-1.5,1.9-2,3
		C22.4,26,22.1,27.2,22,29s-0.1,2.4-0.1,7s0,5.2,0.1,7s0.4,3,0.8,4.1s1,2.1,2,3c0.9,0.9,1.9,1.5,3,2c1.1,0.4,2.3,0.7,4.1,0.8
		c1.8,0.1,2.4,0.1,7,0.1s5.2,0,7-0.1s3-0.4,4.1-0.8c1.1-0.4,2.1-1,3-2c0.9-0.9,1.5-1.9,2-3c0.4-1.1,0.7-2.3,0.8-4.1s0.1-2.4,0.1-7
		s0-5.2-0.1-7s-0.4-3-0.8-4.1c-0.4-1.1-1-2.1-2-3s-1.9-1.5-3-2c-1.1-0.4-2.3-0.7-4.1-0.8C44.1,19,43.5,19,38.9,19L38.9,19z"/>
	<path class="st2" d="M38.9,27c-5,0-9,4-9,9s4,9,9,9s9-4,9-9S43.9,27,38.9,27z M38.9,42c-3.3,0-6-2.7-6-6s2.7-6,6-6s6,2.7,6,6
		S42.2,42,38.9,42z"/>
	<circle class="st2" cx="47.9" cy="27" r="2"/>
</g>
<g>
	<path class="st3" d="M126.9,51.6c-1.4-3.5-3.8-5.8-7.4-6.6c-3.5-0.7-6.6-2.3-9.8-3.7c-0.4-0.2-0.5-0.4-0.5-0.8
		c-0.1-1.2,0-2.3,0-3.5c0-0.2,0-0.4,0.1-0.5c1.2-1.3,1.7-2.9,2-4.6c0.1-0.4,0.1-0.8,0.6-0.9s0.6-0.6,0.8-1c0.3-0.9,0.3-1.8,0.4-2.7
		c0-0.5,0-0.9,0-1.4s-0.1-0.9-0.6-1.1c-0.2-0.1-0.1-0.2-0.1-0.4c0.1-1.1,0.3-2.2,0.3-3.3c0.1-2.5-0.9-4.5-2.7-6.1
		c-1.8-1.6-3.8-2.4-6.1-2.4l0,0l0,0l0,0l0,0c-2.3,0-4.3,0.8-6.1,2.4c-1.8,1.6-2.8,3.6-2.7,6.1c0,1.1,0.2,2.2,0.3,3.3
		c0,0.2,0.1,0.3-0.1,0.4c-0.5,0.2-0.6,0.6-0.6,1.1s0,0.9,0,1.4c0.1,0.9,0.1,1.8,0.4,2.7c0.2,0.4,0.3,0.9,0.8,1s0.5,0.5,0.6,0.9
		c0.3,1.7,0.8,3.3,2,4.6c0.1,0.1,0.1,0.3,0.1,0.5c0,1.2,0.1,2.3,0,3.5c0,0.4-0.1,0.6-0.5,0.8c-3.2,1.4-6.3,3-9.8,3.7
		c-3.6,0.8-6,3.1-7.4,6.6C80.3,53,80,54.5,79.8,56c0,0.6,0,1.2,0.1,1.6c0.3,0.9,0.8,1.4,1.7,1.7c7.4,0,14.8,0,22.3,0c0,0,0,0,0.1,0
		c7.4,0,14.8,0,22.3,0c0.9-0.3,1.4-0.8,1.7-1.7c0.1-0.4,0.1-1,0.1-1.6C127.8,54.5,127.5,53,126.9,51.6z"/>
</g>
<g>
	<path class="st2" d="M108.4,19.9l-3.3,4.5l3.3,4.5c0.3,0.4,0.2,1-0.2,1.3c-0.2,0.1-0.4,0.2-0.6,0.2c-0.3,0-0.6-0.2-0.8-0.4l-2.9-4
		l-2.9,4c-0.2,0.2-0.5,0.4-0.8,0.4c-0.2,0-0.4-0.1-0.6-0.2c-0.4-0.3-0.5-0.9-0.2-1.3l3.3-4.5l-3.3-4.5c-0.3-0.4-0.2-1,0.2-1.3
		c0.4-0.3,1-0.2,1.3,0.2l2.9,4l2.9-4c0.3-0.5,0.9-0.5,1.3-0.2C108.6,18.9,108.7,19.5,108.4,19.9z"/>
</g>
</svg>
