<svg width="20" height="21" viewBox="0 0 20 21" fill="none" xmlns="http://www.w3.org/2000/svg">
<path d="M14.9358 1.3335H5.06402C2.72743 1.3335 0.833252 3.22768 0.833252 5.56426V15.4361C0.833252 17.7726 2.72743 19.6668 5.06402 19.6668H14.9358C17.2724 19.6668 19.1666 17.7726 19.1666 15.4361V5.56426C19.1666 3.22768 17.2724 1.3335 14.9358 1.3335Z" stroke="#A0B0C0" stroke-width="1.5" stroke-linecap="round" stroke-linejoin="round"/>
<path d="M6.11325 14.5002C6.03547 14.5002 5.96936 14.4729 5.91492 14.4185C5.86047 14.3641 5.83325 14.2979 5.83325 14.2202V6.6135C5.83325 6.53572 5.86047 6.46961 5.91492 6.41516C5.96936 6.36072 6.03547 6.3335 6.11325 6.3335H7.20992C7.29547 6.3335 7.36159 6.36072 7.40825 6.41516C7.4627 6.46961 7.48992 6.53572 7.48992 6.6135V14.2202C7.48992 14.2979 7.4627 14.3641 7.40825 14.4185C7.36159 14.4729 7.29547 14.5002 7.20992 14.5002H6.11325Z" fill="#A0B0C0"/>
<path d="M9.44659 14.5002C9.36881 14.5002 9.3027 14.4729 9.24825 14.4185C9.19381 14.3641 9.16659 14.2979 9.16659 14.2202V6.62516C9.16659 6.53961 9.19381 6.46961 9.24825 6.41516C9.3027 6.36072 9.36881 6.3335 9.44659 6.3335H14.5099C14.5955 6.3335 14.6655 6.36072 14.7199 6.41516C14.7744 6.46961 14.8016 6.53961 14.8016 6.62516V7.44183C14.8016 7.52739 14.7744 7.59739 14.7199 7.65183C14.6655 7.6985 14.5955 7.72183 14.5099 7.72183H10.7649V9.9385H14.2766C14.3621 9.9385 14.4321 9.96572 14.4866 10.0202C14.541 10.0746 14.5683 10.1446 14.5683 10.2302V11.0468C14.5683 11.1246 14.541 11.1907 14.4866 11.2452C14.4321 11.2996 14.3621 11.3268 14.2766 11.3268H10.7649V14.2202C10.7649 14.2979 10.7377 14.3641 10.6833 14.4185C10.6288 14.4729 10.5588 14.5002 10.4733 14.5002H9.44659Z" fill="#A0B0C0"/>
</svg>
