<?xml version="1.0" encoding="utf-8"?>
<!-- Generator: Adobe Illustrator 23.1.1, SVG Export Plug-In . SVG Version: 6.00 Build 0)  -->
<svg version="1.1" id="Layer_1" xmlns="http://www.w3.org/2000/svg" xmlns:xlink="http://www.w3.org/1999/xlink" x="0px" y="0px"
	 viewBox="0 0 144 72" style="enable-background:new 0 0 144 72;" xml:space="preserve">
<style type="text/css">
	.st0{fill:#A3A3A3;}
	.st1{fill:#43A047;}
	.st2{fill:#C8E6C9;}
	.st3{fill:#2E7D32;}
	.st4{fill:#E8F5E9;}
</style>
<g>
	<path class="st0" d="M72.9,23.6l-0.6,0.6c-0.1,0.1-0.1,0.1-0.2,0.2l-3.9,3.9c-0.4,0.4-0.4,1,0,1.4c0.4,0.4,1,0.4,1.4,0c0,0,0,0,0,0
		l2.3-2.3V35c0,2.8-2.2,5-5,5h-3c-0.6,0-1,0.4-1,1c0,0.6,0.4,1,1,1c0,0,0,0,0,0h3c2.5,0,4.8-1.4,6-3.4c1.2,2,3.5,3.4,6,3.4h3
		c0.6,0,1-0.4,1-1c0-0.6-0.4-1-1-1c0,0,0,0,0,0h-3c-2.8,0-5-2.2-5-5v-7.6l2.3,2.3c0.4,0.4,1,0.4,1.4,0c0.4-0.4,0.4-1,0-1.4
		c0,0,0,0,0,0l-3.9-3.9c-0.1-0.1-0.1-0.1-0.2-0.2L72.9,23.6z"/>
	<path class="st1" d="M61,57H35c-1.7,0-3-1.3-3-3V18c0-1.7,1.3-3,3-3h19l10,10v29C64,55.7,62.7,57,61,57z"/>
	<path class="st2" d="M64,25H54V15L64,25z"/>
	<path class="st3" d="M54,25l10,10V25H54z"/>
	<path class="st4" d="M55,35H41h-2v2v2v2v2v2v2v2h18v-2v-2v-2v-2v-2v-2v-2H55z M41,37h4v2h-4V37z M41,41h4v2h-4V41z M41,45h4v2h-4
		V45z M55,47h-8v-2h8V47z M55,43h-8v-2h8V43z M55,39h-8v-2h8V39z"/>
	<path class="st1" d="M110.8,57h-26c-1.7,0-3-1.3-3-3V18c0-1.7,1.3-3,3-3h19l10,10v29C113.8,55.7,112.5,57,110.8,57z"/>
	<path class="st2" d="M113.8,25h-10V15L113.8,25z"/>
	<path class="st3" d="M103.8,25l10,10V25H103.8z"/>
	<path class="st4" d="M104.8,35h-14h-2v2v2v2v2v2v2v2h18v-2v-2v-2v-2v-2v-2v-2H104.8z M90.8,37h4v2h-4V37z M90.8,41h4v2h-4V41z
		 M90.8,45h4v2h-4V45z M104.8,47h-8v-2h8V47z M104.8,43h-8v-2h8V43z M104.8,39h-8v-2h8V39z"/>
</g>
</svg>
