<?xml version="1.0" encoding="utf-8"?>
<!-- Generator: Adobe Illustrator 23.1.1, SVG Export Plug-In . SVG Version: 6.00 Build 0)  -->
<svg version="1.1" id="Layer_1" xmlns="http://www.w3.org/2000/svg" xmlns:xlink="http://www.w3.org/1999/xlink" x="0px" y="0px"
	 viewBox="0 0 144 72" style="enable-background:new 0 0 144 72;" xml:space="preserve">
<style type="text/css">
	.st0{fill:#0288D1;}
	.st1{fill:#FFFFFF;}
	.st2{fill:#A3A3A3;}
	.st3{fill:#43A047;}
	.st4{fill:#C8E6C9;}
	.st5{fill:#2E7D32;}
	.st6{fill:#E8F5E9;}
</style>
<g>
	<g>
		<path class="st0" d="M62.7,52.8c0,3.4-2.7,6.1-5.9,6.1H26c-3.3,0-5.9-2.7-5.9-6.1V21.1c0-3.4,2.7-6.1,5.9-6.1h30.8
			c3.3,0,5.9,2.7,5.9,6.1V52.8z"/>
		<path class="st1" d="M27.2,30.9h5.9v20.7h-5.9V30.9z M30.1,28.4L30.1,28.4c-1.8,0-2.9-1.4-2.9-3c0-1.7,1.2-3,3-3
			c1.8,0,2.9,1.3,2.9,3C33.1,27.1,32,28.4,30.1,28.4z M55.6,51.6h-5.9V40.5c0-2.7-1.5-4.5-3.8-4.5c-1.8,0-2.7,1.2-3.2,2.4
			c-0.2,0.4-0.1,1.6-0.1,2.2v11h-5.9V30.9h5.9v3.2c0.9-1.4,2.2-3.2,5.6-3.2c4.2,0,7.4,2.7,7.4,8.9L55.6,51.6L55.6,51.6z"/>
	</g>
	<path class="st2" d="M74.5,31.9c-0.5,0-0.8,0.3-0.9,0.8c0,0.3,0.1,0.6,0.4,0.7l4.8,3.5L74,40.5c-0.4,0.3-0.5,0.8-0.2,1.2
		s0.8,0.5,1.1,0.2c0,0,0,0,0,0l5.8-4.2c0.4-0.3,0.5-0.8,0.2-1.2c-0.1-0.1-0.1-0.1-0.2-0.2L74.9,32C74.8,31.9,74.7,31.9,74.5,31.9z"
		/>
	<path class="st3" d="M120.9,58h-26c-1.7,0-3-1.3-3-3V19c0-1.7,1.3-3,3-3h19l10,10v29C123.9,56.6,122.6,58,120.9,58z"/>
	<path class="st4" d="M123.9,26h-10V16L123.9,26z"/>
	<path class="st5" d="M113.9,26l10,10V26H113.9z"/>
	<path class="st6" d="M114.9,36h-14h-2v2v2v2v2v2v2v2h18v-2v-2v-2v-2v-2v-2v-2H114.9z M100.9,38h4v2h-4V38z M100.9,42h4v2h-4V42z
		 M100.9,46h4v2h-4V46z M114.9,48h-8v-2h8V48z M114.9,44h-8v-2h8V44z M114.9,40h-8v-2h8V40z"/>
</g>
</svg>
