<svg width="20" height="21" viewBox="0 0 20 21" fill="none" xmlns="http://www.w3.org/2000/svg">
<path d="M0.833336 13.3335C0.833336 12.2289 1.72877 11.3335 2.83334 11.3335H15.5C16.6046 11.3335 17.5 12.2289 17.5 13.3335V16.8335C17.5 17.9381 16.6046 18.8335 15.5 18.8335H2.83333C1.72877 18.8335 0.833336 17.9381 0.833336 16.8335V13.3335Z" fill="#CBD6E0" stroke="#A0B0C0" stroke-width="1.5"/>
<path d="M0.833336 3.3335C0.833336 2.22893 1.72877 1.3335 2.83334 1.3335H15.5C16.6046 1.3335 17.5 2.22893 17.5 3.3335V6.8335C17.5 7.93807 16.6046 8.8335 15.5 8.8335H2.83333C1.72877 8.8335 0.833336 7.93806 0.833336 6.8335V3.3335Z" stroke="#A0B0C0" stroke-width="1.5"/>
<path fill-rule="evenodd" clip-rule="evenodd" d="M17 11.6286V10.5572C17 9.96548 16.515 9.48579 15.9167 9.48579C15.3184 9.48579 14.8333 9.96548 14.8333 10.5572V10.0236C14.8333 9.43191 14.3483 8.95222 13.75 8.95222C13.1517 8.95222 12.6667 9.43191 12.6667 10.0236V5.73793C12.6667 5.1462 12.1816 4.6665 11.5833 4.6665C10.985 4.6665 10.5 5.1462 10.5 5.73793V12.1665C9.30339 12.1665 8.33334 13.1259 8.33334 14.3094C8.33317 15.3547 8.66347 16.3739 9.278 17.2244L10.0724 18.3208C10.682 19.1646 11.6658 19.6657 12.7143 19.6665H15.4682C16.4494 19.6665 17.3905 19.2808 18.0842 18.5944C18.7778 17.9079 19.1672 16.977 19.1667 16.0065V11.6286C19.1667 11.0369 18.6816 10.5572 18.0833 10.5572C17.485 10.5572 17 11.0369 17 11.6286Z" fill="white"/>
<path fill-rule="evenodd" clip-rule="evenodd" d="M10.5 12.1644V13.7715Z" fill="white"/>
<path fill-rule="evenodd" clip-rule="evenodd" d="M12.6667 11.6286V10.5572Z" fill="white"/>
<path fill-rule="evenodd" clip-rule="evenodd" d="M14.8333 11.6286V10.5572Z" fill="white"/>
<path d="M14.8333 10.5572C14.8333 9.96548 15.3184 9.48579 15.9167 9.48579C16.515 9.48579 17 9.96548 17 10.5572V11.6286C17 11.0369 17.485 10.5572 18.0833 10.5572C18.6816 10.5572 19.1667 11.0369 19.1667 11.6286V16.0065C19.1672 16.977 18.7778 17.9079 18.0842 18.5944C17.3905 19.2808 16.4494 19.6665 15.4682 19.6665H12.7143C11.6658 19.6657 10.682 19.1646 10.0724 18.3208L9.278 17.2244C8.66347 16.3739 8.33317 15.3547 8.33334 14.3094C8.33334 13.1259 9.30339 12.1665 10.5 12.1665V5.73793C10.5 5.1462 10.985 4.6665 11.5833 4.6665C12.1816 4.6665 12.6667 5.1462 12.6667 5.73793V10.0236C12.6667 9.43191 13.1517 8.95222 13.75 8.95222C14.3483 8.95222 14.8333 9.43191 14.8333 10.0236V10.5572ZM14.8333 10.5572V11.6286M10.5 12.1644V13.7715M12.6667 11.6286V10.5572" stroke="#A0B0C0" stroke-width="1.5" stroke-linecap="round" stroke-linejoin="round"/>
</svg>
