<svg width="20" height="21" viewBox="0 0 20 21" fill="none" xmlns="http://www.w3.org/2000/svg">
<path d="M9.427 14.5106C9.427 15.7262 9.90989 16.8919 10.7694 17.7515C11.629 18.611 12.7948 19.0939 14.0103 19.0939C15.2259 19.0939 16.3917 18.611 17.2512 17.7515C18.1108 16.8919 18.5937 15.7262 18.5937 14.5106C18.5937 13.295 18.1108 12.1292 17.2512 11.2697C16.3917 10.4101 15.2259 9.92725 14.0103 9.92725C12.7948 9.92725 11.629 10.4101 10.7694 11.2697C9.90989 12.1292 9.427 13.295 9.427 14.5106Z" stroke="#A0B0C0" stroke-width="1.5" stroke-linecap="round" stroke-linejoin="round"/>
<path d="M17.1959 11.2158L10.7158 17.6951" stroke="#A0B0C0" stroke-width="1.5" stroke-linecap="round" stroke-linejoin="round"/>
<path d="M19.1666 8.41683V5.56427C19.1666 3.22768 17.2724 1.3335 14.9358 1.3335H5.06402C2.72743 1.3335 0.833252 3.22768 0.833252 5.56427V12.9361C0.833252 15.2726 2.72743 17.1668 5.06402 17.1668H6.66658" stroke="#A0B0C0" stroke-width="1.5" stroke-linecap="round" stroke-linejoin="round"/>
</svg>
