<?xml version="1.0" encoding="utf-8"?>
<!-- Generator: Adobe Illustrator 24.1.0, SVG Export Plug-In . SVG Version: 6.00 Build 0)  -->
<svg version="1.1" id="Layer_1" xmlns="http://www.w3.org/2000/svg" xmlns:xlink="http://www.w3.org/1999/xlink" x="0px" y="0px"
	 viewBox="0 0 144 72" style="enable-background:new 0 0 144 72;" xml:space="preserve">
<style type="text/css">
	.st0{fill:#A3A3A3;}
	.st1{fill:#2D2B2B;}
	.st2{fill:#9E9E9E;}
	.st3{fill:#43A047;}
	.st4{fill:#C8E6C9;}
	.st5{fill:#2E7D32;}
	.st6{fill:#E8F5E9;}
</style>
<g>
	<path class="st0" d="M68.1,31.9c-0.5,0-0.8,0.3-0.9,0.8c0,0.3,0.1,0.6,0.4,0.7l4.8,3.5l-4.8,3.5c-0.4,0.3-0.5,0.8-0.2,1.2
		s0.8,0.5,1.1,0.2l0,0l5.8-4.2c0.4-0.3,0.5-0.8,0.2-1.2c-0.1-0.1-0.1-0.1-0.2-0.2L68.6,32C68.5,31.9,68.3,31.9,68.1,31.9z"/>
</g>
<g>
	<path class="st1" d="M82.7,14.9c-1.6,0-2.9,1.3-2.9,2.9V27c0,0.1,0,0.1,0,0.2V56c0,0.6,0.5,1,1,1H122c0.4,0,0.7-0.2,0.9-0.5
		c0.2-0.3,0.2-0.7,0-1c-0.2-0.3-0.5-0.5-0.9-0.5H81.9V28.3h47.3V55h-18.6c-0.4,0-0.7,0.2-0.9,0.5c-0.2,0.3-0.2,0.7,0,1
		c0.2,0.3,0.5,0.5,0.9,0.5h19.5c0.6,0,1-0.5,1-1V27.3c0-0.1,0-0.1,0-0.2v-9.2c0-1.6-1.3-2.9-2.9-2.9C128.3,14.9,82.7,14.9,82.7,14.9
		z M82.7,17h45.5c0.5,0,0.9,0.4,0.9,0.9v8.4H81.9v-8.4C81.9,17.4,82.2,17,82.7,17z M86.5,19c-1.4,0-2.6,1.1-2.6,2.6s1.1,2.6,2.6,2.6
		s2.6-1.1,2.6-2.6C89.1,20.2,87.9,19,86.5,19z M92.7,19c-1.4,0-2.6,1.1-2.6,2.6s1.1,2.6,2.6,2.6s2.6-1.1,2.6-2.6
		C95.2,20.2,94.1,19,92.7,19z M97.3,19v5.1h29.8V19H97.3z M99.3,21.1H125v1H99.3V21.1z"/>
</g>
<path class="st2" d="M90.4,31.7c-1.2,0-2.2,0.8-2.2,1.8c0,1,0.9,1.9,2.1,1.9c0,0,0,0,0.1,0h30.5c1.2,0,2.2-0.8,2.2-1.8
	c0-1-0.9-1.9-2.1-1.9c0,0,0,0-0.1,0H90.4z"/>
<path class="st3" d="M52.3,56.7h-26c-1.7,0-3-1.3-3-3v-36c0-1.7,1.3-3,3-3h19l10,10v29C55.3,55.3,54,56.7,52.3,56.7z"/>
<path class="st4" d="M55.3,24.7h-10v-10L55.3,24.7z"/>
<path class="st5" d="M45.3,24.7l10,10v-10H45.3z"/>
<path class="st6" d="M46.3,34.7h-14h-2v2v2v2v2v2v2v2h18v-2v-2v-2v-2v-2v-2v-2H46.3z M32.3,36.7h4v2h-4V36.7z M32.3,40.7h4v2h-4
	V40.7z M32.3,44.7h4v2h-4V44.7z M46.3,46.7h-8v-2h8V46.7z M46.3,42.7h-8v-2h8V42.7z M46.3,38.7h-8v-2h8V38.7z"/>
<path class="st2" d="M90.4,36.9c-1.2,0-2.2,0.8-2.2,1.8c0,1,0.9,1.9,2.1,1.9c0,0,0,0,0.1,0h30.5c1.2,0,2.2-0.8,2.2-1.8
	c0-1-0.9-1.9-2.1-1.9c0,0,0,0-0.1,0H90.4z"/>
<path class="st2" d="M90.4,42c-1.2,0-2.2,0.8-2.2,1.8c0,1,0.9,1.9,2.1,1.9c0,0,0,0,0.1,0h30.5c1.2,0,2.2-0.8,2.2-1.8
	c0-1-0.9-1.9-2.1-1.9c0,0,0,0-0.1,0H90.4z"/>
<path class="st1" d="M113.3,47.2c-1.2,0-2.2,0.8-2.2,1.8c0,1,0.9,1.9,2.1,1.9c0,0-22.9,0-22.9,0h30.5c1.2,0,2.2-0.8,2.2-1.8
	c0-1-0.9-1.9-2.1-1.9c0,0,0,0-0.1,0H113.3z"/>
</svg>
