<?xml version="1.0" encoding="utf-8"?>
<!-- Generator: Adobe Illustrator 23.1.1, SVG Export Plug-In . SVG Version: 6.00 Build 0)  -->
<svg version="1.1" id="Layer_1" xmlns="http://www.w3.org/2000/svg" xmlns:xlink="http://www.w3.org/1999/xlink" x="0px" y="0px"
	 viewBox="0 0 144 72" style="enable-background:new 0 0 144 72;" xml:space="preserve">
<style type="text/css">
	.st0{fill:#EF7B48;}
	.st1{fill:#A3A3A3;}
	.st2{fill:#E0E0E0;}
	.st3{fill:#D9D9D9;}
	.st4{fill:#EEEEEE;}
	.st5{fill:#CA3737;}
	.st6{fill:#F5F5F5;}
	.st7{fill:#E84F4B;}
</style>
<g>
	<path class="st0" d="M89.2,16.9c-2.2,0-3.9,1.8-3.9,4s1.7,4,3.9,4c0.7,0,1.5-0.2,2.1-0.6l11.7,9.1c-1.3,1.6-2.1,3.7-2.1,6
		c0,2.5,0.9,4.8,2.4,6.5l-4.8,4.9c-0.3-0.1-0.5-0.1-0.8-0.1c-1.7,0-3.1,1.4-3.1,3.2s1.4,3.2,3.1,3.2s3.1-1.4,3.1-3.2
		c0-0.3,0-0.6-0.1-0.8l5-5.2l0,0c1.3,0.7,2.9,1.2,4.5,1.2c5.2,0,9.4-4.3,9.4-9.6c0-4.8-3.4-8.7-7.8-9.5v-5.4c1.5-0.9,2-2.9,1.1-4.4
		c-0.6-1-1.6-1.6-2.7-1.6c-1.7,0-3.1,1.4-3.1,3.2c0,1.1,0.6,2.2,1.6,2.8V30c-1.2,0.2-2.4,0.7-3.4,1.3L93,21.8c0.4-2.2-1-4.3-3.1-4.7
		C89.7,16.9,89.4,16.9,89.2,16.9z M110.3,34.6c2.6,0,4.7,2.2,4.7,4.8c0,2.7-2.1,4.8-4.7,4.8s-4.7-2.2-4.7-4.8
		C105.6,36.7,107.7,34.6,110.3,34.6z"/>
	<path class="st1" d="M78.7,31.9c-0.5,0-0.8,0.3-0.9,0.8c0,0.3,0.1,0.6,0.4,0.7l4.8,3.5l-4.8,3.5c-0.4,0.3-0.5,0.8-0.2,1.2
		s0.8,0.5,1.1,0.2l0,0l5.8-4.2c0.4-0.3,0.5-0.8,0.2-1.2c-0.1-0.1-0.1-0.1-0.2-0.2L79.2,32C79.1,31.9,78.9,31.9,78.7,31.9z"/>
	<path class="st2" d="M27.9,52.1h37c1.9,0,3.5-1.6,3.5-3.5v-26c0-1.9-1.6-3.5-3.5-3.5h-37c-1.9,0-3.5,1.6-3.5,3.5v26
		C24.4,50.5,26,52.1,27.9,52.1z"/>
	<path class="st3" d="M48.4,52.1h16.5c1.9,0,3.5-1.6,3.5-3.5v-26c0-1.9-1.6-3.5-3.5-3.5h-37c-1.9,0-3.5,1.6-3.5,3.5L48.4,52.1z"/>
	<path class="st4" d="M29.2,52.1h35.8c1.9,0,3.5-1.6,3.5-3.5V23.1L29.2,52.1z"/>
	<path class="st2" d="M48.2,52.1h16.8c1.9,0,3.5-1.6,3.5-3.5V23.1L41.2,43.2L48.2,52.1z"/>
	<path class="st5" d="M64.9,21.1h-37c-1.9,0-3.5-0.4-3.5,1.5v26c0,1.9,1.6,3.5,3.5,3.5h1.5V23.6h34v28.5h1.5c1.9,0,3.5-1.6,3.5-3.5
		v-26C68.4,20.6,66.8,21.1,64.9,21.1z"/>
	<path class="st6" d="M64.9,19.1H46.4H27.9c-1.9,0-3.5,1.5-3.5,3.5c0,1.2,1.5,2.3,1.5,2.3l20.5,14.5l20.5-14.5c0,0,1.5-1.1,1.5-2.3
		C68.4,20.6,66.8,19.1,64.9,19.1z"/>
	<path class="st7" d="M65.7,19.2L46.4,32.6L27.2,19.2c-1.6,0.3-2.8,1.7-2.8,3.4c0,1.2,1.5,2.3,1.5,2.3l20.5,14.5l20.5-14.5
		c0,0,1.5-1.1,1.5-2.3C68.4,20.9,67.2,19.5,65.7,19.2z"/>
</g>
</svg>
