<svg width="20" height="21" viewBox="0 0 20 21" fill="none" xmlns="http://www.w3.org/2000/svg">
<path d="M7.50006 19.4657H2.41386C1.65208 19.4657 1.03455 18.8482 1.03455 18.0864V2.91398C1.03455 2.15221 1.65208 1.53467 2.41386 1.53467H10.0001M1.03455 5.6726H18.9656M18.9656 5.6726V2.91398C18.9656 2.15221 18.348 1.53467 17.5863 1.53467H10.0001M18.9656 5.6726V8.40248M1.03455 10.0692H10.0001V1.53467" stroke="#A0B0C0" stroke-width="1.5" stroke-linecap="round" stroke-linejoin="round"/>
<path d="M18.2363 14.6052L13.8645 18.9769L11.7157 19.4062L12.1458 17.2582L16.5175 12.8864C16.63 12.7738 16.7635 12.6845 16.9105 12.6236C17.0575 12.5626 17.2151 12.5312 17.3742 12.5312C17.5333 12.5312 17.6909 12.5626 17.8379 12.6236C17.9849 12.6845 18.1185 12.7738 18.2309 12.8864L18.2363 12.891C18.4633 13.1185 18.5909 13.4267 18.5909 13.7481C18.5909 14.0695 18.4633 14.3778 18.2363 14.6052Z" stroke="#A0B0C0" stroke-width="1.5" stroke-linecap="round" stroke-linejoin="round"/>
</svg>
