<svg version="1.0" xmlns="http://www.w3.org/2000/svg"
 width="152.000000pt" height="150.000000pt" viewBox="0 0 152.000000 150.000000"
 preserveAspectRatio="xMidYMid meet">

<g transform="translate(0.000000,150.000000) scale(0.100000,-0.100000)"
fill="#0079fb" stroke="none">
<path d="M655 1489 c-90 -14 -154 -35 -246 -81 -67 -33 -102 -60 -174 -132
-154 -155 -214 -290 -223 -502 -5 -146 15 -242 80 -374 34 -69 59 -103 138
-181 82 -83 108 -103 190 -142 52 -26 123 -53 158 -61 l62 -14 0 259 0 259
-95 0 -95 0 0 115 0 115 94 0 94 0 4 133 c3 119 6 137 30 182 32 62 60 88 120
115 62 27 120 34 222 25 l86 -7 0 -98 0 -98 -80 -4 c-71 -3 -83 -6 -107 -30
-25 -25 -27 -35 -31 -123 l-4 -95 106 0 c122 0 113 12 91 -125 -8 -49 -15 -93
-15 -97 0 -5 -40 -8 -90 -8 l-90 0 0 -259 0 -259 63 14 c87 20 210 81 287 143
180 144 280 353 280 586 0 285 -151 535 -402 665 -132 69 -314 101 -453 79z"/>
</g>
</svg>
