<?xml version="1.0" encoding="utf-8"?>
<!-- Generator: Adobe Illustrator 24.1.0, SVG Export Plug-In . SVG Version: 6.00 Build 0)  -->
<svg version="1.1" id="Layer_1" xmlns="http://www.w3.org/2000/svg" xmlns:xlink="http://www.w3.org/1999/xlink" x="0px" y="0px"
	 viewBox="0 0 144 72" style="enable-background:new 0 0 144 72;" xml:space="preserve">
<style type="text/css">
	.st0{fill:#A3A3A3;}
	.st1{fill:#2D2B2B;}
</style>
<g>
	<g>
		<path class="st0" d="M68.1,31.9c-0.5,0-0.8,0.3-0.9,0.8c0,0.3,0.1,0.6,0.4,0.7l4.8,3.5l-4.8,3.5c-0.4,0.3-0.5,0.8-0.2,1.2
			s0.8,0.5,1.1,0.2l0,0l5.8-4.2c0.4-0.3,0.5-0.8,0.2-1.2c-0.1-0.1-0.1-0.1-0.2-0.2L68.6,32C68.5,31.9,68.3,31.9,68.1,31.9z"/>
	</g>
	<g>
		<path class="st1" d="M13.6,14.9c-1.6,0-2.9,1.3-2.9,2.9V27c0,0.1,0,0.1,0,0.2V56c0,0.6,0.5,1,1,1h41.2c0.4,0,0.7-0.2,0.9-0.5
			s0.2-0.7,0-1S53.3,55,52.9,55H12.8V28.3h47.3V55H41.5c-0.4,0-0.7,0.2-0.9,0.5s-0.2,0.7,0,1s0.5,0.5,0.9,0.5H61c0.6,0,1-0.5,1-1
			V27.3c0-0.1,0-0.1,0-0.2v-9.2c0-1.6-1.3-2.9-2.9-2.9C59.2,14.9,13.6,14.9,13.6,14.9z M13.6,17h45.5c0.5,0,0.9,0.4,0.9,0.9v8.4
			H12.8v-8.4C12.8,17.4,13.1,17,13.6,17z M17.4,19c-1.4,0-2.6,1.1-2.6,2.6s1.1,2.6,2.6,2.6s2.6-1.1,2.6-2.6C20,20.2,18.8,19,17.4,19
			z M23.6,19c-1.4,0-2.6,1.1-2.6,2.6s1.1,2.6,2.6,2.6s2.6-1.1,2.6-2.6C26.1,20.2,25,19,23.6,19z M28.2,19v5.1H58V19H28.2z
			 M30.2,21.1h25.7v1H30.2V21.1z"/>
	</g>
	<g>
		<path class="st1" d="M82.7,14.9c-1.6,0-2.9,1.3-2.9,2.9V27c0,0.1,0,0.1,0,0.2V56c0,0.6,0.5,1,1,1H122c0.4,0,0.7-0.2,0.9-0.5
			c0.2-0.3,0.2-0.7,0-1c-0.2-0.3-0.5-0.5-0.9-0.5H81.9V28.3h47.3V55h-18.6c-0.4,0-0.7,0.2-0.9,0.5c-0.2,0.3-0.2,0.7,0,1
			c0.2,0.3,0.5,0.5,0.9,0.5h19.5c0.6,0,1-0.5,1-1V27.3c0-0.1,0-0.1,0-0.2v-9.2c0-1.6-1.3-2.9-2.9-2.9
			C128.3,14.9,82.7,14.9,82.7,14.9z M82.7,17h45.5c0.5,0,0.9,0.4,0.9,0.9v8.4H81.9v-8.4C81.9,17.4,82.2,17,82.7,17z M86.5,19
			c-1.4,0-2.6,1.1-2.6,2.6s1.1,2.6,2.6,2.6s2.6-1.1,2.6-2.6C89.1,20.2,87.9,19,86.5,19z M92.7,19c-1.4,0-2.6,1.1-2.6,2.6
			s1.1,2.6,2.6,2.6s2.6-1.1,2.6-2.6C95.2,20.2,94.1,19,92.7,19z M97.3,19v5.1h29.8V19H97.3z M99.3,21.1H125v1H99.3V21.1z"/>
	</g>
	<path class="st1" d="M40.6,31.9c-1.2,0.1-2.3,0.6-3.1,1.4l-3.4,3.4c0.5-0.5,2.5-0.2,3,0.3l2-2c0.5-0.5,1.1-0.7,1.6-0.8
		c0.4,0,1,0.1,1.5,0.6s0.6,1,0.6,1.4c0,0.6-0.3,1.2-0.8,1.7l-3.6,3.6c-0.9,0.9-2.3,1-3.1,0.2c-0.5-0.5-1.2-0.5-1.6,0
		c-0.5,0.5-0.5,1.2,0,1.6c0.8,0.8,1.9,1.2,3,1.2c1.2,0,2.4-0.5,3.4-1.4l3.6-3.6c0.9-0.9,1.4-2.1,1.4-3.4c0-1.1-0.4-2.2-1.2-3
		C43,32.3,41.8,31.8,40.6,31.9z M35.1,37.7c-1.2,0-2.4,0.5-3.4,1.4l-3.6,3.6c-0.9,0.9-1.4,2.1-1.4,3.4c0,1.1,0.4,2.2,1.2,3
		c0.9,0.9,2,1.3,3.2,1.2c1.2-0.1,2.3-0.6,3.1-1.4l3.4-3.4c-0.5,0.5-2.5,0.2-3-0.3l-2,2c-0.5,0.5-1.1,0.7-1.6,0.8
		c-0.4,0-1-0.1-1.5-0.6s-0.6-1-0.6-1.4c0-0.6,0.3-1.2,0.8-1.7l3.6-3.6c0.9-0.9,2.3-1,3.1-0.2c0.5,0.5,1.2,0.5,1.6,0
		c0.5-0.5,0.5-1.2,0-1.6C37.3,38.1,36.2,37.7,35.1,37.7z"/>
	<path class="st1" d="M90.4,31.7c-1.2,0-2.2,0.8-2.2,1.8c0,1,0.9,1.9,2.1,1.9c0,0,0,0,0.1,0h30.5c1.2,0,2.2-0.8,2.2-1.8
		c0-1-0.9-1.9-2.1-1.9c0,0,0,0-0.1,0H90.4z M90.4,39.1c-1.2,0-2.2,0.8-2.2,1.8v9.2c0,1,1,1.8,2.2,1.8h10.9c1.2,0,2.2-0.8,2.2-1.8
		v-9.2c0-1-1-1.8-2.2-1.8H90.4z M109.9,39.1c-1.2,0-2.2,0.8-2.2,1.8v9.2c0,1,1,1.8,2.2,1.8h10.9c1.2,0,2.2-0.8,2.2-1.8v-9.2
		c0-1-1-1.8-2.2-1.8H109.9z"/>
</g>
</svg>
