<svg xmlns="http://www.w3.org/2000/svg" width="300" height="300">
<path style="fill:#054bdb; stroke:none;" d="M0 0L0 300L300 300L300 0L0 0z"/>
<path style="fill:#525e98; stroke:none;" d="M65 117L66 118L65 117z"/>
<path style="fill:#6892e9; stroke:none;" d="M65 183L66 183L66 118L80 118L80 132L81 132L81 117L66.0278 118.603L65 136L65 183M227 117L227 118L249 118L249 125L250 125L250 117L227 117z"/>
<path style="fill:#f8fafe; stroke:none;" d="M66 118L66 183L80 183L80 152L81.6034 140.603L95 139L95 183L110 183L110 140C104.16 139.81 102.19 137.84 102 132L80 132L80 118L66 118M227 118L228 124L220 125L220 132L213 132L213 139L220 139L220 183L235 183L235 139L242 139L242 132L235 132L235 124L249 125L249 118L227 118z"/>
<path style="fill:#6892e9; stroke:none;" d="M227 123L228 124L227 123M220 124L220 125L227 125L220 124M235 124L235 125L248 125L235 124z"/>
<path style="fill:#525e98; stroke:none;" d="M219 125L220 126L219 125M219 131L220 132L219 131M21 132L21 140L43 140L43 154L44 154L44 139L22 139L21 132z"/>
<path style="fill:#f68708; stroke:none;" d="M22 132L22 139L44 139L44 154L22 154L22 161L15 161L15 176L22 176L22 183L58 183L58 139L52 140L51 132L22 132z"/>
<path style="fill:#525e98; stroke:none;" d="M51 132L51 139L52 139L51 132z"/>
<path style="fill:#6892e9; stroke:none;" d="M102 132L102 139L103 139L102 132z"/>
<path style="fill:#f8fafe; stroke:none;" d="M117 132L117 183L132 183L132 146L154 146L154 132L139 132L139 140L132 140L132 132L117 132z"/>
<path style="fill:#6892e9; stroke:none;" d="M168 132L168 139L163 139L163 140C167.995 139.611 169.996 136.81 168 132z"/>
<path style="fill:#f8fafe; stroke:none;" d="M169 132C168.832 137.145 167.532 139.911 162 139C159.221 148.402 156.658 175.854 169 176L169 183L198 183L198 176L205 176L205 169L198 169L198 176L176 176L176 161L205 161L205 139C199.468 139.911 198.168 137.145 198 132L169 132z"/>
<path style="fill:#6892e9; stroke:none;" d="M212 132C212.075 138.301 213.699 139.925 220 140L220 139L213 139L212 132z"/>
<path style="fill:#525e98; stroke:none;" d="M242 132L242 139L243 139L242 132z"/>
<path style="fill:#6892e9; stroke:none;" d="M256 132L256 139L251 139L251 140C255.995 139.611 257.996 136.81 256 132z"/>
<path style="fill:#f8fafe; stroke:none;" d="M257 132C256.832 137.145 255.532 139.911 250 139L249 140L250 154L257 154L257 161L264 161L265 169C270.532 168.089 271.832 170.855 272 176L257 176L257 169L250 169L250 176L257 176L257 183L279 183L279 176L286 176C286 168.976 287.965 161.294 279 161L279 154L271 154L271 147L264 147L264 139L279 139C278.655 128.491 264.809 132 257 132z"/>
<path style="fill:#6892e9; stroke:none;" d="M278 132L279 133L278 132z"/>
<path style="fill:#525e98; stroke:none;" d="M14 139L14 147L15 147L14 139z"/>
<path style="fill:#f68708; stroke:none;" d="M15 139L15 147C23.3655 146.725 23.3655 139.275 15 139z"/>
<path style="fill:#525e98; stroke:none;" d="M52 139L53 140L52 139M58 139L58 183L59 183C59 170.52 62.8102 150.463 58 139z"/>
<path style="fill:#6892e9; stroke:none;" d="M81 139L81 140L95 140L81 139M103 139L103 140L110 140L103 139M132 139L132 140L139 140L132 139M161 139L162 140L161 139M176 139L176 140L190 140L190 154L191 154L191 139L176 139M199 139L199 140L204 140L199 139M205 139L205 161L176 161L176 162C181.703 162 201.287 165.05 204.972 160.397C207.175 157.616 206.001 151.327 206 148C205.999 144.869 206.213 141.891 205 139z"/>
<path style="fill:#525e98; stroke:none;" d="M212 139L213 140L212 139z"/>
<path style="fill:#6892e9; stroke:none;" d="M235 139L235 140L242 140L235 139M249 139L250 140L249 139M264 139L264 140L278 140L278 147L286 147L286 146L279 146L279 140L286 140L264 139M80 140L80 183L81 183C81 170.781 84.7105 151.226 80 140z"/>
<path style="fill:#054bdb; stroke:none;" d="M176 140L176 153L190 153L190 140L176 140z"/>
<path style="fill:#525e98; stroke:none;" d="M264 140L264 146L265 146L264 140z"/>
<path style="fill:#f8fafe; stroke:none;" d="M279 140L279 146L286 146L286 140L279 140z"/>
<path style="fill:#525e98; stroke:none;" d="M286 140L286 146L287 146L286 140z"/>
<path style="fill:#6892e9; stroke:none;" d="M249 141L249 154L250 154L249 141z"/>
<path style="fill:#525e98; stroke:none;" d="M21 146L22 147L21 146z"/>
<path style="fill:#6892e9; stroke:none;" d="M132 146L132 147L154 147L132 146M264 146L264 147L271 147L271 154C273.549 147.859 269.488 146.065 264 146z"/>
<path style="fill:#525e98; stroke:none;" d="M271 146L272 147L271 146M22 153L22 154L42 154L22 153z"/>
<path style="fill:#6892e9; stroke:none;" d="M176 153L177 154L176 153z"/>
<path style="fill:#525e98; stroke:none;" d="M177 153L177 154L190 154L177 153M272 153L272 154L278 154L272 153M21 154L21 161L22 161L21 154z"/>
<path style="fill:#6892e9; stroke:none;" d="M256 154C256.075 160.301 257.699 161.925 264 162L264 161L257 161L256 154z"/>
<path style="fill:#525e98; stroke:none;" d="M14 161L14 176L15 176L14 161M29 161L29 162L43 162L43 176L44 176L44 161L29 161M205 161L206 162L205 161M256 161L257 162L256 161z"/>
<path style="fill:#6892e9; stroke:none;" d="M285 161L286 162L285 161z"/>
<path style="fill:#054bdb; stroke:none;" d="M29 162L30 176L43 176L43 162L29 162z"/>
<path style="fill:#525e98; stroke:none;" d="M286 162L286 176L287 176L286 162M29 163L29 176L30 176L29 163z"/>
<path style="fill:#6892e9; stroke:none;" d="M198 168L198 169L205 169L205 176C207.549 169.859 203.488 168.065 198 168z"/>
<path style="fill:#525e98; stroke:none;" d="M205 168L206 169L205 168z"/>
<path style="fill:#6892e9; stroke:none;" d="M249 168L249 176L250 176L250 169L257 169L249 168M264 168L265 169L264 168M266 168L266 169L271 169L266 168z"/>
<path style="fill:#525e98; stroke:none;" d="M197 169L197 174L198 174L197 169z"/>
<path style="fill:#6892e9; stroke:none;" d="M271 169L271 176L272 176L271 169z"/>
<path style="fill:#525e98; stroke:none;" d="M31 175L31 176L42 176L31 175z"/>
<path style="fill:#6892e9; stroke:none;" d="M161 175L162 176L161 175M176 175L177 176L176 175z"/>
<path style="fill:#525e98; stroke:none;" d="M178 175L178 176L196 176L178 175z"/>
<path style="fill:#6892e9; stroke:none;" d="M197 175L198 176L197 175z"/>
<path style="fill:#525e98; stroke:none;" d="M257 175L257 176L270 176L257 175M21 176L21 183L22 183L21 176z"/>
<path style="fill:#6892e9; stroke:none;" d="M168 176L168 183L169 183L168 176z"/>
<path style="fill:#525e98; stroke:none;" d="M198 176L199 177L198 176z"/>
<path style="fill:#6892e9; stroke:none;" d="M256 176L256 183L257 183L256 176z"/>
</svg>
