<?xml version="1.0" encoding="utf-8"?>
<!-- Generator: Adobe Illustrator 23.1.1, SVG Export Plug-In . SVG Version: 6.00 Build 0)  -->
<svg version="1.1" id="Layer_1" xmlns="http://www.w3.org/2000/svg" xmlns:xlink="http://www.w3.org/1999/xlink" x="0px" y="0px"
	 viewBox="0 0 144 72" style="enable-background:new 0 0 144 72;" xml:space="preserve">
<style type="text/css">
	.st0{fill:#A3A3A3;}
	.st1{fill:url(#SVGID_1_);}
	.st2{fill:#FFFFFF;}
	.st3{fill:#2D2B2B;}
</style>
<g>
	<path class="st0" d="M73,31.4c-0.5,0-0.8,0.3-0.9,0.8c0,0.3,0.1,0.6,0.4,0.7l4.8,3.5l-4.8,3.5c-0.4,0.3-0.5,0.8-0.2,1.2
		s0.8,0.5,1.1,0.2l0,0l5.8-4.2c0.4-0.3,0.5-0.8,0.2-1.2c-0.1-0.1-0.1-0.1-0.2-0.2l-5.7-4.2C73.4,31.4,73.2,31.4,73,31.4z"/>
	<g>
		
			<radialGradient id="SVGID_1_" cx="-944.7813" cy="2165.7632" r="69.648" gradientTransform="matrix(0.6435 -0.7654 0.5056 0.4251 -461.85 -1575.506)" gradientUnits="userSpaceOnUse">
			<stop  offset="7.300000e-02" style="stop-color:#EACC7B"/>
			<stop  offset="0.184" style="stop-color:#ECAA59"/>
			<stop  offset="0.307" style="stop-color:#EF802E"/>
			<stop  offset="0.358" style="stop-color:#EF6D3A"/>
			<stop  offset="0.46" style="stop-color:#F04B50"/>
			<stop  offset="0.516" style="stop-color:#F03E58"/>
			<stop  offset="0.689" style="stop-color:#DB359E"/>
			<stop  offset="0.724" style="stop-color:#CE37A4"/>
			<stop  offset="0.789" style="stop-color:#AC3CB4"/>
			<stop  offset="0.877" style="stop-color:#7544CF"/>
			<stop  offset="0.98" style="stop-color:#2B4FF2"/>
		</radialGradient>
		<path class="st1" d="M51.7,59h-26c-5.5,0-10-4.5-10-10V23c0-5.5,4.5-10,10-10h26c5.5,0,10,4.5,10,10v26C61.7,54.5,57.2,59,51.7,59
			z"/>
		<path class="st2" d="M38.7,22c4.6,0,5.1,0,6.9,0.1c1.7,0.1,2.6,0.4,3.2,0.6c0.8,0.3,1.4,0.7,2,1.3c0.6,0.6,1,1.2,1.3,2
			c0.2,0.6,0.5,1.5,0.6,3.2c0,1.7,0,2.2,0,6.8s0,5.1-0.1,6.9c-0.1,1.7-0.4,2.6-0.6,3.2c-0.3,0.8-0.7,1.4-1.3,2s-1.2,1-2,1.3
			c-0.6,0.2-1.5,0.5-3.2,0.6c-1.7,0-2.2,0-6.8,0s-5.1,0-6.9-0.1c-1.7-0.1-2.6-0.4-3.2-0.6c-0.8-0.3-1.4-0.7-2-1.3s-1-1.2-1.3-2
			c-0.2-0.6-0.5-1.5-0.6-3.2c0-1.7,0-2.2,0-6.8s0-5.1,0.1-6.9c0.1-1.7,0.4-2.6,0.6-3.2c0.3-0.8,0.7-1.4,1.3-2c0.6-0.6,1.2-1,2-1.3
			c0.6-0.2,1.5-0.5,3.2-0.6C33.6,22,34.1,22,38.7,22 M38.7,19c-4.6,0-5.2,0-7,0.1s-3,0.4-4.1,0.8s-2.1,1-3,2s-1.5,1.9-2,3
			c-0.4,1.1-0.7,2.3-0.8,4.1c-0.1,1.8-0.1,2.4-0.1,7s0,5.2,0.1,7s0.4,3,0.8,4.1s1,2.1,2,3c0.9,0.9,1.9,1.5,3,2
			c1.1,0.4,2.3,0.7,4.1,0.8c1.8,0.1,2.4,0.1,7,0.1s5.2,0,7-0.1s3-0.4,4.1-0.8c1.1-0.4,2.1-1,3-2c0.9-0.9,1.5-1.9,2-3
			c0.4-1.1,0.7-2.3,0.8-4.1s0.1-2.4,0.1-7s0-5.2-0.1-7s-0.4-3-0.8-4.1c-0.4-1.1-1-2.1-2-3s-1.9-1.5-3-2c-1.1-0.4-2.3-0.7-4.1-0.8
			C43.9,19,43.3,19,38.7,19L38.7,19z"/>
		<path class="st2" d="M38.7,27c-5,0-9,4-9,9s4,9,9,9s9-4,9-9S43.7,27,38.7,27z M38.7,42c-3.3,0-6-2.7-6-6s2.7-6,6-6s6,2.7,6,6
			S42,42,38.7,42z"/>
		<circle class="st2" cx="47.7" cy="27" r="2"/>
	</g>
	<path class="st3" d="M107.8,41.4c-0.8,0-1.5,0.7-1.5,1.5v8.7h-6l9,9l9-9h-6v-8.7c0-0.8-0.7-1.5-1.5-1.5H107.8z"/>
	<path class="st3" d="M94,14.7c-2.1,0-3.8,1.7-3.8,3.8v22.9c0,2.1,1.7,3.8,3.8,3.8h30.5c2.1,0,3.8-1.7,3.8-3.8V18.5
		c0-2.1-1.7-3.8-3.8-3.8H94z M94,18.5h30.5v22.9H94V18.5z M105.4,22.3c-1.1,0-1.9,0.9-1.9,1.9c0,1.1,0.9,1.9,1.9,1.9
		s1.9-0.9,1.9-1.9C107.4,23.2,106.5,22.3,105.4,22.3z M114,28l-6.7,7.6l-4.8-4.8l-5.2,6.7h23.8L114,28z"/>
</g>
</svg>
