<svg width="20" height="21" viewBox="0 0 20 21" fill="none" xmlns="http://www.w3.org/2000/svg">
<path d="M7.3334 13.7402C6.77539 14.2183 6.06816 14.4871 5.3334 14.5002C4.79528 14.5518 4.25241 14.4838 3.74365 14.301C3.2349 14.1182 2.77285 13.8252 2.39059 13.443C2.00834 13.0607 1.71534 12.5987 1.53257 12.0899C1.3498 11.5811 1.28179 11.0383 1.3334 10.5001C1.28179 9.96203 1.3498 9.41916 1.53257 8.9104C1.71534 8.40164 2.00834 7.9396 2.39059 7.55734C2.77285 7.17509 3.2349 6.88208 3.74365 6.69932C4.25241 6.51655 4.79528 6.44854 5.3334 6.50015C9.00007 6.50015 11.0001 14.5002 14.6667 14.5002C15.2049 14.5518 15.7477 14.4838 16.2565 14.301C16.7652 14.1182 17.2273 13.8252 17.6095 13.443C17.9918 13.0607 18.2848 12.5987 18.4676 12.0899C18.6503 11.5811 18.7183 11.0383 18.6667 10.5001C18.7183 9.96203 18.6503 9.41916 18.4676 8.9104C18.2848 8.40164 17.9918 7.9396 17.6095 7.55734C17.2273 7.17509 16.7652 6.88208 16.2565 6.69932C15.7477 6.51655 15.2049 6.44854 14.6667 6.50015C13.9551 6.52837 13.2738 6.79618 12.7334 7.26015" stroke="#A0B0C0" stroke-width="1.5" stroke-linecap="round" stroke-linejoin="round"/>
</svg>
