<?xml version="1.0" encoding="utf-8"?>
<!-- Generator: Adobe Illustrator 23.1.1, SVG Export Plug-In . SVG Version: 6.00 Build 0)  -->
<svg version="1.1" id="Layer_1" xmlns="http://www.w3.org/2000/svg" xmlns:xlink="http://www.w3.org/1999/xlink" x="0px" y="0px"
	 viewBox="0 0 144 72" style="enable-background:new 0 0 144 72;" xml:space="preserve">
<style type="text/css">
	.st0{fill:#A3A3A3;}
	.st1{fill:#43A047;}
	.st2{fill:#C8E6C9;}
	.st3{fill:#2E7D32;}
	.st4{fill:#E8F5E9;}
	.st5{fill:#039BE5;}
	.st6{fill:#FFFFFF;}
</style>
<path class="st0" d="M66,31.9c-0.5,0-0.8,0.3-0.9,0.8c0,0.3,0.1,0.6,0.4,0.7l4.8,3.5l-4.8,3.5c-0.4,0.3-0.5,0.8-0.2,1.2
	s0.8,0.5,1.1,0.2l0,0l5.8-4.2c0.4-0.3,0.5-0.8,0.2-1.2c-0.1-0.1-0.1-0.1-0.2-0.2L66.5,32C66.4,31.9,66.2,31.9,66,31.9z"/>
<path class="st1" d="M52.7,58h-26c-1.7,0-3-1.3-3-3V19c0-1.7,1.3-3,3-3h19l10,10v29C55.7,56.6,54.4,58,52.7,58z"/>
<path class="st2" d="M55.7,26h-10V16L55.7,26z"/>
<path class="st3" d="M45.7,26l10,10V26H45.7z"/>
<path class="st4" d="M46.7,36h-14h-2v2v2v2v2v2v2v2h18v-2v-2v-2v-2v-2v-2v-2H46.7z M32.7,38h4v2h-4V38z M32.7,42h4v2h-4V42z
	 M32.7,46h4v2h-4V46z M46.7,48h-8v-2h8V48z M46.7,44h-8v-2h8V44z M46.7,40h-8v-2h8V40z"/>
<path class="st5" d="M111.3,26c-1.3,0-2.6,0.3-3.8,0.7c-1.4-2.2-3.9-3.7-6.7-3.7c-2.1,0-4,0.8-5.4,2.2c-1.7-1.9-4.2-3.2-7.1-3.2
	c-5.2,0-9.5,4.3-9.5,9.5c0,0.8,0.1,1.6,0.3,2.3c-2,1.6-3.3,4-3.3,6.7c0,4.7,3.8,8.5,8.5,8.5c0.4,0,0.8,0,1.2-0.1
	c1.3,3,4.3,5.1,7.8,5.1c3.2,0,5.9-1.7,7.4-4.3c0.7,0.2,1.4,0.3,2.1,0.3c2.6,0,4.9-1.3,6.4-3.2c0.7,0.1,1.4,0.2,2.1,0.2
	c5.8,0,10.5-4.7,10.5-10.5S117.1,26,111.3,26z"/>
<path class="st6" d="M90.6,40C90.7,40,90.7,40,90.6,40C90.7,40,90.7,40,90.6,40L90.6,40z M96.3,38.9C96.3,38.9,96.4,38.9,96.3,38.9
	C96.4,38.9,96.3,38.9,96.3,38.9C96.3,38.9,96.3,38.9,96.3,38.9z M82,38.9C82,38.9,82,38.9,82,38.9C82,38.9,82,38.9,82,38.9
	C82,38.9,82,38.9,82,38.9z M98.9,36.9C98.9,36.9,98.9,37,98.9,36.9C98.9,37,98.9,37,98.9,36.9C98.9,37,98.9,36.9,98.9,36.9z
	 M90.6,34C90.7,34,90.7,34,90.6,34C90.7,34,90.7,34,90.6,34L90.6,34z M96.2,37.2L96.2,37.2c0,0.4,0.2,0.7,0.5,0.8
	C96.4,37.8,96.2,37.6,96.2,37.2z M112.9,39.7C113,39.8,112.9,39.8,112.9,39.7C112.9,39.8,113,39.8,112.9,39.7z M83.4,36L83.4,36
	c0.3,0,0.5,0,0.7,0.1C83.9,36,83.6,36,83.4,36z M84.6,36.9C84.6,36.9,84.5,37,84.6,36.9C84.5,37,84.5,37,84.6,36.9
	C84.5,37,84.6,36.9,84.6,36.9z M110,39.2c0.1,0.1,0.1,0.2,0.2,0.3c0.1,0.1,0.2,0.2,0.3,0.2c-0.1-0.1-0.2-0.1-0.3-0.2
	C110.2,39.4,110.1,39.3,110,39.2z M112.6,36.8C112.6,36.8,112.6,36.8,112.6,36.8C112.6,36.8,112.6,36.8,112.6,36.8
	C112.6,36.8,112.6,36.8,112.6,36.8z M112.6,39.2C112.6,39.2,112.7,39.2,112.6,39.2C112.7,39.2,112.7,39.2,112.6,39.2
	C112.7,39.2,112.6,39.2,112.6,39.2z"/>
<path class="st6" d="M81.7,39.5C81.7,39.5,81.7,39.5,81.7,39.5c0.1,0.2,0.2,0.2,0.3,0.2c0.5,0.2,0.9,0.3,1.4,0.3
	c0.9,0,1.5-0.5,1.5-1.2v0c0-0.7-0.7-0.9-1.3-1.1l-0.1,0c-0.5-0.1-0.9-0.3-0.9-0.5v0c0-0.2,0.2-0.4,0.6-0.4c0.4,0,0.9,0.1,1.2,0.3
	c0,0,0.1,0.1,0.1,0c0,0,0.2-0.4,0.2-0.5c0,0,0-0.1,0-0.1c-0.4-0.2-0.8-0.3-1.4-0.3l-0.1,0c-0.9,0-1.5,0.5-1.5,1.2v0
	c0,0.7,0.7,1,1.3,1.1l0.1,0c0.5,0.1,0.8,0.2,0.8,0.5v0c0,0.3-0.3,0.5-0.7,0.5c-0.2,0-0.7,0-1.2-0.3c-0.1,0-0.1-0.1-0.2-0.1
	c0,0-0.1,0-0.1,0L81.7,39.5z M96.1,39.5C96,39.5,96.1,39.5,96.1,39.5c0.1,0.2,0.2,0.2,0.3,0.2c0.5,0.2,0.9,0.3,1.4,0.3
	c0.9,0,1.5-0.5,1.5-1.2v0c0-0.7-0.7-0.9-1.3-1.1l-0.1,0c-0.5-0.1-0.9-0.3-0.9-0.5v0c0-0.2,0.2-0.4,0.6-0.4c0.4,0,0.9,0.1,1.2,0.3
	c0,0,0.1,0.1,0.1,0c0,0,0.2-0.4,0.2-0.5c0,0,0-0.1,0-0.1c-0.4-0.2-0.8-0.3-1.4-0.3l-0.1,0c-0.9,0-1.5,0.5-1.5,1.2v0
	c0,0.7,0.7,1,1.3,1.1l0.1,0c0.5,0.1,0.8,0.2,0.8,0.5v0c0,0.3-0.3,0.5-0.7,0.5c-0.2,0-0.7,0-1.2-0.3c-0.1,0-0.1-0.1-0.2-0.1
	c0,0-0.1,0-0.1,0L96.1,39.5z M106.3,37.2c-0.1-0.2-0.2-0.5-0.4-0.6c-0.2-0.2-0.4-0.3-0.6-0.4c-0.2-0.1-0.5-0.2-0.8-0.2
	c-0.3,0-0.6,0.1-0.8,0.2c-0.2,0.1-0.4,0.2-0.6,0.4c-0.2,0.2-0.3,0.4-0.4,0.6c-0.1,0.2-0.1,0.5-0.1,0.8c0,0.3,0,0.5,0.1,0.8
	c0.1,0.2,0.2,0.5,0.4,0.6c0.2,0.2,0.4,0.3,0.6,0.4c0.2,0.1,0.5,0.2,0.8,0.2c0.3,0,0.6-0.1,0.8-0.2c0.2-0.1,0.4-0.2,0.6-0.4
	c0.2-0.2,0.3-0.4,0.4-0.6c0.1-0.2,0.1-0.5,0.1-0.8S106.4,37.5,106.3,37.2 M105.5,38c0,0.4-0.1,0.8-0.3,1c-0.2,0.2-0.4,0.3-0.8,0.3
	s-0.6-0.1-0.8-0.3c-0.2-0.2-0.2-0.6-0.2-1s0.1-0.8,0.2-1c0.2-0.2,0.4-0.3,0.8-0.3s0.6,0.1,0.8,0.3C105.4,37.2,105.5,37.6,105.5,38
	 M112.7,39.2c0-0.1-0.1,0-0.1,0c-0.1,0-0.2,0.1-0.4,0.1c-0.1,0-0.3,0-0.4,0c-0.4,0-0.7-0.1-0.9-0.3s-0.3-0.5-0.3-1
	c0-0.4,0.1-0.7,0.3-1c0.2-0.2,0.5-0.4,0.9-0.4c0.3,0,0.6,0,0.8,0.1c0,0,0.1,0,0.1,0c0.1-0.2,0.1-0.3,0.2-0.5c0-0.1,0-0.1,0-0.1
	c-0.1,0-0.3-0.1-0.5-0.1c-0.2,0-0.4,0-0.6,0c-0.3,0-0.6,0.1-0.9,0.2c-0.3,0.1-0.5,0.2-0.6,0.4c-0.2,0.2-0.3,0.4-0.4,0.6
	c-0.1,0.2-0.1,0.5-0.1,0.8c0,0.6,0.2,1.1,0.5,1.5c0.3,0.4,0.9,0.5,1.6,0.5c0.4,0,0.8-0.1,1.1-0.2c0,0,0.1,0,0-0.1L112.7,39.2z
	 M116.8,37.1c-0.1-0.2-0.2-0.5-0.3-0.6c-0.2-0.2-0.3-0.3-0.5-0.4c-0.2-0.1-0.5-0.1-0.8-0.1c-0.3,0-0.6,0.1-0.9,0.2
	c-0.2,0.1-0.5,0.3-0.6,0.4c-0.2,0.2-0.3,0.4-0.4,0.6c-0.1,0.2-0.1,0.5-0.1,0.8c0,0.3,0,0.6,0.1,0.8c0.1,0.2,0.2,0.5,0.4,0.6
	c0.2,0.2,0.4,0.3,0.7,0.4c0.3,0.1,0.6,0.1,1,0.1c0.8,0,1.2-0.2,1.3-0.2c0,0,0.1,0,0-0.1l-0.2-0.5c0-0.1-0.1,0-0.1,0
	c-0.2,0.1-0.5,0.2-1.1,0.2c-0.4,0-0.7-0.1-0.9-0.3c-0.2-0.2-0.3-0.4-0.3-0.8l2.7,0c0,0,0.1,0,0.1-0.1
	C116.9,38.1,117,37.6,116.8,37.1 M114.1,37.6c0-0.2,0.1-0.4,0.2-0.6c0.2-0.2,0.4-0.4,0.8-0.4c0.3,0,0.6,0.1,0.7,0.4
	c0.1,0.2,0.2,0.4,0.2,0.6L114.1,37.6z M95.3,37.1c-0.1-0.2-0.2-0.5-0.3-0.6c-0.2-0.2-0.3-0.3-0.5-0.4c-0.2-0.1-0.5-0.1-0.8-0.1
	c-0.3,0-0.6,0.1-0.9,0.2c-0.2,0.1-0.5,0.3-0.6,0.4c-0.2,0.2-0.3,0.4-0.4,0.6c-0.1,0.2-0.1,0.5-0.1,0.8c0,0.3,0,0.6,0.1,0.8
	c0.1,0.2,0.2,0.5,0.4,0.6c0.2,0.2,0.4,0.3,0.7,0.4c0.3,0.1,0.6,0.1,1,0.1c0.8,0,1.2-0.2,1.3-0.2c0,0,0.1,0,0-0.1L95,39.2
	c0-0.1-0.1,0-0.1,0c-0.2,0.1-0.5,0.2-1.1,0.2c-0.4,0-0.7-0.1-0.9-0.3c-0.2-0.2-0.3-0.4-0.3-0.8l2.7,0c0,0,0.1,0,0.1-0.1
	C95.4,38.1,95.4,37.6,95.3,37.1 M92.6,37.6c0-0.2,0.1-0.4,0.2-0.6c0.2-0.2,0.4-0.4,0.8-0.4c0.3,0,0.6,0.1,0.7,0.4
	c0.1,0.2,0.2,0.4,0.2,0.6L92.6,37.6z M87.7,37.5c-0.1,0-0.2,0-0.4,0c-0.2,0-0.4,0-0.7,0.1c-0.2,0.1-0.4,0.1-0.6,0.2
	c-0.2,0.1-0.3,0.2-0.4,0.4s-0.1,0.4-0.1,0.6c0,0.2,0,0.4,0.1,0.6c0.1,0.2,0.2,0.3,0.3,0.4c0.1,0.1,0.3,0.2,0.5,0.2
	c0.2,0,0.4,0.1,0.7,0.1c0.3,0,0.5,0,0.8-0.1c0.3,0,0.6-0.1,0.7-0.1c0.1,0,0.2,0,0.2,0c0.1,0,0.1-0.1,0.1-0.1l0-2.3
	c0-0.5-0.1-0.9-0.4-1.1c-0.3-0.2-0.7-0.3-1.2-0.3c-0.2,0-0.5,0-0.7,0.1c0,0-0.6,0.1-0.8,0.3c0,0-0.1,0,0,0.1l0.2,0.5
	c0,0.1,0.1,0,0.1,0s0,0,0,0c0.5-0.3,1.2-0.3,1.2-0.3c0.3,0,0.5,0.1,0.7,0.2c0.1,0.1,0.2,0.3,0.2,0.6v0.1
	C88,37.5,87.7,37.5,87.7,37.5 M86.7,39.2c-0.1-0.1-0.1-0.1-0.2-0.1c-0.1-0.1-0.1-0.2-0.1-0.3c0-0.2,0.1-0.4,0.2-0.5
	c0,0,0.2-0.2,0.8-0.2c0.4,0,0.7,0.1,0.7,0.1v1.1c0,0-0.3,0.1-0.7,0.1C86.9,39.4,86.7,39.2,86.7,39.2 M109.6,36.2
	C109.6,36.1,109.6,36.1,109.6,36.2c-0.1-0.1-0.3-0.2-0.5-0.2c-0.3,0-0.5,0-0.7,0.1c-0.2,0.1-0.3,0.2-0.5,0.3l0-0.3
	c0,0,0-0.1-0.1-0.1h-0.7c0,0-0.1,0-0.1,0.1v3.8c0,0,0,0.1,0.1,0.1h0.7c0,0,0.1,0,0.1-0.1V38c0-0.3,0-0.5,0.1-0.7
	c0.1-0.2,0.1-0.3,0.2-0.4c0.1-0.1,0.2-0.2,0.3-0.2c0.1,0,0.3,0,0.4,0c0.1,0,0.3,0,0.3,0c0.1,0,0.1,0,0.1-0.1
	C109.4,36.6,109.6,36.2,109.6,36.2"/>
<path class="st6" d="M103,34.1c-0.1,0-0.2,0-0.3-0.1c-0.1,0-0.2,0-0.4,0c-0.5,0-0.9,0.1-1.1,0.4c-0.3,0.3-0.4,0.7-0.5,1.2l-0.1,0.4
	h-0.6c0,0-0.1,0-0.1,0.1l-0.1,0.6c0,0.1,0,0.1,0.1,0.1h0.6l-0.6,3.3c0,0.3-0.1,0.5-0.2,0.7c-0.1,0.2-0.1,0.3-0.2,0.4
	c-0.1,0.1-0.1,0.2-0.2,0.2c-0.1,0-0.2,0-0.3,0c-0.1,0-0.2,0-0.2,0c-0.1,0-0.1,0-0.1,0c0,0-0.1,0-0.1,0c0,0.1-0.2,0.5-0.2,0.5
	c0,0.1,0,0.1,0,0.1c0.1,0,0.1,0,0.2,0.1c0.1,0,0.3,0,0.4,0c0.2,0,0.5,0,0.7-0.1c0.2-0.1,0.3-0.2,0.5-0.3c0.2-0.2,0.3-0.4,0.3-0.6
	c0.1-0.2,0.2-0.5,0.2-0.9l0.6-3.4h0.9c0,0,0.1,0,0.1-0.1l0.1-0.6c0-0.1,0-0.1-0.1-0.1h-0.9c0,0,0.1-0.5,0.2-0.8
	c0-0.1,0.1-0.2,0.2-0.3c0.1-0.1,0.1-0.1,0.2-0.1c0.1,0,0.2,0,0.3,0c0.1,0,0.2,0,0.2,0c0.1,0,0.1,0,0.1,0c0.1,0,0.1,0,0.1,0L103,34.1
	C103.1,34.1,103,34.1,103,34.1 M90.7,39.9C90.7,40,90.7,40,90.7,39.9L89.9,40c0,0-0.1,0-0.1-0.1v-5.8c0,0,0-0.1,0.1-0.1h0.7
	c0,0,0.1,0,0.1,0.1V39.9z"/>
</svg>
