<?xml version="1.0" encoding="utf-8"?>
<!-- Generator: Adobe Illustrator 23.1.1, SVG Export Plug-In . SVG Version: 6.00 Build 0)  -->
<svg version="1.1" id="Layer_1" xmlns="http://www.w3.org/2000/svg" xmlns:xlink="http://www.w3.org/1999/xlink" x="0px" y="0px"
	 viewBox="0 0 144 72" style="enable-background:new 0 0 144 72;" xml:space="preserve">
<style type="text/css">
	.st0{fill:#A3A3A3;}
	.st1{fill:#43A047;}
	.st2{fill:#C8E6C9;}
	.st3{fill:#2E7D32;}
	.st4{fill:#E8F5E9;}
	.st5{fill:none;}
	.st6{fill:#2D2B2B;}
</style>
<g>
	<path class="st0" d="M72.9,30.9c-0.5,0-0.8,0.3-0.9,0.8c0,0.3,0.1,0.6,0.4,0.7l4.8,3.5l-4.8,3.5c-0.4,0.3-0.5,0.8-0.2,1.2
		c0.3,0.4,0.8,0.5,1.1,0.2c0,0,0,0,0,0l5.8-4.2c0.4-0.3,0.5-0.8,0.2-1.2c-0.1-0.1-0.1-0.1-0.2-0.2l-5.8-4.2
		C73.2,31,73,30.9,72.9,30.9z"/>
	<path class="st1" d="M61,56.8H35c-1.7,0-3-1.3-3-3v-36c0-1.7,1.3-3,3-3h19l10,10v29C64,55.4,62.7,56.8,61,56.8z"/>
	<path class="st2" d="M64,24.8H54v-10L64,24.8z"/>
	<path class="st3" d="M54,24.8l10,10v-10H54z"/>
	<path class="st4" d="M55,34.8H41h-2v2v2v2v2v2v2v2h18v-2v-2v-2v-2v-2v-2v-2H55z M41,36.8h4v2h-4V36.8z M41,40.8h4v2h-4V40.8z
		 M41,44.8h4v2h-4V44.8z M55,46.8h-8v-2h8V46.8z M55,42.8h-8v-2h8V42.8z M55,38.8h-8v-2h8V38.8z"/>
	<g>
		<polygon class="st5" points="97.4,52.5 101.1,54.7 101.1,43.9 97.4,43.9 		"/>
		<path class="st6" d="M110.9,31h-5v1.8h4.1v0.4l-8.3,8.9H97h-0.1l-8.3-8.9v-0.4H107V31H87.6h-0.1c-0.4,0.1-0.8,0.5-0.8,0.9v1.7
			c0,0.3,0.1,0.5,0.3,0.6l8.7,9.2V53c0,0.3,0.1,0.6,0.5,0.8l5.5,3.3c0.1,0.1,0.3,0.1,0.5,0.1c0.3,0,0.4,0,0.5-0.1
			c0.3-0.1,0.4-0.5,0.4-0.8V43.4l8.7-9.1l0.1-0.1c0.1-0.1,0.1-0.4,0.1-0.5v-1.7C111.8,31.4,111.5,31,110.9,31z M101.1,54.7l-3.7-2.2
			l0,0v-8.6h3.7V54.7z"/>
		<polygon class="st6" points="96.9,42.1 97,42.1 88.6,33.2 		"/>
		<path class="st6" d="M97.4,52.5l3.7,2.2L97.4,52.5z"/>
	</g>
	<path class="st6" d="M94.9,14.8c-3.4,0-6.2,2.7-6.2,6.2s2.7,6.2,6.2,6.2c2.4,0,4.5-1.5,5.5-3.6h2.4v2.6h5.3v-2.6h1.7v-5.3h-0.9
		h-8.6C99.5,16.3,97.4,14.8,94.9,14.8z M94.9,16.6c2.1,0,3.6,1.3,4.2,3l0.2,0.6h8.8v1.7h-1.8v2.6h-1.7v-2.6h-5.3l-0.2,0.6
		c-0.7,1.7-2.3,3-4.2,3c-2.4,0-4.4-1.9-4.4-4.4C90.5,18.6,92.5,16.6,94.9,16.6z M94.9,18.3c-1.5,0-2.6,1.1-2.6,2.6s1.1,2.6,2.6,2.6
		s2.6-1.1,2.6-2.6S96.4,18.3,94.9,18.3z M94.9,20.1c0.5,0,0.9,0.3,0.9,0.9c0,0.5-0.3,0.9-0.9,0.9S94,21.5,94,21
		C94.1,20.5,94.4,20.1,94.9,20.1z"/>
</g>
</svg>
