<?xml version="1.0" encoding="utf-8"?>
<!-- Generator: Adobe Illustrator 23.1.1, SVG Export Plug-In . SVG Version: 6.00 Build 0)  -->
<svg version="1.1" id="Layer_1" xmlns="http://www.w3.org/2000/svg" xmlns:xlink="http://www.w3.org/1999/xlink" x="0px" y="0px"
	 viewBox="0 0 144 72" style="enable-background:new 0 0 144 72;" xml:space="preserve">
<style type="text/css">
	.st0{fill:#A3A3A3;}
	.st1{fill:#43A047;}
	.st2{fill:#C8E6C9;}
	.st3{fill:#2E7D32;}
	.st4{fill:#E8F5E9;}
	.st5{fill:#2684FF;}
	.st6{fill:#1D78F2;}
	.st7{fill:#126AE5;}
	.st8{fill:#0B60DA;}
	.st9{fill:#0154CE;}
	.st10{fill:#2482FD;}
</style>
<g>
	<path class="st0" d="M66,31.9c-0.5,0-0.8,0.3-0.9,0.8c0,0.3,0.1,0.6,0.4,0.7l4.8,3.5l-4.8,3.5c-0.4,0.3-0.5,0.8-0.2,1.2
		s0.8,0.5,1.1,0.2c0,0,0,0,0,0l5.8-4.2c0.4-0.3,0.5-0.8,0.2-1.2c-0.1-0.1-0.1-0.1-0.2-0.2L66.5,32C66.4,31.9,66.2,31.9,66,31.9z"/>
	<path class="st1" d="M52.7,58h-26c-1.7,0-3-1.3-3-3V19c0-1.7,1.3-3,3-3h19l10,10v29C55.7,56.6,54.4,58,52.7,58z"/>
	<path class="st2" d="M55.7,26h-10V16L55.7,26z"/>
	<path class="st3" d="M45.7,26l10,10V26H45.7z"/>
	<path class="st4" d="M46.7,36h-14h-2v2v2v2v2v2v2v2h18v-2v-2v-2v-2v-2v-2v-2H46.7z M32.7,38h4v2h-4V38z M32.7,42h4v2h-4V42z
		 M32.7,46h4v2h-4V46z M46.7,48h-8v-2h8V48z M46.7,44h-8v-2h8V44z M46.7,40h-8v-2h8V40z"/>
	<g>
		<path class="st5" d="M99.9,44.6l-6.9-6.9l6.9-6.9V16.4L80.1,36.2c-0.8,0.8-0.8,2.1,0,2.9l19.8,19.8c0,0,3-2,3-7.1
			C102.8,49.1,101.7,46.6,99.9,44.6z"/>
		<path class="st6" d="M94,36.3l0.1,0.1l5.7-5.7V16.4L89.2,27.1C90,30.6,91.6,33.7,94,36.3z"/>
		<path class="st7" d="M95.5,34.9l0.1,0.1l4.3-4.3V16.4l-9,9C91.5,28.9,93.1,32.2,95.5,34.9z"/>
		<path class="st8" d="M99.9,30.7V16.4l-7.1,7.1c0.2,3.8,1.7,7.3,4.2,10.1L99.9,30.7z"/>
		<path class="st9" d="M94.8,23.5c0,4.8,3.4,8.5,3.6,8.7l1.4-1.4V16.4L95,21.3C94.9,22,94.8,22.7,94.8,23.5z"/>
		<path class="st10" d="M99.9,30.7l6.9,6.9l-6.9,6.9v14.3l19.8-19.8c0.8-0.8,0.8-2.1,0-2.9L99.9,16.4c0,0-3,2-3,7.1
			C97,26.2,98.1,28.7,99.9,30.7z"/>
		<path class="st6" d="M105.7,39l-0.1-0.1l-5.7,5.7v14.3l10.7-10.7C109.8,44.8,108.1,41.6,105.7,39z"/>
		<path class="st7" d="M104.3,40.4l-0.1-0.1l-4.3,4.3v14.3l9-9C108.3,46.4,106.7,43.1,104.3,40.4z"/>
		<path class="st8" d="M99.9,44.6v14.3l7.1-7.1c-0.2-3.8-1.7-7.3-4.2-10.1L99.9,44.6z"/>
		<path class="st9" d="M104.9,51.8c0-4.8-3.4-8.5-3.6-8.7l-1.4,1.4v14.3l4.9-4.9C104.9,53.3,104.9,52.6,104.9,51.8z"/>
		<path class="st5" d="M99.9,44.6l-6.9-6.9H81.7v3l18.2,18.2c0,0,3-2,3-7.1C102.8,49.1,101.7,46.6,99.9,44.6z"/>
	</g>
</g>
</svg>
