<?xml version="1.0" encoding="utf-8"?>
<!-- Generator: Adobe Illustrator 23.1.1, SVG Export Plug-In . SVG Version: 6.00 Build 0)  -->
<svg version="1.1" id="Layer_1" xmlns="http://www.w3.org/2000/svg" xmlns:xlink="http://www.w3.org/1999/xlink" x="0px" y="0px"
	 viewBox="0 0 144 72" style="enable-background:new 0 0 144 72;" xml:space="preserve">
<style type="text/css">
	.st0{fill:#0288D1;}
	.st1{fill:#FFFFFF;}
	.st2{fill:#A3A3A3;}
	.st3{font-family:'Quicksand-Regular';}
	.st4{font-size:6px;}
</style>
<g>
	<path class="st0" d="M126.5,48.3c0,3.4-2.7,6.1-5.9,6.1H89.8c-3.3,0-5.9-2.7-5.9-6.1V16.6c0-3.4,2.7-6.1,5.9-6.1h30.8
		c3.3,0,5.9,2.7,5.9,6.1V48.3z"/>
	<path class="st1" d="M91,26.4h5.9v20.7H91C91,47.1,91,26.4,91,26.4z M93.9,23.9L93.9,23.9c-1.8,0-2.9-1.4-2.9-3c0-1.7,1.2-3,3-3
		c1.8,0,2.9,1.3,2.9,3C96.9,22.6,95.8,23.9,93.9,23.9z M119.4,47.1h-5.9V36c0-2.7-1.5-4.5-3.8-4.5c-1.8,0-2.7,1.2-3.2,2.4
		c-0.2,0.4-0.1,1.6-0.1,2.2v11h-5.9V26.4h5.9v3.2c0.9-1.4,2.2-3.2,5.6-3.2c4.2,0,7.4,2.7,7.4,8.9V47.1L119.4,47.1z"/>
</g>
<path class="st2" d="M70.2,31.9c-0.5,0-0.8,0.3-0.9,0.8c0,0.3,0.1,0.6,0.4,0.7l4.8,3.5l-4.8,3.6c-0.4,0.3-0.5,0.8-0.2,1.2
	s0.8,0.5,1.1,0.2l0,0l5.8-4.2c0.4-0.3,0.5-0.8,0.2-1.2c-0.1-0.1-0.1-0.1-0.2-0.2L70.6,32C70.5,31.9,70.4,31.9,70.2,31.9z"/>
<text transform="matrix(1 0 0 1 83.8859 61.5223)" class="st3 st4">Sales Navigator </text>
<path d="M21.6,14.5c-2.7,0-5,2.3-5,5v24c0,2.7,2.3,5,5,5h4.1c0.1,1.2,0.1,2.3-0.2,3.2c-0.4,1.1-1.1,2.1-2.4,2.9
	c-0.5,0.3-0.6,0.9-0.3,1.4c0.2,0.3,0.5,0.5,0.9,0.5c4.2,0,9.1-2.2,11.6-8h22.4c2.7,0,5-2.3,5-5v-24c0-2.7-2.3-5-5-5H21.6z
	 M21.6,16.5h36c1.7,0,3,1.3,3,3v24c0,1.7-1.3,3-3,3h-23c-0.4,0-0.8,0.3-0.9,0.7c-1.6,4.2-4.3,6.3-7.2,7c0.4-0.6,0.8-1.1,1-1.8
	c0.5-1.6,0.5-3.3,0.2-5.1c-0.1-0.5-0.5-0.8-1-0.8h-5c-1.7,0-3-1.3-3-3v-24C18.6,17.9,19.9,16.5,21.6,16.5z M29.6,29.5
	c-1.1,0-2,0.9-2,2c0,1.1,0.9,2,2,2c1.1,0,2-0.9,2-2C31.6,30.4,30.7,29.5,29.6,29.5z M39.6,29.5c-1.1,0-2,0.9-2,2c0,1.1,0.9,2,2,2
	c1.1,0,2-0.9,2-2C41.6,30.4,40.7,29.5,39.6,29.5z M49.6,29.5c-1.1,0-2,0.9-2,2c0,1.1,0.9,2,2,2s2-0.9,2-2
	C51.6,30.4,50.7,29.5,49.6,29.5z"/>
</svg>
