<?xml version="1.0" encoding="utf-8"?>
<!-- Generator: Adobe Illustrator 25.1.0, SVG Export Plug-In . SVG Version: 6.00 Build 0)  -->
<svg version="1.1" id="Layer_1" xmlns="http://www.w3.org/2000/svg" xmlns:xlink="http://www.w3.org/1999/xlink" x="0px" y="0px"
	 viewBox="0 0 500 500" style="enable-background:new 0 0 500 500;" xml:space="preserve">
<style type="text/css">
	.st0{fill:#75AB9D;}
	.st1{fill:#FFFFFF;}
</style>
<path class="st0" d="M0,120C0,53.7,53.7,0,120,0h259.7C446,0,499.8,53.7,499.8,120v380H120C53.7,500,0,446.3,0,380V120z"/>
<path class="st1" d="M230,62c-41.2,0-77.7,26.5-90.5,65.6c-26.5,5.4-49.3,22-62.7,45.4c-20.6,35.6-15.9,80.4,11.7,111
	c-8.5,25.6-5.6,53.6,8,76.8c20.5,35.8,61.8,54.1,102.2,45.6c17.9,20.2,43.6,31.7,70.6,31.6c41.2,0,77.7-26.5,90.5-65.6
	c26.5-5.5,49.3-22,62.6-45.4c20.8-35.6,16-80.4-11.6-111v-0.1c8.5-25.6,5.6-53.6-8-76.9c-20.5-35.6-61.8-54-102.1-45.4
	C282.7,73.3,257,61.9,230,62L230,62z M230,86.4l-0.1,0.1c16.6,0,32.5,5.7,45.2,16.3c-0.5,0.2-1.5,0.9-2.3,1.3l-74.9,43.2
	c-3.8,2.2-6.1,6.2-6.1,10.7v101.3l-32.2-18.6v-83.7C159.5,118,191,86.5,230,86.4L230,86.4z M320.3,115.9c25.3,0,48.6,13.4,61.3,35.3
	c8.1,14.3,11.2,30.9,8.4,47.1c-0.5-0.4-1.5-0.9-2.2-1.3l-74.9-43.3c-3.8-2.2-8.5-2.2-12.3,0l-87.8,50.7v-37.2l72.5-41.9
	C295.8,119.2,307.9,115.9,320.3,115.9z M134.9,154.4v89c0,4.4,2.3,8.4,6.1,10.7l87.7,50.5l-32.4,18.7L124,281.5
	c-33.7-19.5-45.2-62.6-25.7-96.2C106.5,171,119.4,160.1,134.9,154.4z M302.9,176.4l72.5,41.7c33.8,19.5,45.2,62.5,25.7,96.2l0.1,0.1
	c-8.3,14.3-21.3,25.2-36.7,30.8v-89c0-4.4-2.3-8.5-6.1-10.7L270.7,195L302.9,176.4L302.9,176.4z M249.6,207.1l37,21.4v42.6l-37,21.4
	l-37-21.4v-42.6L249.6,207.1z M307.7,240.7l32.2,18.6v83.6c0,38.9-31.6,70.5-70.5,70.5v-0.1c-16.4,0-32.5-5.7-45.1-16.3
	c0.5-0.2,1.7-0.9,2.3-1.3l74.9-43.1c3.8-2.2,6.2-6.2,6.1-10.7L307.7,240.7L307.7,240.7z M286.7,295.4v37.2l-72.5,41.7
	c-33.8,19.4-76.8,7.9-96.3-25.7h0.1c-8.3-14.1-11.2-30.9-8.4-47.1c0.5,0.4,1.5,0.9,2.2,1.3l74.9,43.3c3.8,2.2,8.5,2.2,12.3,0
	L286.7,295.4L286.7,295.4z"/>
</svg>
