<?xml version="1.0" encoding="utf-8"?>
<!-- Generator: Adobe Illustrator 23.1.1, SVG Export Plug-In . SVG Version: 6.00 Build 0)  -->
<svg version="1.1" id="Layer_1" xmlns="http://www.w3.org/2000/svg" xmlns:xlink="http://www.w3.org/1999/xlink" x="0px" y="0px"
	 viewBox="0 0 72 72" style="enable-background:new 0 0 72 72;" xml:space="preserve">
<style type="text/css">
	.st0{fill:#2D2B2B;}
</style>
<g>
	<g>
		<path class="st0" d="M13.3,14.9c-1.6,0-2.9,1.3-2.9,2.9V27c0,0.1,0,0.1,0,0.2V56c0,0.6,0.5,1,1,1h41.2c0.4,0,0.7-0.2,0.9-0.5
			c0.2-0.3,0.2-0.7,0-1C53.2,55.2,53,55,52.6,55H12.5V28.3h47.3V55H41.2c-0.4,0-0.7,0.2-0.9,0.5c-0.2,0.3-0.2,0.7,0,1
			c0.2,0.3,0.5,0.5,0.9,0.5h19.5c0.6,0,1-0.5,1-1V27.3c0-0.1,0-0.1,0-0.2v-9.2c0-1.6-1.3-2.9-2.9-2.9C58.8,14.9,13.3,14.9,13.3,14.9
			z M13.3,17h45.5c0.5,0,0.9,0.4,0.9,0.9v8.4H12.5V18C12.5,17.5,12.8,17,13.3,17z M17.1,19c-1.4,0-2.6,1.1-2.6,2.6s1.1,2.6,2.6,2.6
			s2.6-1.1,2.6-2.6C19.7,20.2,18.5,19,17.1,19z M23.3,19c-1.4,0-2.6,1.1-2.6,2.6s1.1,2.6,2.6,2.6s2.6-1.1,2.6-2.6
			C25.8,20.2,24.7,19,23.3,19z M27.9,19v5.1h29.8V19H27.9z M29.9,21.2h25.7v1H29.9V21.2z"/>
	</g>
	<path class="st0" d="M28.6,32.9c-0.4,0-0.7,0.3-0.7,0.8v3.1c0,0.4,0.3,0.8,0.7,0.8h3c0.4,0,0.7-0.3,0.7-0.8v-3.1
		c0-0.4-0.3-0.8-0.7-0.8H28.6z M34.5,34.4c-0.4,0-0.7,0.3-0.8,0.8s0.3,0.8,0.7,0.8c0,0,0,0,0,0h8.9c0.4,0,0.7-0.3,0.8-0.8
		s-0.3-0.8-0.7-0.8c0,0,0,0,0,0H34.5z M28.6,39.1c-0.4,0-0.7,0.3-0.7,0.8V43c0,0.4,0.3,0.8,0.7,0.8h3c0.4,0,0.7-0.3,0.7-0.8v-3.1
		c0-0.4-0.3-0.8-0.7-0.8H28.6z M29.1,40.5H31v1.9h-1.9V40.5z M34.5,40.7c-0.4,0-0.7,0.3-0.8,0.8s0.3,0.8,0.7,0.8c0,0,0,0,0,0h8.9
		c0.4,0,0.7-0.3,0.8-0.8s-0.3-0.8-0.7-0.8c0,0,0,0,0,0H34.5z M28.6,45.4c-0.4,0-0.7,0.3-0.7,0.8v3.1c0,0.4,0.3,0.8,0.7,0.8h3
		c0.4,0,0.7-0.3,0.7-0.8v-3.1c0-0.4-0.3-0.8-0.7-0.8H28.6z M34.5,46.9c-0.4,0-0.7,0.3-0.8,0.8c0,0.4,0.3,0.8,0.7,0.8c0,0,0,0,0,0
		h8.9c0.4,0,0.7-0.3,0.8-0.8s-0.3-0.8-0.7-0.8c0,0,0,0,0,0H34.5z"/>
</g>
</svg>
