<svg version="1.0" xmlns="http://www.w3.org/2000/svg"
 width="156.000000pt" height="144.000000pt" viewBox="0 0 156.000000 144.000000"
 preserveAspectRatio="xMidYMid meet">

<g transform="translate(0.000000,144.000000) scale(0.100000,-0.100000)"
fill="#4a5968" stroke="none">
<path d="M435 1430 c-156 -12 -229 -38 -306 -107 -53 -48 -85 -104 -106 -188
-25 -104 -25 -727 0 -830 41 -164 146 -256 327 -287 103 -18 779 -17 869 1
183 36 288 138 322 311 17 90 17 691 0 780 -34 174 -143 279 -321 310 -80 14
-648 21 -785 10z m350 -154 c75 -32 96 -128 41 -185 -26 -27 -32 -62 -20 -106
3 -13 34 -33 90 -59 91 -42 119 -70 111 -111 -4 -23 6 -34 95 -97 54 -38 103
-78 108 -87 11 -22 -13 -278 -28 -293 -5 -5 -18 -8 -28 -6 -21 4 -32 53 -33
150 l-1 57 -82 59 -83 60 -17 -32 c-25 -48 -36 -54 -127 -65 -91 -12 -111 -7
-147 36 l-21 24 -49 -58 c-27 -32 -55 -66 -63 -75 -11 -15 -10 -33 5 -114 18
-94 18 -97 -1 -110 -16 -12 -21 -12 -32 -1 -16 15 -103 244 -103 269 0 9 35
58 78 109 76 90 78 93 65 120 -20 41 -4 68 81 133 72 55 76 60 76 98 0 29 -6
45 -26 63 -15 14 -31 25 -35 25 -15 0 -39 58 -39 93 0 41 31 84 74 103 40 17
69 17 111 0z"/>
<path d="M696 1194 c-32 -32 -8 -68 41 -62 23 2 29 9 31 32 5 44 -40 63 -72
30z"/>
<path d="M740 857 c-37 -19 -55 -62 -40 -96 33 -81 160 -59 160 28 0 61 -64
98 -120 68z"/>
</g>
</svg>
