<?xml version="1.0" encoding="utf-8"?>
<!-- Generator: Adobe Illustrator 25.1.0, SVG Export Plug-In . SVG Version: 6.00 Build 0)  -->
<svg version="1.1" id="Layer_1" xmlns="http://www.w3.org/2000/svg" xmlns:xlink="http://www.w3.org/1999/xlink" x="0px" y="0px"
	 viewBox="0 0 262.7 254.5" style="enable-background:new 0 0 262.7 254.5;" xml:space="preserve">
<style type="text/css">
	.st0{fill:#2675BB;}
	.st1{fill:#D1D9F0;}
	.st2{fill:#C4C4D7;}
	.st3{fill:#1A3D6D;}
</style>
<g id="_x38_1MzaC.tif">
	<g>
		<path class="st0" d="M262.7,0c0,44-0.1,88.1,0.1,132.1c0,4.5-1.2,5.5-5.5,5.4c-17.6-0.3-35.1-0.2-52.7,0c-4.1,0.1-5.7-0.7-5.6-5.3
			c0.2-31.1,0.2-62.3,0-93.4c0-3.2,0.9-5,3.8-6.5c17.9-9.6,35.8-19.4,53.6-29.2c1.5-0.8,3.5-1,4.2-3C261.4,0,262,0,262.7,0z"/>
		<path class="st1" d="M-0.2,137.3c-0.3,0-0.7,0-1,0c0-27.9,0-55.7,0-83.6c0.8,0.1,1.5,0.2,2,1c0.5,1.9,0.6,3.9,0.6,5.9
			c0,23,0,46,0,69.1C1.3,132.3,1.7,135-0.2,137.3z"/>
		<path class="st2" d="M-1.2,171.1c0.4,0,0.7,0.1,1.1,0.1c1.7,1.9,1.5,4.3,1.5,6.6c0,23.3,0,46.7,0,70c0,2.3,0.3,4.7-1.3,6.7
			c-0.4,0.1-0.8,0.1-1.2,0.2C-1.2,226.8-1.2,199-1.2,171.1z"/>
		<path class="st3" d="M162.9,213.4c0,12.4-0.1,24.9,0.1,37.3c0,3.1-0.8,3.9-3.9,3.9c-18.7-0.1-37.5-0.1-56.2,0
			c-2.9,0-3.6-0.9-3.6-3.7c0.1-25.5,0.1-51,0-76.6c0-2.6,0.7-3.3,3.3-3.3c18.9,0.1,37.8,0.1,56.7,0c3.4,0,3.7,1.4,3.6,4.1
			C162.9,187.9,162.9,200.6,162.9,213.4z"/>
		<path class="st3" d="M262.7,212.9c0,12.6-0.1,25.2,0.1,37.8c0,3-0.7,3.9-3.8,3.9c-18.6-0.2-37.2-0.2-55.7,0
			c-3.3,0-4.2-0.9-4.2-4.2c0.1-25.2,0.1-50.4,0-75.6c0-3.2,0.9-3.8,3.9-3.8c18.7,0.1,37.5,0.1,56.2,0c2.8,0,3.6,0.8,3.6,3.6
			C262.6,187.4,262.7,200.2,262.7,212.9z"/>
		<path class="st3" d="M0,254.5c0-27.8-0.1-55.5-0.1-83.3c19.9,0,39.8,0,59.7-0.1c2.9,0,3.6,0.9,3.6,3.7c-0.1,25.3-0.1,50.7,0,76
			c0,3.7-1.6,3.9-4.5,3.9C39.1,254.5,19.6,254.5,0,254.5z"/>
		<path class="st0" d="M162.9,54.1c0,12.4,0,23.8,0,35.2c0,14.6-0.1,29.1,0.1,43.7c0,3.5-0.9,4.5-4.4,4.5c-18.4-0.2-36.8-0.2-55.2,0
			c-3.3,0-4.1-1-4.1-4.2c0.2-13.7,0.1-27.5,0.1-41.2c0-1.6-0.2-3.2,1.7-4.3C121.3,76.8,141.7,65.7,162.9,54.1z"/>
		<path class="st0" d="M-0.2,137.3c0-26,0-52,0-78c0-1.5-0.8-3.3,1-4.6C19.5,65,38.1,75.4,57,85.3c4.8,2.5,6.4,5.4,6.3,10.7
			c-0.4,12.4-0.2,24.8-0.1,37.2c0,2.7-0.3,4.2-3.7,4.2C39.6,137.3,19.7,137.3-0.2,137.3z"/>
	</g>
</g>
</svg>
