<svg version="1.0" xmlns="http://www.w3.org/2000/svg"
 width="300.000000pt" height="300.000000pt" viewBox="0 0 300.000000 300.000000"
 preserveAspectRatio="xMidYMid meet">

<g transform="translate(0.000000,300.000000) scale(0.100000,-0.100000)"
fill="#FF4F00" stroke="none">
<path d="M297 2990 c-113 -20 -199 -87 -254 -198 l-38 -76 -3 -1170 c-2 -729
1 -1195 7 -1234 20 -127 82 -212 199 -269 l76 -38 1170 -3 c729 -2 1195 1
1234 7 127 20 212 82 269 199 l38 76 3 1170 c2 729 -1 1195 -7 1234 -20 127
-82 212 -199 269 l-76 38 -1185 1 c-653 1 -1207 -2 -1234 -6z m1597 -1871 c30
-14 51 -60 42 -93 -18 -72 -118 -90 -151 -26 -26 51 -16 91 30 118 26 15 48
15 79 1z m-237 -201 c91 -55 119 -293 48 -414 -67 -115 -238 -108 -291 11 -12
27 -13 18 -14 -92 l0 -123 -75 0 -75 0 0 315 0 315 64 0 c69 0 76 -6 76 -72 0
-38 13 -35 33 7 37 78 149 104 234 53z m659 11 c38 -12 88 -63 108 -111 10
-22 16 -67 16 -108 l0 -70 -165 0 c-91 0 -165 -2 -165 -5 0 -22 34 -64 60 -75
56 -23 108 -5 139 48 6 11 19 10 69 -4 70 -19 72 -26 27 -95 -50 -77 -188
-108 -297 -66 -154 59 -198 302 -79 430 62 68 175 90 287 56z m-1225 0 c96
-32 119 -97 119 -326 l0 -163 -64 0 c-68 0 -75 6 -76 68 0 30 -12 28 -32 -8
-26 -46 -74 -70 -138 -70 -103 0 -158 62 -146 164 12 101 66 135 214 136 86 0
92 1 92 20 0 28 -44 70 -73 70 -32 0 -77 -36 -77 -62 0 -16 -5 -19 -27 -14
-16 3 -47 8 -70 11 -47 7 -52 19 -32 72 27 73 99 112 205 113 39 0 86 -5 105
-11z m-361 -58 l0 -60 -134 -123 -133 -123 133 -3 134 -3 0 -59 0 -60 -225 0
-225 0 0 63 0 64 125 114 124 114 -122 5 -122 5 -3 49 c-5 81 -19 76 228 76
l220 0 0 -59z m1200 -186 l0 -245 -75 0 -75 0 0 245 0 245 75 0 75 0 0 -245z
m686 183 c6 -57 8 -60 16 -33 16 56 63 95 115 95 l33 0 0 -75 0 -75 -55 0
c-90 0 -95 -9 -95 -190 l0 -150 -75 0 -75 0 0 245 0 245 64 0 64 0 8 -62z"/>
<path d="M1447 799 c-61 -36 -59 -196 3 -229 36 -19 100 -9 122 20 39 53 35
154 -7 196 -26 26 -85 32 -118 13z"/>
<path d="M2148 800 c-14 -11 -28 -29 -31 -40 -5 -19 -1 -20 93 -20 94 0 98 1
93 20 -15 55 -106 79 -155 40z"/>
<path d="M907 623 c-13 -13 -7 -61 9 -67 38 -15 95 -6 119 19 44 43 34 55 -48
55 -41 0 -77 -3 -80 -7z"/>
</g>
</svg>
