<?xml version="1.0" encoding="utf-8"?>
<!-- Generator: Adobe Illustrator 23.1.1, SVG Export Plug-In . SVG Version: 6.00 Build 0)  -->
<svg version="1.1" id="Layer_1" xmlns="http://www.w3.org/2000/svg" xmlns:xlink="http://www.w3.org/1999/xlink" x="0px" y="0px"
	 viewBox="0 0 144 72" style="enable-background:new 0 0 144 72;" xml:space="preserve">
<style type="text/css">
	.st0{fill:#A3A3A3;}
	.st1{fill:url(#SVGID_1_);}
	.st2{fill:#FFFFFF;}
	.st3{fill:#E52020;}
</style>
<path class="st0" d="M68.6,31.4c-0.5,0-0.8,0.3-0.9,0.8c0,0.3,0.1,0.6,0.4,0.7l4.8,3.5l-4.8,3.5c-0.4,0.3-0.5,0.8-0.2,1.2
	s0.8,0.5,1.1,0.2l0,0l5.8-4.2c0.4-0.3,0.5-0.8,0.2-1.2c-0.1-0.1-0.1-0.1-0.2-0.2l-5.7-4.2C69,31.4,68.8,31.4,68.6,31.4z"/>
<g>
	
		<radialGradient id="SVGID_1_" cx="-947.6124" cy="2160.6658" r="69.648" gradientTransform="matrix(0.6435 -0.7654 0.5056 0.4251 -461.85 -1575.506)" gradientUnits="userSpaceOnUse">
		<stop  offset="7.300000e-02" style="stop-color:#EACC7B"/>
		<stop  offset="0.184" style="stop-color:#ECAA59"/>
		<stop  offset="0.307" style="stop-color:#EF802E"/>
		<stop  offset="0.358" style="stop-color:#EF6D3A"/>
		<stop  offset="0.46" style="stop-color:#F04B50"/>
		<stop  offset="0.516" style="stop-color:#F03E58"/>
		<stop  offset="0.689" style="stop-color:#DB359E"/>
		<stop  offset="0.724" style="stop-color:#CE37A4"/>
		<stop  offset="0.789" style="stop-color:#AC3CB4"/>
		<stop  offset="0.877" style="stop-color:#7544CF"/>
		<stop  offset="0.98" style="stop-color:#2B4FF2"/>
	</radialGradient>
	<path class="st1" d="M47.3,59h-26c-5.5,0-10-4.5-10-10V23c0-5.5,4.5-10,10-10h26c5.5,0,10,4.5,10,10v26C57.3,54.5,52.8,59,47.3,59z
		"/>
	<path class="st2" d="M34.3,22c4.6,0,5.1,0,6.9,0.1c1.7,0.1,2.6,0.4,3.2,0.6c0.8,0.3,1.4,0.7,2,1.3c0.6,0.6,1,1.2,1.3,2
		c0.2,0.6,0.5,1.5,0.6,3.2c0,1.7,0,2.2,0,6.8s0,5.1-0.1,6.9c-0.1,1.7-0.4,2.6-0.6,3.2c-0.3,0.8-0.7,1.4-1.3,2s-1.2,1-2,1.3
		c-0.6,0.2-1.5,0.5-3.2,0.6c-1.7,0-2.2,0-6.8,0s-5.1,0-6.9-0.1c-1.7-0.1-2.6-0.4-3.2-0.6c-0.8-0.3-1.4-0.7-2-1.3s-1-1.2-1.3-2
		c-0.2-0.6-0.5-1.5-0.6-3.2c0-1.7,0-2.2,0-6.8s0-5.1,0.1-6.9c0.1-1.7,0.4-2.6,0.6-3.2c0.3-0.8,0.7-1.4,1.3-2c0.6-0.6,1.2-1,2-1.3
		c0.6-0.2,1.5-0.5,3.2-0.6C29.2,22,29.7,22,34.3,22 M34.3,19c-4.6,0-5.2,0-7,0.1s-3,0.4-4.1,0.8s-2.1,1-3,2s-1.5,1.9-2,3
		c-0.4,1.1-0.7,2.3-0.8,4.1c-0.1,1.8-0.1,2.4-0.1,7s0,5.2,0.1,7s0.4,3,0.8,4.1s1,2.1,2,3c0.9,0.9,1.9,1.5,3,2
		c1.1,0.4,2.3,0.7,4.1,0.8c1.8,0.1,2.4,0.1,7,0.1s5.2,0,7-0.1s3-0.4,4.1-0.8c1.1-0.4,2.1-1,3-2c0.9-0.9,1.5-1.9,2-3
		c0.4-1.1,0.7-2.3,0.8-4.1s0.1-2.4,0.1-7s0-5.2-0.1-7s-0.4-3-0.8-4.1c-0.4-1.1-1-2.1-2-3s-1.9-1.5-3-2c-1.1-0.4-2.3-0.7-4.1-0.8
		C39.5,19,38.9,19,34.3,19L34.3,19z"/>
	<path class="st2" d="M34.3,27c-5,0-9,4-9,9s4,9,9,9s9-4,9-9S39.3,27,34.3,27z M34.3,42c-3.3,0-6-2.7-6-6s2.7-6,6-6s6,2.7,6,6
		S37.6,42,34.3,42z"/>
	<circle class="st2" cx="43.3" cy="27" r="2"/>
</g>
<g>
	<path class="st3" d="M112.7,27.7c0.3,0,0.6,0.1,0.9,0.1l-0.5-0.9c-0.2-0.5-0.8-0.8-1.4-0.8h-9.1c-0.6,0-1.1,0.3-1.4,0.8
		c0,0,0,0,0,0l-0.5,0.9c0.3-0.1,0.6-0.1,0.9-0.1H112.7z M106.5,26.6c0.2-0.1,0.5-0.1,0.8-0.1s0.6,0,0.8,0.1c0.4,0.1,0.4,0.2,0.4,0.3
		c0,0.1,0,0.2-0.4,0.3c-0.2,0-0.5,0.1-0.8,0.1c-0.3,0-0.6,0-0.8-0.1c-0.4-0.1-0.4-0.2-0.4-0.3C106.1,26.8,106.2,26.7,106.5,26.6z"/>
	<path class="st3" d="M112.7,28.5h-11.1c-1.1,0-2,0.9-2,2v10.3c0,1.1,0.9,2,2,2h11.1c1.1,0,2-0.9,2-2V30.5
		C114.7,29.4,113.8,28.5,112.7,28.5z M103.5,40.4c-0.7,0-1.2-0.5-1.2-1.2s0.5-1.2,1.2-1.2s1.2,0.5,1.2,1.2S104.2,40.4,103.5,40.4z
		 M110.7,33.2c-0.3,0-0.5-0.1-0.8-0.3l-0.4,4.6H104l0.5-5.5h5c0,0,0,0,0,0c0-0.7,0.5-1.2,1.2-1.2s1.2,0.5,1.2,1.2
		S111.3,33.2,110.7,33.2z"/>
	<path class="st3" d="M118.2,15.2c-4.3,0-8,2.2-10.2,5.5l-0.9,1.4l-0.9-1.4c-2.2-3.3-5.9-5.5-10.2-5.5c-6.8,0-12.2,5.5-12.2,12.2
		c0,14.3,16,21.7,23.3,27.5c7.3-5.8,23.3-13.2,23.3-27.5C130.4,20.7,125,15.2,118.2,15.2z M115.4,40.8c0,1.5-1.3,2.8-2.8,2.8h-11.1
		c-1.5,0-2.8-1.3-2.8-2.8V30.5c0-0.5,0.1-0.9,0.3-1.3c0,0,0,0,0,0c0,0,0,0,0,0c0,0,0,0,0,0l1.3-2.5c0,0,0,0,0,0
		c0.4-0.8,1.2-1.3,2.1-1.3h9.1c0.9,0,1.7,0.5,2.1,1.2h0c0,0,0,0,0,0l1.3,2.5c0,0,0,0.1,0,0.1c0.2,0.4,0.3,0.8,0.3,1.3V40.8z"/>
	<path class="st3" d="M109.5,32.1h-5l-0.5,5.5h5.5l0.4-4.6C109.7,32.7,109.5,32.4,109.5,32.1z M107.1,36.8c-0.7,0-1.2-0.5-1.2-1.2
		s0.5-1.2,1.2-1.2c0.7,0,1.2,0.5,1.2,1.2S107.8,36.8,107.1,36.8z"/>
	<path class="st2" d="M110.7,30.9c-0.7,0-1.2,0.5-1.2,1.2c0,0,0,0,0,0h0.5l-0.1,0.9c0.2,0.2,0.5,0.3,0.8,0.3c0.7,0,1.2-0.5,1.2-1.2
		S111.3,30.9,110.7,30.9z"/>
</g>
</svg>
