<svg width="20" height="21" viewBox="0 0 20 21" fill="none" xmlns="http://www.w3.org/2000/svg">
	<path d="M0.833336 14.1084C0.833336 13.0038 1.72877 12.1084 2.83334 12.1084H15.5C16.6046 12.1084 17.5 13.0038 17.5 14.1084V16.7751C17.5 17.8796 16.6046 18.7751 15.5 18.7751H2.83333C1.72877 18.7751 0.833336 17.8796 0.833336 16.7751V14.1084Z" fill="#CBD6E0" stroke="#A0B0C0" stroke-width="1.5"/>
	<path fill-rule="evenodd" clip-rule="evenodd" d="M17.3333 12.9102V12.0173C17.3333 11.5242 16.9229 11.1245 16.4167 11.1245C15.9104 11.1245 15.5 11.5242 15.5 12.0173V11.5727C15.5 11.0796 15.0896 10.6798 14.5833 10.6798C14.0771 10.6798 13.6667 11.0796 13.6667 11.5727V8.00126C13.6667 7.50814 13.2563 7.1084 12.75 7.1084C12.2437 7.1084 11.8333 7.50814 11.8333 8.00126V13.3584C10.8208 13.3584 10 14.1579 10 15.1441C9.99986 16.0152 10.2793 16.8646 10.7993 17.5733L11.4716 18.487C11.9873 19.1901 12.8198 19.6077 13.707 19.6084H16.0372C16.8675 19.6084 17.6638 19.287 18.2507 18.715C18.8377 18.1429 19.1672 17.3671 19.1667 16.5584V12.9102C19.1667 12.4171 18.7563 12.0173 18.25 12.0173C17.7437 12.0173 17.3333 12.4171 17.3333 12.9102Z" fill="white"/>
	<path fill-rule="evenodd" clip-rule="evenodd" d="M11.8333 13.3566V14.6959Z" fill="white"/>
	<path fill-rule="evenodd" clip-rule="evenodd" d="M13.6667 12.9102V12.0173Z" fill="white"/>
	<path fill-rule="evenodd" clip-rule="evenodd" d="M15.5 12.9102V12.0173Z" fill="white"/>
	<path d="M15.5 12.0173C15.5 11.5242 15.9104 11.1245 16.4167 11.1245C16.9229 11.1245 17.3333 11.5242 17.3333 12.0173V12.9102C17.3333 12.4171 17.7437 12.0173 18.25 12.0173C18.7563 12.0173 19.1667 12.4171 19.1667 12.9102V16.5584C19.1672 17.3671 18.8377 18.1429 18.2507 18.715C17.6638 19.287 16.8675 19.6084 16.0372 19.6084H13.707C12.8198 19.6077 11.9873 19.1901 11.4716 18.487L10.7993 17.5733C10.2793 16.8646 9.99986 16.0152 10 15.1441C10 14.1579 10.8208 13.3584 11.8333 13.3584V8.00126C11.8333 7.50814 12.2437 7.1084 12.75 7.1084C13.2563 7.1084 13.6667 7.50814 13.6667 8.00126V11.5727C13.6667 11.0796 14.0771 10.6798 14.5833 10.6798C15.0896 10.6798 15.5 11.0796 15.5 11.5727V12.0173ZM15.5 12.0173V12.9102M11.8333 13.3566V14.6959M13.6667 12.9102V12.0173" stroke="#A0B0C0" stroke-width="1.5" stroke-linecap="round" stroke-linejoin="round"/>
	<path d="M18.4675 7.0899C18.4675 7.0899 18.6667 6.27517 18.6667 5.50015C18.6667 4.72513 18.6503 4.41916 18.4675 3.9104C18.2847 3.40164 17.9917 2.9396 17.6095 2.55734C17.2272 2.17509 16.7652 1.88208 16.2564 1.69932C15.7477 1.51655 15.2048 1.44854 14.6667 1.50015C12.5952 1.50015 11.0556 4.0535 9.44701 6.27517C8.20825 7.986 6.92852 9.50015 5.33333 9.50015C4.79521 9.55176 4.25234 9.48375 3.74358 9.30098C3.23483 9.11822 2.77278 8.82521 2.39052 8.44296C2.00827 8.06071 1.71527 7.59866 1.5325 7.0899C1.34973 6.58115 1.28172 6.03827 1.33333 5.50015C1.28172 4.96203 1.34973 4.41916 1.5325 3.9104C1.71527 3.40164 2.00827 2.9396 2.39052 2.55734C2.77278 2.17509 3.23483 1.88208 3.74358 1.69932C4.25234 1.51655 4.79521 1.44854 5.33333 1.50015C6.04501 1.52837 6.72629 1.79618 7.26667 2.26015" stroke="#A0B0C0" stroke-width="1.5" stroke-linecap="round" stroke-linejoin="round"/>
</svg>
