<svg width="20" height="21" viewBox="0 0 20 21" fill="none" xmlns="http://www.w3.org/2000/svg">
<path d="M1.66675 17.8483L4.74367 19.6665L8.33341 14.6665" stroke="#A0B0C0" stroke-width="1.5" stroke-miterlimit="10" stroke-linecap="round" stroke-linejoin="round"/>
<path d="M17.5 14.6665L15 17.1665M15 17.1665L12.5 19.6665M15 17.1665L17.5 19.6665M15 17.1665L12.5 14.6665" stroke="#A0B0C0" stroke-width="1.5" stroke-miterlimit="10" stroke-linecap="round" stroke-linejoin="round"/>
<path d="M14.441 8.53865C14.5445 8.74528 14.5933 8.97498 14.583 9.20583C14.5726 9.43668 14.5034 9.66103 14.382 9.85758C14.2605 10.0541 14.0908 10.2164 13.8889 10.3289C13.6871 10.4414 13.4598 10.5004 13.2287 10.5003H6.77234C6.54126 10.5004 6.31401 10.4414 6.11219 10.3289C5.91029 10.2164 5.74055 10.0541 5.6191 9.85758C5.49764 9.66103 5.42843 9.43668 5.41812 9.20583C5.40773 8.97498 5.45662 8.74528 5.56005 8.53865L8.78824 2.08302C8.90076 1.85783 9.07378 1.66838 9.2879 1.536C9.50202 1.40362 9.74876 1.3335 10.0005 1.3335C10.2523 1.3335 10.499 1.40362 10.7132 1.536C10.9273 1.66838 11.1003 1.85783 11.2128 2.08302L14.441 8.53865Z" fill="#A0B0C0" stroke="#A0B0C0" stroke-width="2" stroke-linecap="round" stroke-linejoin="round"/>
<path d="M10.0006 8.78141C9.84237 8.78141 9.71411 8.65316 9.71411 8.49495C9.71411 8.33675 9.84237 8.2085 10.0006 8.2085" stroke="white" stroke-width="1.5"/>
<path d="M10.0005 8.78141C10.1587 8.78141 10.2869 8.65316 10.2869 8.49495C10.2869 8.33675 10.1587 8.2085 10.0005 8.2085" stroke="white" stroke-width="1.5"/>
<path d="M10.0005 6.07324V4.19824" stroke="white" stroke-width="1.5" stroke-linecap="round" stroke-linejoin="round"/>
</svg>
