<?xml version="1.0" encoding="utf-8"?>
<!-- Generator: Adobe Illustrator 23.1.1, SVG Export Plug-In . SVG Version: 6.00 Build 0)  -->
<svg version="1.1" id="Layer_1" xmlns="http://www.w3.org/2000/svg" xmlns:xlink="http://www.w3.org/1999/xlink" x="0px" y="0px"
	 viewBox="0 0 144 72" style="enable-background:new 0 0 144 72;" xml:space="preserve">
<style type="text/css">
	.st0{fill:#A3A3A3;}
	.st1{fill:url(#SVGID_1_);}
	.st2{fill:#FFFFFF;}
	.st3{fill:#7A7979;}
	.st4{fill:#E52020;}
</style>
<path class="st0" d="M71.2,31.4c-0.5,0-0.8,0.3-0.9,0.8c0,0.3,0.1,0.6,0.4,0.7l4.8,3.5l-4.8,3.5c-0.4,0.3-0.5,0.8-0.2,1.2
	s0.8,0.5,1.1,0.2l0,0l5.8-4.2c0.4-0.3,0.5-0.8,0.2-1.2c-0.1-0.1-0.1-0.1-0.2-0.2l-5.7-4.2C71.6,31.4,71.4,31.4,71.2,31.4z"/>
<g>
	
		<radialGradient id="SVGID_1_" cx="-1428.9663" cy="-2787.574" r="69.648" gradientTransform="matrix(0.6435 -0.7654 -0.5056 -0.4251 -466.4574 -2210.4329)" gradientUnits="userSpaceOnUse">
		<stop  offset="7.300000e-02" style="stop-color:#EACC7B"/>
		<stop  offset="0.184" style="stop-color:#ECAA59"/>
		<stop  offset="0.307" style="stop-color:#EF802E"/>
		<stop  offset="0.358" style="stop-color:#EF6D3A"/>
		<stop  offset="0.46" style="stop-color:#F04B50"/>
		<stop  offset="0.516" style="stop-color:#F03E58"/>
		<stop  offset="0.689" style="stop-color:#DB359E"/>
		<stop  offset="0.724" style="stop-color:#CE37A4"/>
		<stop  offset="0.789" style="stop-color:#AC3CB4"/>
		<stop  offset="0.877" style="stop-color:#7544CF"/>
		<stop  offset="0.98" style="stop-color:#2B4FF2"/>
	</radialGradient>
	<path class="st1" d="M49.9,59h-26c-5.5,0-10-4.5-10-10V23c0-5.5,4.5-10,10-10h26c5.5,0,10,4.5,10,10v26C59.9,54.5,55.4,59,49.9,59z
		"/>
	<path class="st2" d="M36.9,22c4.6,0,5.1,0,6.9,0.1c1.7,0.1,2.6,0.4,3.2,0.6c0.8,0.3,1.4,0.7,2,1.3c0.6,0.6,1,1.2,1.3,2
		c0.2,0.6,0.5,1.5,0.6,3.2c0,1.7,0,2.2,0,6.8s0,5.1-0.1,6.9c-0.1,1.7-0.4,2.6-0.6,3.2c-0.3,0.8-0.7,1.4-1.3,2s-1.2,1-2,1.3
		c-0.6,0.2-1.5,0.5-3.2,0.6c-1.7,0-2.2,0-6.8,0s-5.1,0-6.9-0.1c-1.7-0.1-2.6-0.4-3.2-0.6c-0.8-0.3-1.4-0.7-2-1.3s-1-1.2-1.3-2
		c-0.2-0.6-0.5-1.5-0.6-3.2c0-1.7,0-2.2,0-6.8s0-5.1,0.1-6.9c0.1-1.7,0.4-2.6,0.6-3.2c0.3-0.8,0.7-1.4,1.3-2c0.6-0.6,1.2-1,2-1.3
		c0.6-0.2,1.5-0.5,3.2-0.6C31.8,22,32.3,22,36.9,22 M36.9,19c-4.6,0-5.2,0-7,0.1s-3,0.4-4.1,0.8s-2.1,1-3,2s-1.5,1.9-2,3
		C20.4,26,20.1,27.2,20,29s-0.1,2.4-0.1,7s0,5.2,0.1,7s0.4,3,0.8,4.1s1,2.1,2,3c0.9,0.9,1.9,1.5,3,2c1.1,0.4,2.3,0.7,4.1,0.8
		c1.8,0.1,2.4,0.1,7,0.1s5.2,0,7-0.1s3-0.4,4.1-0.8c1.1-0.4,2.1-1,3-2c0.9-0.9,1.5-1.9,2-3c0.4-1.1,0.7-2.3,0.8-4.1s0.1-2.4,0.1-7
		s0-5.2-0.1-7s-0.4-3-0.8-4.1c-0.4-1.1-1-2.1-2-3s-1.9-1.5-3-2c-1.1-0.4-2.3-0.7-4.1-0.8C42.1,19,41.5,19,36.9,19L36.9,19z"/>
	<path class="st2" d="M36.9,27c-5,0-9,4-9,9s4,9,9,9s9-4,9-9S41.9,27,36.9,27z M36.9,42c-3.3,0-6-2.7-6-6s2.7-6,6-6s6,2.7,6,6
		S40.2,42,36.9,42z"/>
	<circle class="st2" cx="45.9" cy="27" r="2"/>
</g>
<g>
	<path class="st3" d="M127.9,51.6c-1.4-3.5-3.8-5.8-7.4-6.6c-3.5-0.7-6.6-2.3-9.8-3.7c-0.4-0.2-0.5-0.4-0.5-0.8
		c-0.1-1.2,0-2.3,0-3.5c0-0.2,0-0.4,0.1-0.5c1.2-1.3,1.7-2.9,2-4.6c0.1-0.4,0.1-0.8,0.6-0.9c0.5-0.1,0.6-0.6,0.8-1
		c0.3-0.9,0.3-1.8,0.4-2.7c0-0.5,0-0.9,0-1.4s-0.1-0.9-0.6-1.1c-0.2-0.1-0.1-0.2-0.1-0.4c0.1-1.1,0.3-2.2,0.3-3.3
		c0.1-2.5-0.9-4.5-2.7-6.1c-1.8-1.6-3.8-2.4-6.1-2.4v0c0,0,0,0,0,0c0,0,0,0,0,0v0c-2.3,0-4.3,0.8-6.1,2.4c-1.8,1.6-2.8,3.6-2.7,6.1
		c0,1.1,0.2,2.2,0.3,3.3c0,0.2,0.1,0.3-0.1,0.4c-0.5,0.2-0.6,0.6-0.6,1.1s0,0.9,0,1.4c0.1,0.9,0.1,1.8,0.4,2.7
		c0.2,0.4,0.3,0.9,0.8,1c0.5,0.1,0.5,0.5,0.6,0.9c0.3,1.7,0.8,3.3,2,4.6c0.1,0.1,0.1,0.3,0.1,0.5c0,1.2,0.1,2.3,0,3.5
		c0,0.4-0.1,0.6-0.5,0.8c-3.2,1.4-6.3,3-9.8,3.7c-3.6,0.8-6,3.1-7.4,6.6C81.3,53,81,54.5,80.8,56c0,0.6,0,1.2,0.1,1.6
		c0.3,0.9,0.8,1.4,1.7,1.7c7.4,0,14.8,0,22.3,0c0,0,0,0,0.1,0c7.4,0,14.8,0,22.3,0c0.9-0.3,1.4-0.8,1.7-1.7c0.1-0.4,0.1-1,0.1-1.6
		C128.8,54.5,128.5,53,127.9,51.6z"/>
	<g>
		<polygon class="st4" points="115.3,28 117.8,28 118,25.6 115.6,25.6 		"/>
		<path class="st4" d="M121.6,18.1c-1.9,0-3.5,1-4.5,2.4l-0.4,0.6l-0.4-0.6c-1-1.5-2.6-2.4-4.5-2.4c-3,0-5.4,2.4-5.4,5.4
			c0,6.3,7.1,9.6,10.3,12.1c3.2-2.6,10.3-5.8,10.3-12.1C127,20.6,124.6,18.1,121.6,18.1z"/>
	</g>
</g>
</svg>
