<?xml version="1.0" encoding="utf-8"?>
<!-- Generator: Adobe Illustrator 25.1.0, SVG Export Plug-In . SVG Version: 6.00 Build 0)  -->
<svg version="1.1" id="Layer_1" xmlns="http://www.w3.org/2000/svg" xmlns:xlink="http://www.w3.org/1999/xlink" x="0px" y="0px"
	 viewBox="0 0 2931 2931" style="enable-background:new 0 0 2931 2931;" xml:space="preserve">
<style type="text/css">
	.st0{fill:#FDFDFD;}
	.st1{fill:#020202;}
	.st2{fill:#FEC127;}
</style>
<g id="FKMF73_1_">
	<g>
		<path class="st0" d="M1539.2,317c-459.6,762.5-917.3,1521.8-1380.3,2289.8c260.6-0.8,510.8,18.4,760.9-2.8
			c174.3-14.8,321-84,430.7-225.4c156.6-201.9,271.3-429.5,400.5-648.2c7.4-12.5,13.2-23.2,4.1-38.1
			c-65.8-107.9-130.9-216.2-199.5-329.6c-14.6,22.9-25.3,38.9-35.2,55.3c-139.1,231.6-278,463.2-417,694.8
			c-70.3,117.1-177.7,153.8-314.7,145.8c251.6-417.4,499.6-828.7,750.4-1244.9c28,45.9,51.9,84.7,75.5,123.8
			c287.2,476.1,574.3,952.3,861.5,1428.4c12,19.8,19.1,42.6,51,41.7c71.7-2.1,143.6-0.6,215.3-0.7c13.7,0,31.4,2.1,29.4-19.1
			c-9.8-102.4,21.2-205.6-41.8-306.5c-215.8-345.2-423.4-695.5-634.1-1043.8C1911,931.7,1726.1,625.9,1539.2,317z M2193.2,1076.8
			c56.1-100.4,106.4-190.3,156.5-280.2c9.1-16.3,20.9-35.2-12.4-35.4c-107.8-0.7-215.6-0.2-334.3-0.2
			C2068.8,870.1,2127.6,967.8,2193.2,1076.8z"/>
		<path class="st1" d="M1539.2,317c186.9,308.9,371.9,614.7,556.8,920.5c210.7,348.4,418.3,698.7,634.1,1043.8
			c63.1,100.9,32,204.1,41.8,306.5c2,21.2-15.8,19-29.4,19.1c-71.8,0.2-143.6-1.3-215.3,0.7c-31.9,0.9-39.1-21.8-51-41.7
			c-287.2-476.1-574.3-952.3-861.5-1428.4c-23.6-39.1-47.5-77.9-75.5-123.8c-250.9,416.2-498.8,827.5-750.4,1244.9
			c137,8,244.4-28.7,314.7-145.8c139-231.6,277.9-463.2,417-694.8c9.9-16.5,20.6-32.4,35.2-55.3c68.5,113.4,133.7,221.7,199.5,329.6
			c9.1,14.9,3.3,25.6-4.1,38.1c-129.2,218.7-243.9,446.2-400.5,648.2c-109.7,141.4-256.4,210.6-430.7,225.4
			c-250.1,21.3-500.3,2-760.9,2.8C621.8,1838.8,1079.5,1079.5,1539.2,317z"/>
		<path class="st2" d="M2193.2,1076.8c-65.6-109-124.4-206.7-190.2-315.9c118.7,0,226.5-0.4,334.3,0.2c33.3,0.2,21.4,19.2,12.4,35.4
			C2299.6,886.5,2249.3,976.4,2193.2,1076.8z"/>
	</g>
</g>
</svg>
