<svg width="20" height="21" viewBox="0 0 20 21" fill="none" xmlns="http://www.w3.org/2000/svg">
	<path d="M11.6913 12.8437L13.8271 19.2999C13.8548 19.3834 13.9043 19.4591 13.9709 19.5199C14.0375 19.5807 14.1192 19.6247 14.2085 19.6478C14.2977 19.671 14.3918 19.6726 14.4819 19.6525C14.5719 19.6323 14.6552 19.5912 14.7242 19.5327L15.8525 16.5304L18.984 15.9031C19.0517 15.8453 19.1034 15.7725 19.1342 15.6913C19.165 15.61 19.1741 15.5227 19.1606 15.4373C19.147 15.3519 19.1114 15.271 19.0568 15.2018C19.0023 15.1326 18.9304 15.0774 18.8477 15.0408L12.4529 12.2156C12.3559 12.1728 12.248 12.1575 12.142 12.1716C12.0361 12.1857 11.9368 12.2286 11.8562 12.2951C11.7755 12.3617 11.717 12.4489 11.6877 12.5463C11.6585 12.6436 11.6597 12.747 11.6913 12.8437Z" stroke="#A0B0C0" stroke-width="1.5" stroke-linecap="round" stroke-linejoin="round"/>
	<path d="M18.4675 10.4229C18.4675 10.4229 18.6667 9.60817 18.6667 8.83316C18.6667 8.05814 18.6503 7.75216 18.4675 7.24341C18.2847 6.73465 17.9917 6.2726 17.6095 5.89035C17.2272 5.50809 16.7652 5.21509 16.2564 5.03232C15.7477 4.84956 15.2048 4.78154 14.6667 4.83316C12.5952 4.83316 11.0556 7.38651 9.44701 9.60817C8.20825 11.319 6.92852 12.8332 5.33333 12.8332C4.79521 12.8848 4.25234 12.8168 3.74358 12.634C3.23483 12.4512 2.77278 12.1582 2.39052 11.776C2.00827 11.3937 1.71527 10.9317 1.5325 10.4229C1.34973 9.91415 1.28172 9.37128 1.33333 8.83316C1.28172 8.29504 1.34973 7.75216 1.5325 7.24341C1.71527 6.73465 2.00827 6.2726 2.39052 5.89035C2.77278 5.50809 3.23483 5.21509 3.74358 5.03232C4.25234 4.84956 4.79521 4.78154 5.33333 4.83316C6.04501 4.86137 6.72629 5.12919 7.26667 5.59316" stroke="#A0B0C0" stroke-width="1.5" stroke-linecap="round" stroke-linejoin="round"/>
</svg>
