<svg width="20" height="21" viewBox="0 0 20 21" fill="none" xmlns="http://www.w3.org/2000/svg">
<path d="M10 19.4657H2.4138C1.65203 19.4657 1.03449 18.8482 1.03449 18.0864V2.91398C1.03449 2.15221 1.65203 1.53467 2.4138 1.53467H10M1.03449 5.6726H18.9655M1.03449 10.0692H10V1.53467M10 1.53467H17.5862C18.348 1.53467 18.9655 2.15221 18.9655 2.91398V10.9025" stroke="#A0B0C0" stroke-width="1.5" stroke-linecap="round" stroke-linejoin="round"/>
<path d="M11.6913 12.8437L13.8271 19.2999C13.8548 19.3834 13.9043 19.4591 13.9709 19.5199C14.0375 19.5807 14.1192 19.6247 14.2085 19.6478C14.2977 19.671 14.3918 19.6726 14.4819 19.6525C14.5719 19.6323 14.6552 19.5912 14.7242 19.5327L15.8525 16.5304L18.984 15.9031C19.0517 15.8453 19.1034 15.7725 19.1342 15.6913C19.165 15.61 19.1741 15.5227 19.1606 15.4373C19.147 15.3519 19.1114 15.271 19.0568 15.2018C19.0023 15.1326 18.9304 15.0774 18.8477 15.0408L12.4529 12.2156C12.3559 12.1728 12.248 12.1575 12.142 12.1716C12.0361 12.1857 11.9368 12.2286 11.8562 12.2951C11.7755 12.3617 11.717 12.4489 11.6877 12.5463C11.6585 12.6436 11.6597 12.747 11.6913 12.8437Z" stroke="#A0B0C0" stroke-width="1.5" stroke-linecap="round" stroke-linejoin="round"/>
</svg>
