<?xml version="1.0" standalone="no"?>
<!DOCTYPE svg PUBLIC "-//W3C//DTD SVG 20010904//EN"
 "http://www.w3.org/TR/2001/REC-SVG-20010904/DTD/svg10.dtd">
<svg version="1.0" xmlns="http://www.w3.org/2000/svg"
 width="200.000000pt" height="200.000000pt" viewBox="0 0 200.000000 200.000000"
 preserveAspectRatio="xMidYMid meet">

<g transform="translate(0.000000,200.000000) scale(0.100000,-0.100000)"
fill="#000000" stroke="none">
<path d="M872 1990 c-410 -58 -733 -346 -839 -749 -22 -82 -26 -118 -26 -241
0 -123 4 -159 26 -241 96 -364 362 -630 726 -726 82 -22 118 -26 241 -26 123
0 159 4 241 26 364 96 630 362 726 726 22 82 26 118 26 241 0 123 -4 159 -26
241 -96 364 -366 634 -724 725 -107 27 -273 38 -371 24z m463 -521 c2 -3 -47
-66 -109 -141 l-113 -137 -22 23 c-36 38 -27 62 64 166 l84 98 46 -3 c25 -1
47 -4 50 -6z m-418 -166 c76 -85 139 -159 141 -164 4 -10 -36 -69 -47 -69 -7
0 -334 374 -339 388 -1 4 22 5 52 4 l54 -4 139 -155z m-163 -86 c97 -109 176
-206 176 -217 0 -10 -95 -127 -210 -259 l-211 -241 -66 0 -67 0 25 28 c217
239 409 462 409 475 0 10 -115 147 -338 400 -15 16 -12 17 45 14 l60 -3 177
-197z m728 136 c-33 -37 -139 -155 -236 -262 -101 -111 -176 -202 -176 -214 0
-20 7 -29 198 -241 l124 -136 -69 0 -69 0 -157 177 c-97 108 -157 184 -155
194 2 10 102 126 223 259 121 134 228 252 237 265 14 18 29 22 79 24 l62 2
-61 -68z m-163 -515 c31 -35 99 -110 151 -168 51 -58 107 -120 124 -137 l30
-33 -61 0 -60 0 -150 173 c-82 94 -152 177 -156 184 -13 21 4 43 34 43 23 0
42 -13 88 -62z m-407 -65 c10 -9 18 -25 18 -35 0 -10 -41 -68 -92 -128 l-91
-110 -60 0 -59 0 24 28 c140 166 225 262 232 262 5 0 18 -7 28 -17z"/>
</g>
</svg>
