<svg width="128" height="128" viewBox="0 0 128 128" fill="none" xmlns="http://www.w3.org/2000/svg">
<rect width="128" height="128" rx="40" fill="#4A5968"/>
<path fill-rule="evenodd" clip-rule="evenodd" d="M61.4418 39.1196C67.2066 38.4118 71.3063 33.1668 70.5988 27.4047C69.8913 21.6425 64.6445 17.5452 58.8797 18.253C53.1149 18.9608 49.0152 24.2058 49.7227 29.9679C50.4302 35.7301 55.677 39.8275 61.4418 39.1196ZM60.6535 32.6991C62.8707 32.4269 64.4475 30.4096 64.1754 28.1934C63.9033 25.9772 61.8852 24.4012 59.668 24.6735C57.4508 24.9457 55.874 26.963 56.1461 29.1792C56.4182 31.3955 58.4362 32.9714 60.6535 32.6991Z" fill="white"/>
<path fill-rule="evenodd" clip-rule="evenodd" d="M65.2594 37.0212L57.2301 38.007L58.4126 47.6378L46.7054 57.2746C44.1227 59.4005 43.6129 63.1569 45.5356 65.8943L55.7243 80.4004C57.0826 82.3342 59.3959 83.3622 61.7415 83.0742L71.6466 81.858C74.0645 81.5611 76.1042 79.9173 76.9081 77.6177L82.6754 61.1203C83.733 58.095 82.3899 54.7539 79.5327 53.3024L66.4419 46.6519L65.2594 37.0212ZM65.1864 69.6166C69.1774 69.1266 72.0157 65.4955 71.5259 61.5063C71.0361 57.5171 67.4037 54.6805 63.4127 55.1705C59.4217 55.6605 56.5834 59.2917 57.0732 63.2808C57.563 67.27 61.1954 70.1067 65.1864 69.6166Z" fill="white"/>
<path d="M47.8964 65.1782C49.822 62.7148 53.3807 62.2778 55.845 64.2023V64.2023C58.3093 66.1267 58.746 69.6838 56.8205 72.1472L42.4829 90.49V90.49C41.1587 92.1841 38.7113 92.4846 37.0166 91.1611L35.6231 90.073C33.1588 88.1485 32.7221 84.5915 34.6476 82.128L47.8964 65.1782Z" fill="white"/>
<path d="M80.889 61.1271C78.4247 59.2026 74.866 59.6396 72.9405 62.103V62.103C71.0149 64.5665 71.4517 68.1236 73.916 70.048L92.2652 84.3773V84.3773C93.9599 85.7008 96.4073 85.4003 97.7315 83.7061L98.8203 82.3132C100.746 79.8497 100.309 76.2926 97.8448 74.3682L80.889 61.1271Z" fill="white"/>
<path fill-rule="evenodd" clip-rule="evenodd" d="M33.9144 87.9427C33.9546 88.0839 34.0018 88.2212 34.0556 88.3544L40.7185 107.79C40.719 107.792 40.7196 107.795 40.7202 107.797C41.0558 109.094 42.3797 109.874 43.6773 109.538C44.9748 109.203 45.7546 107.879 45.4192 106.582L45.4194 106.582L41.8218 86.3623C41.8037 86.2098 41.7766 86.0569 41.7403 85.9041L41.7399 85.9019L41.7398 85.9019C41.7336 85.8758 41.7271 85.8498 41.7204 85.8237C41.1611 83.6619 38.9545 82.3626 36.7918 82.9216C34.6292 83.4807 33.3295 85.6864 33.8888 87.8482C33.8955 87.8743 33.9025 87.9003 33.9097 87.9261L33.9088 87.9263L33.9144 87.9427Z" fill="white"/>
<path fill-rule="evenodd" clip-rule="evenodd" d="M99.9247 79.838C99.9199 79.9847 99.9073 80.1294 99.8873 80.2717L98.1243 100.742C98.1243 100.744 98.1243 100.747 98.1243 100.749C98.1124 102.089 97.0164 103.165 95.6762 103.154C94.3361 103.142 93.2593 102.047 93.271 100.707L93.2708 100.707L91.8698 80.2175C91.8506 80.0652 91.8398 79.9102 91.8381 79.7532L91.8379 79.7509L91.838 79.7509C91.8378 79.7242 91.8377 79.6973 91.838 79.6704C91.8577 77.4375 93.6844 75.6429 95.918 75.6622C98.1517 75.6815 99.9464 77.5072 99.9267 79.7401C99.9265 79.7671 99.926 79.7939 99.9252 79.8207L99.9262 79.8207L99.9247 79.838Z" fill="white"/>
</svg>
