<svg width="20" height="21" viewBox="0 0 20 21" fill="none" xmlns="http://www.w3.org/2000/svg">
<path d="M14.9361 1.3335H5.06426C2.72768 1.3335 0.833496 3.22768 0.833496 5.56426V15.4361C0.833496 17.7726 2.72768 19.6668 5.06426 19.6668H14.9361C17.2726 19.6668 19.1668 17.7726 19.1668 15.4361V5.56426C19.1668 3.22768 17.2726 1.3335 14.9361 1.3335Z" stroke="#A0B0C0" stroke-width="1.5" stroke-linecap="round" stroke-linejoin="round"/>
<path d="M5.8935 14.7833C5.4735 14.7833 5.07294 14.7327 4.69183 14.6316C4.3185 14.5227 3.98405 14.3594 3.6885 14.1416C3.39294 13.9239 3.15572 13.6555 2.97683 13.3366C2.80572 13.0177 2.71627 12.6405 2.7085 12.205C2.7085 12.135 2.73183 12.0766 2.7785 12.03C2.82516 11.9755 2.8835 11.9483 2.9535 11.9483H4.06183C4.16294 11.9483 4.23683 11.9755 4.2835 12.03C4.33794 12.0844 4.38072 12.1583 4.41183 12.2516C4.45072 12.5316 4.54016 12.7611 4.68016 12.94C4.82016 13.1111 4.99516 13.2394 5.20516 13.325C5.42294 13.4027 5.66405 13.4416 5.9285 13.4416C6.4185 13.4416 6.79183 13.2822 7.0485 12.9633C7.31294 12.6444 7.44516 12.2011 7.44516 11.6333C7.44516 6.77697 7.44516 9.25508 7.44516 6.77997C7.44516 6.70219 7.4685 6.63608 7.51516 6.58163C7.56961 6.52719 7.63961 6.49997 7.72516 6.49997H8.82183C8.90739 6.49997 8.97739 6.52719 9.03183 6.58163C9.08627 6.63608 9.1135 6.70608 9.1135 6.79163V11.68C9.1135 12.3255 8.97739 12.8816 8.70516 13.3483C8.44072 13.815 8.06739 14.1727 7.58516 14.4216C7.11072 14.6627 6.54683 14.7833 5.8935 14.7833Z" fill="#A0B0C0"/>
<path d="M13.7025 14.7833C12.9792 14.7833 12.3725 14.6783 11.8825 14.4683C11.4003 14.2505 11.0308 13.9705 10.7742 13.6283C10.5253 13.2783 10.3931 12.9127 10.3775 12.5316C10.3775 12.4616 10.4008 12.4033 10.4475 12.3566C10.4942 12.31 10.5525 12.2866 10.6225 12.2866H11.6608C11.762 12.2866 11.8358 12.31 11.8825 12.3566C11.937 12.3955 11.9836 12.4461 12.0225 12.5083C12.0692 12.6561 12.1586 12.8039 12.2908 12.9516C12.4231 13.0916 12.602 13.2083 12.8275 13.3016C13.0608 13.395 13.3525 13.4416 13.7025 13.4416C14.2625 13.4416 14.6786 13.3483 14.9508 13.1616C15.2308 12.975 15.3708 12.7222 15.3708 12.4033C15.3708 12.1777 15.297 11.9989 15.1492 11.8666C15.0014 11.7266 14.772 11.6022 14.4608 11.4933C14.1575 11.3766 13.7531 11.2561 13.2475 11.1316C12.6642 10.9916 12.1742 10.8244 11.7775 10.63C11.3886 10.4277 11.0931 10.175 10.8908 9.87163C10.6964 9.5683 10.5992 9.1833 10.5992 8.71663C10.5992 8.26552 10.7197 7.86497 10.9608 7.51497C11.2097 7.16497 11.5597 6.88886 12.0108 6.68663C12.4697 6.48441 13.0142 6.3833 13.6442 6.3833C14.1497 6.3833 14.597 6.4533 14.9858 6.5933C15.3747 6.72552 15.6975 6.90441 15.9542 7.12997C16.2108 7.34775 16.4053 7.58497 16.5375 7.84163C16.6775 8.09052 16.7514 8.33552 16.7592 8.57663C16.7592 8.63886 16.7358 8.69719 16.6892 8.75163C16.6503 8.7983 16.592 8.82163 16.5142 8.82163H15.4292C15.367 8.82163 15.3047 8.80608 15.2425 8.77497C15.1803 8.74386 15.1297 8.68552 15.0908 8.59997C15.0442 8.35886 14.8925 8.15275 14.6358 7.98163C14.3792 7.81052 14.0486 7.72497 13.6442 7.72497C13.2242 7.72497 12.8858 7.80275 12.6292 7.9583C12.3725 8.11386 12.2442 8.35497 12.2442 8.68163C12.2442 8.89941 12.3064 9.08219 12.4308 9.22997C12.5631 9.36997 12.7692 9.49441 13.0492 9.6033C13.337 9.71219 13.7142 9.82886 14.1808 9.9533C14.842 10.1011 15.3825 10.2722 15.8025 10.4666C16.2225 10.6611 16.5297 10.91 16.7242 11.2133C16.9186 11.5089 17.0158 11.8861 17.0158 12.345C17.0158 12.8583 16.8758 13.2977 16.5958 13.6633C16.3236 14.0211 15.9386 14.2972 15.4408 14.4916C14.9431 14.6861 14.3636 14.7833 13.7025 14.7833Z" fill="#A0B0C0"/>
</svg>
