<svg width="20" height="21" viewBox="0 0 20 21" fill="none" xmlns="http://www.w3.org/2000/svg">
<path d="M9.92096 7.99996C9.23315 7.99996 8.66227 7.90274 8.20831 7.70829C7.75435 7.5069 7.41045 7.24649 7.17659 6.92705C6.94274 6.6076 6.81893 6.26733 6.80518 5.90622C6.80518 5.85066 6.82581 5.80205 6.86708 5.76039C6.91523 5.71178 6.97025 5.68747 7.03215 5.68747H8.33212C8.42841 5.68747 8.50063 5.70483 8.54878 5.73955C8.6038 5.77428 8.65195 5.81941 8.69322 5.87497C8.74824 5.97914 8.8239 6.07983 8.9202 6.17705C9.02337 6.27427 9.15405 6.35413 9.31225 6.41663C9.47732 6.47219 9.68023 6.49997 9.92096 6.49997C10.3199 6.49997 10.6191 6.43747 10.8186 6.31247C11.0249 6.18747 11.1281 6.01733 11.1281 5.80205C11.1281 5.64928 11.073 5.52428 10.963 5.42706C10.8529 5.32289 10.6741 5.23261 10.4265 5.15622C10.1858 5.07289 9.8625 4.98956 9.45669 4.90623C8.93395 4.79512 8.48687 4.65275 8.11546 4.47914C7.75092 4.29859 7.47235 4.06595 7.27977 3.78123C7.08718 3.48957 6.99089 3.12846 6.99089 2.6979C6.99089 2.2743 7.10781 1.89583 7.34167 1.56249C7.5824 1.22916 7.91599 0.968747 8.34243 0.781248C8.76888 0.593749 9.27442 0.5 9.85906 0.5C10.3336 0.5 10.7498 0.5625 11.1074 0.687499C11.472 0.812499 11.7781 0.979164 12.0257 1.1875C12.2733 1.39583 12.459 1.61805 12.5828 1.85416C12.7135 2.08332 12.7823 2.30902 12.7891 2.53124C12.7891 2.58679 12.7685 2.63888 12.7272 2.68749C12.686 2.72915 12.6344 2.74999 12.5725 2.74999H11.2106C11.1349 2.74999 11.0696 2.7361 11.0146 2.70832C10.9596 2.68054 10.9114 2.6354 10.8701 2.5729C10.8289 2.42013 10.7188 2.28818 10.54 2.17707C10.368 2.05902 10.1411 1.99999 9.85906 1.99999C9.55642 1.99999 9.31913 2.05555 9.14717 2.16666C8.9821 2.27082 8.89956 2.43402 8.89956 2.65624C8.89956 2.79513 8.94427 2.91665 9.03368 3.02082C9.12998 3.12499 9.28473 3.21526 9.49796 3.29165C9.71806 3.36804 10.0173 3.4479 10.3956 3.53123C11.0215 3.64929 11.527 3.79859 11.9122 3.97915C12.2973 4.15276 12.5794 4.38192 12.7582 4.66664C12.937 4.94442 13.0264 5.29511 13.0264 5.71872C13.0264 6.19094 12.8923 6.60066 12.6241 6.94788C12.3627 7.28816 11.9982 7.54857 11.5304 7.72913C11.0627 7.90968 10.5262 7.99996 9.92096 7.99996Z" fill="#A0B0C0"/>
<path d="M15.5747 7.89563C15.4578 7.89563 15.3649 7.86438 15.2961 7.80188C15.2274 7.73938 15.1792 7.66646 15.1517 7.58313L13.047 0.916502C13.0332 0.88178 13.0264 0.850531 13.0264 0.822753C13.0264 0.767198 13.047 0.718587 13.0883 0.67692C13.1364 0.628309 13.1914 0.604004 13.2533 0.604004H14.5327C14.6427 0.604004 14.7287 0.635254 14.7906 0.697754C14.8525 0.760253 14.8903 0.819281 14.9041 0.874836L16.3588 5.68731L17.8239 0.874836C17.8445 0.819281 17.8823 0.760253 17.9373 0.697754C17.9992 0.635254 18.0852 0.604004 18.1953 0.604004H19.4746C19.5365 0.604004 19.5881 0.628309 19.6294 0.67692C19.6775 0.718587 19.7016 0.767198 19.7016 0.822753C19.7016 0.850531 19.6947 0.88178 19.6809 0.916502L17.5762 7.58313C17.5487 7.66646 17.5006 7.73938 17.4318 7.80188C17.3699 7.86438 17.277 7.89563 17.1532 7.89563H15.5747Z" fill="#A0B0C0"/>
<path d="M3.19832 7.99996C2.5449 7.99996 1.98434 7.89232 1.51662 7.67704C1.05579 7.46177 0.694689 7.1458 0.433321 6.72913C0.178831 6.31247 0.0378296 5.79511 0.0103172 5.17706C0.00343906 4.89234 0 4.58678 0 4.2604C0 3.93401 0.00343906 3.62151 0.0103172 3.3229C0.0378296 2.71874 0.18227 2.20832 0.443638 1.79166C0.705007 1.36805 1.06955 1.04861 1.53726 0.833332C2.00497 0.611111 2.55866 0.5 3.19832 0.5C3.65228 0.5 4.07184 0.559027 4.45702 0.677082C4.84219 0.788193 5.17922 0.954859 5.4681 1.17708C5.75698 1.39236 5.98052 1.65624 6.13872 1.96874C6.30379 2.2743 6.38977 2.62152 6.39665 3.0104C6.40352 3.0729 6.38289 3.12499 6.33474 3.16665C6.29347 3.20832 6.24189 3.22915 6.17998 3.22915H4.78717C4.69775 3.22915 4.62897 3.21179 4.58082 3.17707C4.53268 3.1354 4.49141 3.06249 4.45702 2.95832C4.36072 2.59027 4.20253 2.34027 3.98243 2.20832C3.76921 2.06944 3.5044 1.99999 3.188 1.99999C2.80971 1.99999 2.51051 2.10763 2.29041 2.32291C2.07031 2.53124 1.94994 2.88193 1.92931 3.37498C1.90868 3.94443 1.90868 4.52776 1.92931 5.12497C1.94994 5.61803 2.07031 5.97219 2.29041 6.18747C2.51051 6.3958 2.80971 6.49997 3.188 6.49997C3.5044 6.49997 3.77264 6.43052 3.99274 6.29163C4.21284 6.15275 4.3676 5.90275 4.45702 5.54164C4.48453 5.43747 4.52236 5.36803 4.57051 5.33331C4.62553 5.29164 4.69775 5.27081 4.78717 5.27081H6.17998C6.24189 5.27081 6.29347 5.29164 6.33474 5.33331C6.38289 5.37497 6.40352 5.42706 6.39665 5.48956C6.38977 5.87844 6.30379 6.22913 6.13872 6.54163C5.98052 6.84719 5.75698 7.11107 5.4681 7.33329C5.17922 7.54857 4.84219 7.71524 4.45702 7.83329C4.07184 7.9444 3.65228 7.99996 3.19832 7.99996Z" fill="#A0B0C0"/>
<path d="M6.66663 16.3335L9.99996 19.6668M9.99996 19.6668L13.3333 16.3335M9.99996 19.6668V11.3335M5.83329 19.6668H3.33329C2.41246 19.6668 1.66663 18.921 1.66663 18.0002V11.3335M18.3333 11.3335V18.0002C18.3333 18.921 17.5875 19.6668 16.6666 19.6668H14.1666" stroke="#A0B0C0" stroke-width="1.5" stroke-linecap="round" stroke-linejoin="round"/>
</svg>
