<?xml version="1.0" encoding="utf-8"?>
<!-- Generator: Adobe Illustrator 23.1.1, SVG Export Plug-In . SVG Version: 6.00 Build 0)  -->
<svg version="1.1" id="Layer_1" xmlns="http://www.w3.org/2000/svg" xmlns:xlink="http://www.w3.org/1999/xlink" x="0px" y="0px"
	 viewBox="0 0 72 72" style="enable-background:new 0 0 72 72;" xml:space="preserve">
<style type="text/css">
	.st0{fill:#2D2B2B;}
</style>
<path class="st0" d="M13.2,14.9c-1.6,0-2.9,1.3-2.9,2.9V27c0,0.1,0,0.1,0,0.2V56c0,0.6,0.5,1,1,1h41.2c0.4,0,0.7-0.2,0.9-0.5
	s0.2-0.7,0-1S52.9,55,52.5,55H12.4V28.3h47.3V55H41.1c-0.4,0-0.7,0.2-0.9,0.5s-0.2,0.7,0,1s0.5,0.5,0.9,0.5h19.5c0.6,0,1-0.5,1-1
	V27.3c0-0.1,0-0.1,0-0.2v-9.2c0-1.6-1.3-2.9-2.9-2.9C58.8,14.9,13.2,14.9,13.2,14.9z M13.2,17h45.5c0.5,0,0.9,0.4,0.9,0.9v8.4H12.4
	v-8.4C12.4,17.4,12.7,17,13.2,17z M17,19c-1.4,0-2.6,1.1-2.6,2.6s1.1,2.6,2.6,2.6s2.6-1.1,2.6-2.6C19.6,20.2,18.4,19,17,19z
	 M23.2,19c-1.4,0-2.6,1.1-2.6,2.6s1.1,2.6,2.6,2.6s2.6-1.1,2.6-2.6C25.7,20.2,24.6,19,23.2,19z M27.8,19v5.1h29.8V19H27.8z
	 M29.8,21.1h25.7v1H29.8V21.1z"/>
<path class="st0" d="M37.3,32.4c-0.3,0-0.5,0.3-0.6,0.6l-4.5,18c-0.1,0.4,0.1,0.8,0.5,0.9c0.1,0,0.1,0,0.2,0c0.3,0,0.6-0.2,0.7-0.6
	l4.5-18c0.1-0.4-0.1-0.8-0.5-0.9C37.5,32.4,37.4,32.4,37.3,32.4z M28.5,36.9c-0.2,0-0.4,0.1-0.5,0.2l-4.5,4.5
	c-0.3,0.3-0.3,0.8,0,1.1l4.5,4.5c0.1,0.1,0.3,0.2,0.5,0.2s0.4-0.1,0.5-0.2c0.3-0.3,0.3-0.8,0-1.1l-4-4l4-4c0.3-0.3,0.3-0.8,0-1.1
	C28.8,37,28.6,36.9,28.5,36.9z M42,36.9c-0.2,0-0.4,0.1-0.5,0.2c-0.3,0.3-0.3,0.8,0,1.1l4,4l-4,4c-0.3,0.3-0.3,0.8,0,1.1
	c0.1,0.1,0.3,0.2,0.5,0.2c0.2,0,0.4-0.1,0.5-0.2l4.5-4.5c0.3-0.3,0.3-0.8,0-1.1l-4.5-4.5C42.3,37,42.2,36.9,42,36.9z"/>
</svg>
