<?xml version="1.0" encoding="utf-8"?>
<!-- Generator: Adobe Illustrator 23.1.1, SVG Export Plug-In . SVG Version: 6.00 Build 0)  -->
<svg version="1.1" id="Layer_1" xmlns="http://www.w3.org/2000/svg" xmlns:xlink="http://www.w3.org/1999/xlink" x="0px" y="0px"
	 viewBox="0 0 72 72" style="enable-background:new 0 0 72 72;" xml:space="preserve">
<style type="text/css">
	.st0{fill:#2D2B2B;}
	.st1{fill:none;}
</style>
<g>
	<path class="st0" d="M38.6,35.7c0.4,0.4,1,0.4,1.5,0c0.4-0.4,0.4-1,0-1.5L36,30.1c-0.2-0.2-0.5-0.3-0.7-0.3c-0.3,0-0.6,0.1-0.7,0.3
		l-4.1,4.1c-0.4,0.4-0.4,1,0,1.5c0.4,0.4,1,0.4,1.5,0l2.4-2.4v13h2v-13L38.6,35.7z"/>
	<path class="st0" d="M34.3,50.4c0,0.6,0.5,1,1,1s1-0.5,1-1v-4.1h-2L34.3,50.4L34.3,50.4z"/>
</g>
<g>
	<path class="st1" d="M40.5,25c0,0.8,0.6,1.5,1.5,1.5h6.7l-8.1-8.1V25z"/>
	<path class="st0" d="M23.8,15.6c-1.7,0-3.1,1.4-3.1,3.1v34.7c0,2,1.7,3.7,3.8,3.7h7.7v-1.8h-7.7c-1,0-1.9-0.8-1.9-1.9V18.8
		c0-0.8,0.6-1.3,1.3-1.3h15.3v-1.8H23.8z"/>
	<path class="st0" d="M51.1,26.3L40.7,15.9c-0.1-0.1-0.4-0.3-0.6-0.3h-0.3c-0.1,0-0.1,0-0.3,0c-0.1,0-0.1,0-0.1,0h-2.2v1.8h1.5V25
		c0,1.8,1.5,3.3,3.3,3.3h7.5v25.2c0,1-0.8,1.9-1.9,1.9H30.8v1.8h16.7c2,0,3.8-1.7,3.8-3.8V27.5c0-0.1,0-0.3,0-0.3v-0.3
		C51.3,26.7,51.3,26.4,51.1,26.3z M42,26.5c-0.8,0-1.5-0.6-1.5-1.5v-6.8l8.1,8.1L42,26.5L42,26.5z"/>
</g>
</svg>
