<svg width="20" height="21" viewBox="0 0 20 21" fill="none" xmlns="http://www.w3.org/2000/svg">
<path d="M8.11198 15.5977H2.25911C1.84203 15.5977 1.50391 15.2595 1.50391 14.8424V2.75911C1.50391 2.34203 1.84203 2.00391 2.25911 2.00391H14.3424C14.7595 2.00391 15.0977 2.34203 15.0977 2.75911V8.61198" stroke="#A0B0C0" stroke-width="1.5" stroke-linecap="round" stroke-linejoin="round" stroke-dasharray="3 3"/>
<path d="M11.0148 11.8587L13.2049 18.8534C13.2333 18.944 13.284 19.0259 13.3523 19.0918C13.4207 19.1577 13.5044 19.2054 13.5959 19.2304C13.6875 19.2556 13.7839 19.2573 13.8763 19.2355C13.9686 19.2137 14.0541 19.169 14.1247 19.1057L15.2817 15.853L18.4929 15.1733C18.5624 15.1107 18.6153 15.0318 18.6469 14.9438C18.6785 14.8557 18.6878 14.7612 18.674 14.6687C18.6601 14.5762 18.6235 14.4885 18.5676 14.4136C18.5116 14.3386 18.4379 14.2787 18.3532 14.2391L11.7957 11.1782C11.6963 11.1318 11.5856 11.1152 11.4769 11.1305C11.3683 11.1458 11.2665 11.1923 11.1838 11.2644C11.1011 11.3364 11.0411 11.431 11.0111 11.5365C10.9811 11.6419 10.9824 11.7539 11.0148 11.8587Z" stroke="#A0B0C0" stroke-width="1.5" stroke-linecap="round" stroke-linejoin="round"/>
</svg>
