<svg width="20" height="21" viewBox="0 0 20 21" fill="none" xmlns="http://www.w3.org/2000/svg">
<path d="M6.66658 16.3335L9.99992 19.6668M9.99992 19.6668L13.3333 16.3335M9.99992 19.6668V13.8335M4.16658 19.6668H2.49992C1.57909 19.6668 0.833252 18.921 0.833252 18.0002V3.00016C0.833252 2.07933 1.57909 1.3335 2.49992 1.3335H5.83325M15.8333 19.6668H17.4999C18.4208 19.6668 19.1666 18.921 19.1666 18.0002V15.5002" stroke="#A0B0C0" stroke-width="1.5" stroke-miterlimit="10" stroke-linecap="round" stroke-linejoin="round"/>
<path d="M8.75 11.3335H16.6952L18.3333 8.8335H9.97145" stroke="#A0B0C0" stroke-width="1.5" stroke-linecap="round" stroke-linejoin="round"/>
<path d="M14.7718 8.8335H18.3335L14.3952 1.3335H10.8335C10.9963 1.63565 14.7718 8.8335 14.7718 8.8335Z" stroke="#A0B0C0" stroke-width="1.5" stroke-linecap="round" stroke-linejoin="round"/>
<path d="M10.6801 1.3335L6.66675 8.11632L8.49712 11.3335C8.49712 11.3335 12.329 4.77289 12.5001 4.49511" stroke="#A0B0C0" stroke-width="1.5" stroke-linecap="round" stroke-linejoin="round"/>
</svg>
