<?xml version="1.0" encoding="utf-8"?>
<!-- Generator: Adobe Illustrator 23.1.1, SVG Export Plug-In . SVG Version: 6.00 Build 0)  -->
<svg version="1.1" id="Layer_1" xmlns="http://www.w3.org/2000/svg" xmlns:xlink="http://www.w3.org/1999/xlink" x="0px" y="0px"
	 viewBox="0 0 72 72" style="enable-background:new 0 0 72 72;" xml:space="preserve">
<style type="text/css">
	.st0{fill:#2D2B2B;}
</style>
<g>
	<path class="st0" d="M34.9,25.5c-1.7,0-3.1,1.4-3.1,3.1v9.9c0,1.6,1.4,3,3,3h1.8c-0.1,0.3-0.1,0.8-0.2,1c-0.2,0.4-0.5,0.8-1.2,1.2
		c-0.4,0.2-0.6,0.7-0.4,1.1c0.1,0.4,0.5,0.7,1,0.7c1.2,0,2.6-0.2,3.9-0.9c1.1-0.6,2-1.7,2.7-3.1h7.4c1.6,0,3-1.4,3-3v-9.9
		c0-1.7-1.4-3.1-3.1-3.1H34.9z M34.9,27.5h14.8c0.6,0,1.1,0.5,1.1,1.1v9.9c0,0.7-0.3,1-1,1h-8c-0.4,0-0.8,0.3-0.9,0.7
		c-0.5,1.4-1.3,2.2-2.2,2.7c-0.1,0.1-0.2,0-0.3,0.1c0.3-0.7,0.4-1.5,0.4-2.4c0-0.6-0.4-1-1-1h-3c-0.7,0-1-0.3-1-1v-9.9
		C33.8,28,34.3,27.5,34.9,27.5z"/>
	<g>
		<path class="st0" d="M43.3,43.4V50h-22V21h22v3.1h2v-3.9c0-0.1,0-0.3,0-0.4V17c0-1.6-1.4-3-3-3h-20c-1.6,0-3,1.4-3,3v2.7
			c-0.1,0.2-0.1,0.4,0,0.6v30.2c-0.1,0.3-0.1,0.6,0,0.9V55c0,1.6,1.4,3,3,3h20c1.6,0,3-1.4,3-3v-3.8c0-0.1,0-0.3,0-0.4v-7.4H43.3z
			 M21.3,17c0-0.6,0.4-1,1-1h20c0.6,0,1,0.4,1,1v2h-22V17z M43.3,55c0,0.6-0.4,1-1,1h-20c-0.6,0-1-0.4-1-1v-3h22V55z"/>
		<path class="st0" d="M29.3,55h6c0.4,0,0.7-0.2,0.9-0.5c0.2-0.3,0.2-0.7,0-1C36,53.2,35.7,53,35.3,53h-6c0,0-0.1,0-0.1,0
			s-0.1,0-0.1,0S29,53,29,53c-0.6,0.1-0.9,0.6-0.9,1.1S28.7,55.1,29.3,55z"/>
	</g>
</g>
</svg>
