<?xml version="1.0" encoding="utf-8"?>
<!-- Generator: Adobe Illustrator 23.1.1, SVG Export Plug-In . SVG Version: 6.00 Build 0)  -->
<svg version="1.1" id="Layer_1" xmlns="http://www.w3.org/2000/svg" xmlns:xlink="http://www.w3.org/1999/xlink" x="0px" y="0px"
	 viewBox="0 0 72 72" style="enable-background:new 0 0 72 72;" xml:space="preserve">
<style type="text/css">
	.st0{fill:#2D2B2B;}
</style>
<g>
	<path class="st0" d="M64.93,31.86h-5.1v2.49h5.1c1.33,0,2.4,1.08,2.4,2.4v13.95c0,1.33-1.08,2.4-2.4,2.4H7.07
		c-1.33,0-2.4-1.08-2.4-2.4V36.76c0-1.33,1.08-2.4,2.4-2.4h27.28v-2.49H7.07c-2.69,0-4.9,2.21-4.9,4.9v13.95
		c0,2.69,2.21,4.9,4.9,4.9h57.86c2.69,0,4.9-2.21,4.9-4.9V36.76C69.83,34.07,67.63,31.86,64.93,31.86z"/>
	<path class="st0" d="M15.06,39.74c-2.57,0-4.66,2.08-4.66,4.66c0,2.57,2.08,4.66,4.66,4.66s4.66-2.08,4.66-4.66
		C19.71,41.82,17.64,39.74,15.06,39.74z M29.02,39.74c-2.57,0-4.66,2.08-4.66,4.66c0,2.57,2.08,4.66,4.66,4.66s4.66-2.08,4.66-4.66
		C33.67,41.82,31.6,39.74,29.02,39.74z M42.98,39.74c-2.57,0-4.66,2.08-4.66,4.66c0,2.57,2.08,4.66,4.66,4.66
		c2.57,0,4.66-2.08,4.66-4.66C47.63,41.82,45.56,39.74,42.98,39.74z M56.94,39.74c-2.57,0-4.66,2.08-4.66,4.66
		c0,2.57,2.08,4.66,4.66,4.66c2.57,0,4.66-2.08,4.66-4.66C61.6,41.82,59.53,39.74,56.94,39.74z"/>
	<path class="st0" d="M47.04,16.38c-4.11,0-7.42,3.31-7.42,7.42v1.24c-1.35,0-2.47,1.12-2.47,2.47v7.37c0,1.35,1.12,2.47,2.47,2.47
		h14.85c1.35,0,2.47-1.12,2.47-2.47v-7.37c0-1.35-1.12-2.47-2.47-2.47V23.8C54.47,19.69,51.15,16.38,47.04,16.38z M47.04,18.86
		c2.82,0,4.95,2.14,4.95,4.95v1.24h-9.9V23.8C42.09,20.98,44.22,18.86,47.04,18.86z M39.62,27.52h14.85v7.37H39.62V27.52z"/>
</g>
</svg>
