<svg width="20" height="21" viewBox="0 0 20 21" fill="none" xmlns="http://www.w3.org/2000/svg">
<path d="M14.25 17.6651V19.0254M14.25 17.6651C16.2174 17.6651 17.8125 16.041 17.8125 14.0378V11.7708H10.6875V14.0378C10.6875 16.041 12.2826 17.6651 14.25 17.6651ZM12.4688 9.05029V11.7708M16.0313 9.05029V11.7708" stroke="#A0B0C0" stroke-width="1.5" stroke-miterlimit="10" stroke-linecap="round" stroke-linejoin="round"/>
<path d="M8.00965 4.52955H5.35608C4.62332 4.52955 4.0293 3.93552 4.0293 3.20276C4.0293 2.47 4.62332 1.87598 5.35608 1.87598H8.00965C8.74241 1.87598 9.33644 2.47 9.33644 3.20276C9.33644 3.93552 8.74241 4.52955 8.00965 4.52955Z" stroke="#A0B0C0" stroke-width="1.5" stroke-linecap="round" stroke-linejoin="round"/>
<path d="M4.02955 3.20264H2.70276C1.97 3.20264 1.37598 3.79667 1.37598 4.52942V13.8169C1.37598 14.5497 1.97 15.1437 2.70276 15.1437H6.68312" stroke="#A0B0C0" stroke-width="1.5" stroke-linecap="round" stroke-linejoin="round"/>
<path d="M9.33643 3.20264H10.6632C11.396 3.20264 11.99 3.79667 11.99 4.52942V5.85621" stroke="#A0B0C0" stroke-width="1.5" stroke-linecap="round" stroke-linejoin="round"/>
</svg>