<svg width="20" height="21" viewBox="0 0 20 21" fill="none" xmlns="http://www.w3.org/2000/svg">
<path d="M0.295898 7.1665C0.240898 7.1665 0.195898 7.149 0.160898 7.114C0.125898 7.079 0.108398 7.034 0.108398 6.979V2.104C0.108398 2.049 0.125898 2.004 0.160898 1.969C0.195898 1.934 0.240898 1.9165 0.295898 1.9165H1.2634C1.3184 1.9165 1.3634 1.934 1.3984 1.969C1.4334 2.004 1.4509 2.049 1.4509 2.104V3.9115H3.3034V2.104C3.3034 2.049 3.3209 2.004 3.3559 1.969C3.3909 1.934 3.4359 1.9165 3.4909 1.9165H4.4584C4.5134 1.9165 4.5584 1.934 4.5934 1.969C4.6284 2.004 4.6459 2.049 4.6459 2.104V6.979C4.6459 7.034 4.6284 7.079 4.5934 7.114C4.5584 7.149 4.5134 7.1665 4.4584 7.1665H3.4909C3.4359 7.1665 3.3909 7.149 3.3559 7.114C3.3209 7.079 3.3034 7.034 3.3034 6.979V5.1115H1.4509V6.979C1.4509 7.034 1.4334 7.079 1.3984 7.114C1.3634 7.149 1.3184 7.1665 1.2634 7.1665H0.295898Z" fill="#A0B0C0"/>
<path d="M6.88928 7.1665C6.83428 7.1665 6.78928 7.149 6.75428 7.114C6.71928 7.079 6.70178 7.034 6.70178 6.979V3.094H5.36678C5.31178 3.094 5.26678 3.0765 5.23178 3.0415C5.19678 3.0015 5.17928 2.9565 5.17928 2.9065V2.104C5.17928 2.049 5.19678 2.004 5.23178 1.969C5.26678 1.934 5.31178 1.9165 5.36678 1.9165H9.40178C9.45678 1.9165 9.50178 1.934 9.53678 1.969C9.57178 2.004 9.58928 2.049 9.58928 2.104V2.9065C9.58928 2.9565 9.57178 3.0015 9.53678 3.0415C9.50178 3.0765 9.45678 3.094 9.40178 3.094H8.06678V6.979C8.06678 7.034 8.04928 7.079 8.01428 7.114C7.97928 7.149 7.93428 7.1665 7.87928 7.1665H6.88928Z" fill="#A0B0C0"/>
<path d="M10.3084 7.1665C10.2584 7.1665 10.2134 7.149 10.1734 7.114C10.1384 7.079 10.1209 7.034 10.1209 6.979V2.104C10.1209 2.049 10.1384 2.004 10.1734 1.969C10.2134 1.934 10.2584 1.9165 10.3084 1.9165H11.1184C11.1984 1.9165 11.2584 1.939 11.2984 1.984C11.3434 2.024 11.3709 2.0565 11.3809 2.0815L12.7009 4.4515L14.0209 2.0815C14.0359 2.0565 14.0609 2.024 14.0959 1.984C14.1359 1.939 14.1984 1.9165 14.2834 1.9165H15.0859C15.1409 1.9165 15.1859 1.934 15.2209 1.969C15.2609 2.004 15.2809 2.049 15.2809 2.104V6.979C15.2809 7.034 15.2609 7.079 15.2209 7.114C15.1859 7.149 15.1409 7.1665 15.0859 7.1665H14.1934C14.1384 7.1665 14.0909 7.149 14.0509 7.114C14.0159 7.079 13.9984 7.034 13.9984 6.979V4.1665L13.1509 5.734C13.1309 5.779 13.1009 5.819 13.0609 5.854C13.0209 5.889 12.9659 5.9065 12.8959 5.9065H12.5059C12.4359 5.9065 12.3809 5.889 12.3409 5.854C12.3009 5.819 12.2684 5.779 12.2434 5.734L11.3959 4.1665V6.979C11.3959 7.034 11.3784 7.079 11.3434 7.114C11.3084 7.149 11.2634 7.1665 11.2084 7.1665H10.3084Z" fill="#A0B0C0"/>
<path d="M16.362 7.1665C16.307 7.1665 16.262 7.149 16.227 7.114C16.192 7.079 16.1745 7.034 16.1745 6.979V2.104C16.1745 2.049 16.192 2.004 16.227 1.969C16.262 1.934 16.307 1.9165 16.362 1.9165H17.352C17.402 1.9165 17.4445 1.934 17.4795 1.969C17.5195 2.004 17.5395 2.049 17.5395 2.104V6.034H19.8045C19.8595 6.034 19.9045 6.054 19.9395 6.094C19.9795 6.129 19.9995 6.174 19.9995 6.229V6.979C19.9995 7.034 19.9795 7.079 19.9395 7.114C19.9045 7.149 19.8595 7.1665 19.8045 7.1665H16.362Z" fill="#A0B0C0"/>
<path d="M13 12.5L10 15.5M10 15.5L7 18.5M10 15.5L13 18.5M10 15.5L7 12.5" stroke="#A0B0C0" stroke-width="1.5" stroke-miterlimit="10" stroke-linecap="round" stroke-linejoin="round"/>
</svg>
