<svg width="20" height="21" viewBox="0 0 20 21" fill="none" xmlns="http://www.w3.org/2000/svg">
<path d="M10.0539 2.24466H12.2196C13.034 2.24466 13.7002 2.91092 13.7002 3.72523V6.68636M15.4769 2.24463H17.6428C18.4571 2.24463 19.1234 2.91089 19.1234 3.7252V6.68633M19.1234 6.68633V8.94114M19.1234 6.68633L8.20311 6.68635M8.20311 6.68635V3.72523C8.20311 2.91092 7.53687 2.24466 6.72256 2.24466H2.28085C1.46655 2.24466 0.800293 2.91092 0.800293 3.72523V6.68633M8.20311 6.68635L0.800293 6.68633M0.800293 6.68633V17.2745C0.800293 18.0888 1.46655 18.755 2.28085 18.755H8.29516" stroke="#A0B0C0" stroke-width="1.5" stroke-miterlimit="10" stroke-linecap="round" stroke-linejoin="round"/>
<path d="M11.6666 15.0832H19.1666M19.1666 15.0832L16.261 12.1665M19.1666 15.0832L16.261 17.9998" stroke="#A0B0C0" stroke-width="1.5" stroke-linecap="round" stroke-linejoin="round"/>
</svg>
