<?xml version="1.0" encoding="utf-8"?>
<!-- Generator: Adobe Illustrator 23.1.1, SVG Export Plug-In . SVG Version: 6.00 Build 0)  -->
<svg version="1.1" id="Layer_1" xmlns="http://www.w3.org/2000/svg" xmlns:xlink="http://www.w3.org/1999/xlink" x="0px" y="0px"
	 viewBox="0 0 72 72" style="enable-background:new 0 0 72 72;" xml:space="preserve">
<style type="text/css">
	.st0{fill:#2D2B2B;}
</style>
<g>
	<g>
		<path class="st0" d="M13.3,14.9c-1.6,0-2.9,1.3-2.9,2.9V27c0,0.1,0,0.1,0,0.2V56c0,0.6,0.5,1,1,1h41.2c0.4,0,0.7-0.2,0.9-0.5
			c0.2-0.3,0.2-0.7,0-1C53.2,55.2,53,55,52.6,55H12.5V28.3h47.3V55H41.2c-0.4,0-0.7,0.2-0.9,0.5c-0.2,0.3-0.2,0.7,0,1
			c0.2,0.3,0.5,0.5,0.9,0.5h19.5c0.6,0,1-0.5,1-1V27.3c0-0.1,0-0.1,0-0.2v-9.2c0-1.6-1.3-2.9-2.9-2.9C58.8,14.9,13.3,14.9,13.3,14.9
			z M13.3,17h45.5c0.5,0,0.9,0.4,0.9,0.9v8.4H12.5V18C12.5,17.5,12.8,17,13.3,17z M17.1,19c-1.4,0-2.6,1.1-2.6,2.6s1.1,2.6,2.6,2.6
			s2.6-1.1,2.6-2.6C19.7,20.2,18.5,19,17.1,19z M23.3,19c-1.4,0-2.6,1.1-2.6,2.6s1.1,2.6,2.6,2.6s2.6-1.1,2.6-2.6
			C25.8,20.2,24.7,19,23.3,19z M27.9,19v5.1h29.8V19H27.9z M29.9,21.2h25.7v1H29.9V21.2z"/>
	</g>
	<path class="st0" d="M36,30.2c-4.1,0-7.6,2.2-9.5,5.5h2.2c1-1.3,2.2-2.3,3.7-2.9c-0.5,0.8-0.9,1.8-1.2,2.9h1.9
		C33.9,33.4,35,32,36,32s2.1,1.4,2.9,3.7h1.9c-0.3-1.1-0.7-2.1-1.2-2.9c1.5,0.6,2.8,1.7,3.7,2.9h2.2C43.6,32.4,40.1,30.2,36,30.2z
		 M24.3,38.4l1.4,5.5H27l0.9-3.4H28l0.9,3.4h1.3l1.4-5.5h-1.4l-0.7,3.6h-0.1l-0.9-3.6h-1.1l-0.9,3.6h-0.1l-0.7-3.6H24.3z M32.3,38.4
		l1.4,5.5h1.3l0.9-3.4H36l0.9,3.4h1.3l1.4-5.5h-1.4l-0.7,3.6h-0.1l-0.9-3.6h-1.1l-0.9,3.6h-0.1l-0.7-3.6H32.3z M40.3,38.4l1.4,5.5
		h1.3l0.9-3.4h0.1l0.9,3.4h1.3l1.4-5.5h-1.4l-0.7,3.6h-0.1l-0.9-3.6h-1.1l-0.9,3.6h-0.1l-0.7-3.6H40.3z M26.5,46.7
		c1.9,3.3,5.4,5.5,9.5,5.5s7.6-2.2,9.5-5.5h-2.2c-1,1.3-2.2,2.3-3.7,2.9c0.5-0.8,0.9-1.8,1.2-2.9h-1.9c-0.7,2.3-1.8,3.7-2.9,3.7
		s-2.1-1.4-2.9-3.7h-1.9c0.3,1.1,0.7,2.1,1.2,2.9c-1.5-0.6-2.8-1.7-3.7-2.9H26.5z"/>
</g>
</svg>
