<svg width="20" height="21" viewBox="0 0 20 21" fill="none" xmlns="http://www.w3.org/2000/svg">
<path d="M18.4508 17.1319C18.5542 17.3385 18.6031 17.5682 18.5927 17.7991C18.5824 18.0299 18.5132 18.2543 18.3917 18.4508C18.2703 18.6474 18.1005 18.8096 17.8986 18.9222C17.6968 19.0347 17.4696 19.0937 17.2385 19.0936H10.7821C10.551 19.0937 10.3238 19.0347 10.122 18.9222C9.92006 18.8096 9.75032 18.6474 9.62886 18.4508C9.5074 18.2543 9.43819 18.0299 9.42788 17.7991C9.41749 17.5682 9.46638 17.3385 9.56981 17.1319L12.798 10.6763C12.9105 10.4511 13.0835 10.2616 13.2977 10.1293C13.5118 9.99688 13.7585 9.92676 14.0103 9.92676C14.2621 9.92676 14.5088 9.99688 14.7229 10.1293C14.937 10.2616 15.1101 10.4511 15.2226 10.6763L18.4508 17.1319Z" fill="#A0B0C0" stroke="#A0B0C0" stroke-width="1.5" stroke-linecap="round" stroke-linejoin="round"/>
<path d="M14.0103 17.3752C13.8521 17.3752 13.7239 17.2469 13.7239 17.0887C13.7239 16.9305 13.8521 16.8022 14.0103 16.8022" stroke="white" stroke-width="1.5"/>
<path d="M14.0105 17.3752C14.1687 17.3752 14.297 17.2469 14.297 17.0887C14.297 16.9305 14.1687 16.8022 14.0105 16.8022" stroke="white" stroke-width="1.5"/>
<path d="M14.0105 14.6665V12.7915" stroke="white" stroke-width="1.5" stroke-linecap="round" stroke-linejoin="round"/>
<path d="M19.1666 9.60273V5.56427C19.1666 3.22768 17.2724 1.3335 14.9358 1.3335H5.06402C2.72743 1.3335 0.833252 3.22768 0.833252 5.56427V12.9361C0.833252 15.2726 2.72743 17.1668 5.06402 17.1668" stroke="#A0B0C0" stroke-width="1.5" stroke-linecap="round" stroke-linejoin="round"/>
</svg>
