<svg width="20" height="21" viewBox="0 0 20 21" fill="none" xmlns="http://www.w3.org/2000/svg">
<path d="M16.6286 9.7833C16.1775 9.7833 15.8003 9.70552 15.4969 9.54997C15.2014 9.39441 14.9564 9.19608 14.7619 8.95497V9.38663C14.7619 9.46441 14.7347 9.53052 14.6803 9.58497C14.6336 9.63941 14.5675 9.66663 14.4819 9.66663H13.5603C13.4825 9.66663 13.4164 9.63941 13.3619 9.58497C13.3075 9.53052 13.2803 9.46441 13.2803 9.38663V1.6633C13.2803 1.58552 13.3075 1.51941 13.3619 1.46497C13.4164 1.41052 13.4825 1.3833 13.5603 1.3833H14.5519C14.6375 1.3833 14.7036 1.41052 14.7503 1.46497C14.8047 1.51941 14.8319 1.58552 14.8319 1.6633V4.2533C15.0264 4.02775 15.2675 3.84497 15.5553 3.70497C15.8508 3.55719 16.2086 3.4833 16.6286 3.4833C17.0408 3.4833 17.3986 3.5533 17.7019 3.6933C18.0053 3.8333 18.2581 4.03163 18.4603 4.2883C18.6703 4.53719 18.8297 4.82886 18.9386 5.1633C19.0475 5.49775 19.1058 5.85941 19.1136 6.2483C19.1214 6.3883 19.1253 6.51663 19.1253 6.6333C19.1253 6.74219 19.1214 6.86663 19.1136 7.00663C19.0981 7.41108 19.0358 7.78441 18.9269 8.12664C18.8181 8.46108 18.6625 8.75275 18.4603 9.00163C18.2581 9.25052 18.0053 9.44497 17.7019 9.58497C17.3986 9.71719 17.0408 9.7833 16.6286 9.7833ZM16.1969 8.53497C16.5314 8.53497 16.7919 8.46497 16.9786 8.32497C17.1653 8.17719 17.2975 7.98663 17.3753 7.7533C17.4608 7.51997 17.5114 7.2633 17.5269 6.9833C17.5425 6.74997 17.5425 6.51663 17.5269 6.2833C17.5114 6.0033 17.4608 5.74663 17.3753 5.5133C17.2975 5.27997 17.1653 5.0933 16.9786 4.9533C16.7919 4.80552 16.5314 4.73163 16.1969 4.73163C15.8858 4.73163 15.6331 4.80163 15.4386 4.94163C15.2442 5.08163 15.0964 5.26052 14.9953 5.4783C14.8942 5.6883 14.8397 5.90997 14.8319 6.1433C14.8242 6.2833 14.8203 6.43497 14.8203 6.5983C14.8203 6.75386 14.8242 6.90163 14.8319 7.04163C14.8475 7.28275 14.8981 7.51997 14.9836 7.7533C15.0769 7.97886 15.2208 8.16552 15.4153 8.3133C15.6175 8.46108 15.8781 8.53497 16.1969 8.53497Z" fill="#A0B0C0"/>
<path d="M8.36488 9.7834C7.96043 9.7834 7.59488 9.70562 7.26821 9.55006C6.94154 9.38673 6.68099 9.17284 6.48654 8.9084C6.29988 8.63618 6.20654 8.33284 6.20654 7.9984C6.20654 7.45395 6.42432 7.02229 6.85988 6.7034C7.30321 6.37673 7.88654 6.15895 8.60988 6.05006L10.2082 5.81673V5.57173C10.2082 5.24506 10.1265 4.99229 9.96321 4.8134C9.79988 4.63451 9.51988 4.54507 9.12321 4.54507C8.84321 4.54507 8.61376 4.6034 8.43488 4.72006C8.26377 4.82895 8.13543 4.97673 8.04988 5.1634C7.98765 5.26451 7.89821 5.31507 7.78154 5.31507H6.85988C6.77432 5.31507 6.70821 5.29173 6.66154 5.24507C6.62265 5.1984 6.60321 5.13618 6.60321 5.0584C6.61099 4.93395 6.66154 4.78229 6.75488 4.6034C6.84821 4.42451 6.99599 4.2534 7.19821 4.09006C7.40043 3.91895 7.66099 3.77506 7.97988 3.6584C8.29877 3.54173 8.68377 3.4834 9.13488 3.4834C9.62488 3.4834 10.0371 3.54562 10.3715 3.67007C10.7138 3.78673 10.986 3.94618 11.1882 4.1484C11.3904 4.35062 11.5382 4.58784 11.6315 4.86006C11.7249 5.13229 11.7715 5.42007 11.7715 5.7234V9.38673C11.7715 9.46451 11.7443 9.53062 11.6899 9.58507C11.6354 9.63951 11.5693 9.66673 11.4915 9.66673H10.5465C10.461 9.66673 10.391 9.63951 10.3365 9.58507C10.2899 9.53062 10.2665 9.46451 10.2665 9.38673V8.93173C10.1654 9.07951 10.0293 9.21951 9.85821 9.35173C9.6871 9.47618 9.4771 9.58118 9.22821 9.66673C8.9871 9.74451 8.69932 9.7834 8.36488 9.7834ZM8.76154 8.67507C9.03377 8.67507 9.27876 8.61673 9.49654 8.50007C9.7221 8.3834 9.8971 8.20451 10.0215 7.9634C10.1538 7.71451 10.2199 7.4034 10.2199 7.03006V6.78506L9.05321 6.97173C8.59432 7.04173 8.2521 7.15451 8.02654 7.31007C7.80099 7.46562 7.68821 7.65618 7.68821 7.88173C7.68821 8.05284 7.73877 8.20062 7.83988 8.32507C7.94877 8.44173 8.08488 8.53118 8.24821 8.5934C8.41154 8.64784 8.58265 8.67507 8.76154 8.67507Z" fill="#A0B0C0"/>
<path d="M15.5201 19.7833C15.1157 19.7833 14.7579 19.7172 14.4468 19.585C14.1434 19.445 13.8907 19.2505 13.6884 19.0016C13.4862 18.7527 13.3307 18.4611 13.2218 18.1266C13.1129 17.7844 13.0507 17.4111 13.0351 17.0066C13.0273 16.8666 13.0234 16.7422 13.0234 16.6333C13.0234 16.5166 13.0273 16.3883 13.0351 16.2483C13.0507 15.8594 13.109 15.4977 13.2101 15.1633C13.319 14.8289 13.4745 14.5372 13.6768 14.2883C13.8868 14.0316 14.1434 13.8333 14.4468 13.6933C14.7579 13.5533 15.1157 13.4833 15.5201 13.4833C15.9401 13.4833 16.294 13.5572 16.5818 13.705C16.8773 13.845 17.1223 14.0277 17.3168 14.2533V11.6633C17.3168 11.5855 17.3401 11.5194 17.3868 11.465C17.4412 11.4105 17.5112 11.3833 17.5968 11.3833H18.5884C18.6662 11.3833 18.7323 11.4105 18.7868 11.465C18.8412 11.5194 18.8684 11.5855 18.8684 11.6633V19.3866C18.8684 19.4644 18.8412 19.5305 18.7868 19.585C18.7323 19.6394 18.6662 19.6666 18.5884 19.6666H17.6668C17.5812 19.6666 17.5112 19.6394 17.4568 19.585C17.4101 19.5305 17.3868 19.4644 17.3868 19.3866V18.955C17.1923 19.1961 16.9434 19.3944 16.6401 19.55C16.3445 19.7055 15.9712 19.7833 15.5201 19.7833ZM15.9518 18.535C16.2784 18.535 16.539 18.4611 16.7334 18.3133C16.9279 18.1655 17.0718 17.9789 17.1651 17.7533C17.2584 17.52 17.309 17.2827 17.3168 17.0416C17.3245 16.9016 17.3284 16.7539 17.3284 16.5983C17.3284 16.435 17.3245 16.2833 17.3168 16.1433C17.309 15.91 17.2545 15.6883 17.1534 15.4783C17.0523 15.2605 16.9045 15.0816 16.7101 14.9416C16.5157 14.8016 16.2629 14.7316 15.9518 14.7316C15.6251 14.7316 15.3645 14.8055 15.1701 14.9533C14.9834 15.0933 14.8473 15.28 14.7618 15.5133C14.6762 15.7466 14.6257 16.0033 14.6101 16.2833C14.6023 16.5166 14.6023 16.75 14.6101 16.9833C14.6257 17.2633 14.6762 17.52 14.7618 17.7533C14.8473 17.9866 14.9834 18.1772 15.1701 18.325C15.3645 18.465 15.6251 18.535 15.9518 18.535Z" fill="#A0B0C0"/>
<path d="M9.2284 19.7834C8.6684 19.7834 8.17451 19.6784 7.74673 19.4684C7.32673 19.2584 6.99618 18.9551 6.75507 18.5584C6.52173 18.154 6.3934 17.6678 6.37007 17.1001C6.36229 16.9834 6.3584 16.8317 6.3584 16.6451C6.3584 16.4506 6.36229 16.2912 6.37007 16.1667C6.3934 15.599 6.52173 15.1167 6.75507 14.7201C6.99618 14.3156 7.32673 14.0084 7.74673 13.7984C8.17451 13.5884 8.6684 13.4834 9.2284 13.4834C9.72618 13.4834 10.1501 13.5534 10.5001 13.6934C10.8501 13.8334 11.1378 14.0084 11.3634 14.2184C11.589 14.4284 11.7562 14.6501 11.8651 14.8834C11.9817 15.109 12.044 15.3151 12.0517 15.5017C12.0595 15.5873 12.0323 15.6573 11.9701 15.7117C11.9156 15.7584 11.8495 15.7817 11.7717 15.7817H10.7451C10.6673 15.7817 10.6051 15.7623 10.5584 15.7234C10.5195 15.6845 10.4806 15.6262 10.4417 15.5484C10.3251 15.2373 10.1695 15.0195 9.97506 14.8951C9.7884 14.7628 9.54729 14.6967 9.25173 14.6967C8.86284 14.6967 8.55173 14.8212 8.3184 15.0701C8.09284 15.3112 7.97229 15.6962 7.95673 16.2251C7.94118 16.5206 7.94118 16.7928 7.95673 17.0417C7.97229 17.5784 8.09284 17.9673 8.3184 18.2084C8.55173 18.4495 8.86284 18.5701 9.25173 18.5701C9.55506 18.5701 9.80006 18.5078 9.98673 18.3834C10.1734 18.2512 10.3251 18.0295 10.4417 17.7184C10.4806 17.6406 10.5195 17.5823 10.5584 17.5434C10.6051 17.5045 10.6673 17.4851 10.7451 17.4851H11.7717C11.8495 17.4851 11.9156 17.5123 11.9701 17.5667C12.0323 17.6134 12.0595 17.6795 12.0517 17.7651C12.044 17.9051 12.0051 18.0645 11.9351 18.2434C11.8728 18.4145 11.7678 18.5934 11.6201 18.7801C11.4801 18.959 11.3012 19.1262 11.0834 19.2817C10.8656 19.4295 10.6012 19.5501 10.2901 19.6434C9.98673 19.7367 9.63284 19.7834 9.2284 19.7834Z" fill="#A0B0C0"/>
<path d="M3.3335 6.5H2.8335C1.72893 6.5 0.833496 7.39543 0.833496 8.5V15.4992C0.833496 16.6041 1.72941 17.4996 2.8343 17.4992L3.3335 17.499" stroke="#A0B0C0" stroke-width="1.5" stroke-miterlimit="10" stroke-linecap="round" stroke-linejoin="round"/>
</svg>
