<svg width="20" height="21" viewBox="0 0 20 21" fill="none" xmlns="http://www.w3.org/2000/svg">
<path d="M10.7184 11.0192C10.7184 12.3723 9.62146 13.4692 8.26836 13.4692H3.99785C2.64475 13.4692 1.54785 12.3723 1.54785 11.0192V4.14922C1.54785 2.79612 2.64475 1.69922 3.99785 1.69922H12.6664C14.0195 1.69922 15.1164 2.79612 15.1164 4.14922V4.82505M10.7145 11.3342V9.98255C10.7145 8.62945 11.8114 7.53255 13.1645 7.53255H15.9998C17.3529 7.53255 18.4498 8.62945 18.4498 9.98255V16.8526C18.4498 18.2057 17.3529 19.3026 15.9998 19.3026H7.33118C5.97809 19.3026 4.88119 18.2057 4.88119 16.8526V16.1767" stroke="#A0B0C0" stroke-width="1.5" stroke-linecap="round" stroke-linejoin="round"/>
</svg>
