<?xml version="1.0" encoding="utf-8"?>
<!-- Generator: Adobe Illustrator 23.1.1, SVG Export Plug-In . SVG Version: 6.00 Build 0)  -->
<svg version="1.1" id="Layer_1" xmlns="http://www.w3.org/2000/svg" xmlns:xlink="http://www.w3.org/1999/xlink" x="0px" y="0px"
	 viewBox="0 0 72 72" style="enable-background:new 0 0 72 72;" xml:space="preserve">
<style type="text/css">
	.st0{fill:#2D2B2B;}
</style>
<path class="st0" d="M42,44.3l4.7-4.7l-1.4-1.4L43,40.4v-5.6c0-1.6-1.4-3-3-3h-2c-0.6,0-1-0.4-1-1v-6h-2v6c0,0.6-0.4,1-1,1h-2
	c-1.6,0-3,1.4-3,3v5.6l-2.3-2.3l-1.4,1.4l4.7,4.7l4.7-4.7l-1.4-1.4L31,40.4v-5.6c0-0.6,0.4-1,1-1h2c0.8,0,1.5-0.3,2-0.8
	c0.5,0.5,1.2,0.8,2,0.8h2c0.6,0,1,0.4,1,1v5.6l-2.3-2.3l-1.4,1.4L42,44.3z"/>
<path class="st0" d="M57.1,13.4H14.9c-1,0-1.8,0.8-1.8,1.8v7.9c0,1,0.8,1.8,1.8,1.8h42.1c1,0,1.8-0.8,1.8-1.8v-7.9
	C58.9,14.2,58.1,13.4,57.1,13.4z M57.2,23.1c0,0.1-0.1,0.1-0.1,0.1H14.9c-0.1,0-0.1-0.1-0.1-0.1v-7.9c0-0.1,0.1-0.1,0.1-0.1h42.1
	c0.1,0,0.1,0.1,0.1,0.1V23.1z"/>
<g>
	<path class="st0" d="M66.5,47.2H39.3c-1,0-1.8,0.8-1.8,1.8v7.9c0,1,0.8,1.8,1.8,1.8h27.1c1,0,1.8-0.8,1.8-1.8V49
		C68.3,48,67.5,47.2,66.5,47.2z M66.6,56.9c0,0.1-0.1,0.1-0.1,0.1H39.3c-0.1,0-0.1-0.1-0.1-0.1V49c0-0.1,0.1-0.1,0.1-0.1h27.1
		c0.1,0,0.1,0.1,0.1,0.1V56.9z"/>
	<path class="st0" d="M32.7,47.2H5.5c-1,0-1.8,0.8-1.8,1.8v7.9c0,1,0.8,1.8,1.8,1.8h27.1c1,0,1.8-0.8,1.8-1.8V49
		C34.5,48,33.7,47.2,32.7,47.2z M32.8,56.9c0,0.1-0.1,0.1-0.1,0.1H5.5c-0.1,0-0.1-0.1-0.1-0.1V49c0-0.1,0.1-0.1,0.1-0.1h27.1
		c0.1,0,0.1,0.1,0.1,0.1V56.9z"/>
</g>
</svg>
