<svg width="20" height="21" viewBox="0 0 20 21" fill="none" xmlns="http://www.w3.org/2000/svg">
<path d="M6.66658 16.3335L9.99992 19.6668M9.99992 19.6668L13.3333 16.3335M9.99992 19.6668V13.8335M4.16658 19.6668H2.49992C1.57909 19.6668 0.833252 18.921 0.833252 18.0002V3.00016C0.833252 2.07933 1.57909 1.3335 2.49992 1.3335H8.33325M15.8333 19.6668H17.4999C18.4208 19.6668 19.1666 18.921 19.1666 18.0002V10.5002" stroke="#A0B0C0" stroke-width="1.5" stroke-miterlimit="10" stroke-linecap="round" stroke-linejoin="round"/>
<path d="M15.0592 8.40475L13.7501 9.71391C12.7017 10.7622 11.0017 10.7622 9.953 9.71391C8.90466 8.66558 8.90466 6.96558 9.953 5.91683L11.2622 4.60766M12.4409 3.42891L13.7501 2.11975C14.7984 1.07141 16.4984 1.07141 17.5472 2.11975C18.5955 3.16808 18.5955 4.86808 17.5472 5.91683L16.238 7.226M12.0834 7.5835L15.4167 4.25016" stroke="#A0B0C0" stroke-width="1.5" stroke-miterlimit="10" stroke-linecap="round" stroke-linejoin="round"/>
</svg>
