<svg width="20" height="21" viewBox="0 0 20 21" fill="none" xmlns="http://www.w3.org/2000/svg">
<path d="M5.43433 7.0625C5.43433 7.51834 5.61541 7.95551 5.93774 8.27784C6.26006 8.60017 6.69724 8.78125 7.15308 8.78125C7.60892 8.78125 8.04609 8.60017 8.36842 8.27784C8.69074 7.95551 8.87183 7.51834 8.87183 7.0625C8.87183 6.83679 8.82737 6.61329 8.74099 6.40476C8.65462 6.19623 8.52802 6.00676 8.36842 5.84716C8.20882 5.68756 8.01934 5.56096 7.81081 5.47458C7.60228 5.38821 7.37879 5.34375 7.15308 5.34375C6.92737 5.34375 6.70387 5.38821 6.49534 5.47458C6.28681 5.56096 6.09734 5.68756 5.93774 5.84716C5.77814 6.00676 5.65153 6.19623 5.56516 6.40476C5.47878 6.61329 5.43433 6.83679 5.43433 7.0625Z" stroke="#A0B0C0" stroke-width="1.5" stroke-linecap="round" stroke-linejoin="round"/>
<path d="M15.2044 15.2361L12.2061 10.7383C12.1365 10.6335 12.0423 10.5474 11.9317 10.4873C11.8211 10.4272 11.6976 10.395 11.5717 10.3936C11.4459 10.3922 11.3216 10.4215 11.2097 10.4791C11.0978 10.5366 11.0017 10.6206 10.9297 10.7238L8.87404 13.661L7.59987 12.6389C7.51623 12.5719 7.41956 12.523 7.316 12.4954C7.21245 12.4677 7.10427 12.462 6.99836 12.4784C6.89245 12.4949 6.79113 12.5332 6.70084 12.5909C6.61054 12.6487 6.53326 12.7246 6.4739 12.8138L4.86133 15.2361" stroke="#A0B0C0" stroke-width="1.5" stroke-linecap="round" stroke-linejoin="round"/>
<path d="M19.1709 16.2334V18.5251C19.1709 19.1362 18.6362 19.6709 18.0251 19.6709H15.7334" stroke="#A0B0C0" stroke-width="1.5" stroke-miterlimit="10" stroke-linecap="round" stroke-linejoin="round"/>
<path d="M15.7334 1.3335H18.0251C18.6362 1.3335 19.1709 1.86822 19.1709 2.47933V4.771" stroke="#A0B0C0" stroke-width="1.5" stroke-miterlimit="10" stroke-linecap="round" stroke-linejoin="round"/>
<path d="M0.833252 4.771V2.47933C0.833252 1.86822 1.36797 1.3335 1.97909 1.3335H4.27075" stroke="#A0B0C0" stroke-width="1.5" stroke-miterlimit="10" stroke-linecap="round" stroke-linejoin="round"/>
<path d="M4.27075 19.6709H1.97909C1.36797 19.6709 0.833252 19.1362 0.833252 18.5251V16.2334" stroke="#A0B0C0" stroke-width="1.5" stroke-miterlimit="10" stroke-linecap="round" stroke-linejoin="round"/>
</svg>
