<svg width="20" height="21" viewBox="0 0 20 21" fill="none" xmlns="http://www.w3.org/2000/svg">
<path d="M4.65267 6.96696C4.49446 6.96696 4.36621 6.83871 4.36621 6.6805C4.36621 6.52229 4.49446 6.39404 4.65267 6.39404" stroke="#A0B0C0" stroke-width="1.5"/>
<path d="M4.65283 6.96696C4.81104 6.96696 4.93929 6.83871 4.93929 6.6805C4.93929 6.52229 4.81104 6.39404 4.65283 6.39404" stroke="#A0B0C0" stroke-width="1.5"/>
<path d="M7.70833 6.96696C7.55012 6.96696 7.42188 6.83871 7.42188 6.6805C7.42188 6.52229 7.55012 6.39404 7.70833 6.39404" stroke="#A0B0C0" stroke-width="1.5"/>
<path d="M7.7085 6.96696C7.8667 6.96696 7.99495 6.83871 7.99495 6.6805C7.99495 6.52229 7.8667 6.39404 7.7085 6.39404" stroke="#A0B0C0" stroke-width="1.5"/>
<path d="M4.65267 9.64079C4.49446 9.64079 4.36621 9.51253 4.36621 9.35433C4.36621 9.19613 4.49446 9.06787 4.65267 9.06787" stroke="#A0B0C0" stroke-width="1.5"/>
<path d="M4.65283 9.64079C4.81104 9.64079 4.93929 9.51253 4.93929 9.35433C4.93929 9.19613 4.81104 9.06787 4.65283 9.06787" stroke="#A0B0C0" stroke-width="1.5"/>
<path d="M4.65267 12.3141C4.49446 12.3141 4.36621 12.1859 4.36621 12.0277C4.36621 11.8695 4.49446 11.7412 4.65267 11.7412" stroke="#A0B0C0" stroke-width="1.5"/>
<path d="M4.65283 12.3141C4.81104 12.3141 4.93929 12.1859 4.93929 12.0277C4.93929 11.8695 4.81104 11.7412 4.65283 11.7412" stroke="#A0B0C0" stroke-width="1.5"/>
<path d="M7.70833 9.64079C7.55012 9.64079 7.42188 9.51253 7.42188 9.35433C7.42188 9.19613 7.55012 9.06787 7.70833 9.06787" stroke="#A0B0C0" stroke-width="1.5"/>
<path d="M7.7085 9.64079C7.8667 9.64079 7.99495 9.51253 7.99495 9.35433C7.99495 9.19613 7.8667 9.06787 7.7085 9.06787" stroke="#A0B0C0" stroke-width="1.5"/>
<path d="M10.764 6.96696C10.6058 6.96696 10.4775 6.83871 10.4775 6.6805C10.4775 6.52229 10.6058 6.39404 10.764 6.39404" stroke="#A0B0C0" stroke-width="1.5"/>
<path d="M10.7637 6.96696C10.9219 6.96696 11.0501 6.83871 11.0501 6.6805C11.0501 6.52229 10.9219 6.39404 10.7637 6.39404" stroke="#A0B0C0" stroke-width="1.5"/>
<path d="M7.13542 14.5106H2.55208C2.24819 14.5106 1.95674 14.3899 1.74186 14.175C1.52697 13.9601 1.40625 13.6686 1.40625 13.3647V4.19808C1.40625 3.89419 1.52697 3.60273 1.74186 3.38785C1.95674 3.17297 2.24819 3.05225 2.55208 3.05225H12.8646C13.1685 3.05225 13.46 3.17297 13.6748 3.38785C13.8897 3.60273 14.0104 3.89419 14.0104 4.19808V7.63558" stroke="#A0B0C0" stroke-width="1.5" stroke-linecap="round" stroke-linejoin="round"/>
<path d="M4.84375 4.19792V1.90625" stroke="#A0B0C0" stroke-width="1.5" stroke-linecap="round" stroke-linejoin="round"/>
<path d="M10.5728 4.19792V1.90625" stroke="#A0B0C0" stroke-width="1.5" stroke-linecap="round" stroke-linejoin="round"/>
<path d="M14.0106 19.0939C16.5419 19.0939 18.5939 17.0419 18.5939 14.5106C18.5939 11.9793 16.5419 9.92725 14.0106 9.92725C11.4793 9.92725 9.42725 11.9793 9.42725 14.5106C9.42725 17.0419 11.4793 19.0939 14.0106 19.0939Z" stroke="#A0B0C0" stroke-width="1.5" stroke-linecap="round" stroke-linejoin="round"/>
<path d="M16.0346 14.5106H14.0103V12.4863" stroke="#A0B0C0" stroke-width="1.5" stroke-linecap="round" stroke-linejoin="round"/>
</svg>
