<svg width="20" height="21" viewBox="0 0 20 21" fill="none" xmlns="http://www.w3.org/2000/svg">
<path d="M10.0001 19.4657H2.41386C1.65208 19.4657 1.03455 18.8482 1.03455 18.0864V2.91398C1.03455 2.15221 1.65208 1.53467 2.41386 1.53467H10.0001M1.03455 5.6726H18.9656M1.03455 10.0692H10.0001V1.53467M10.0001 1.53467H17.5863C18.348 1.53467 18.9656 2.15221 18.9656 2.91398V10.0692" stroke="#A0B0C0" stroke-width="1.5" stroke-linecap="round" stroke-linejoin="round"/>
<path d="M16.03 16.3332C16.4259 15.8909 16.6666 15.3068 16.6666 14.6665C16.6666 13.2858 15.5473 12.1665 14.1666 12.1665C12.7859 12.1665 11.6666 13.2858 11.6666 14.6665C11.6666 16.0472 12.7859 17.1665 14.1666 17.1665C14.907 17.1665 15.5723 16.8446 16.03 16.3332ZM16.03 16.3332L18.3333 18.4165" stroke="#A0B0C0" stroke-width="1.5" stroke-miterlimit="10" stroke-linecap="round" stroke-linejoin="round"/>
</svg>
