<?xml version="1.0" encoding="utf-8"?>
<!-- Generator: Adobe Illustrator 23.1.1, SVG Export Plug-In . SVG Version: 6.00 Build 0)  -->
<svg version="1.1" id="Layer_1" xmlns="http://www.w3.org/2000/svg" xmlns:xlink="http://www.w3.org/1999/xlink" x="0px" y="0px"
	 viewBox="0 0 200.9 251.12" style="enable-background:new 0 0 200.9 251.12;" xml:space="preserve">
<style type="text/css">
	.st0{fill:#2D2B2B;}
	.st1{fill:none;stroke:#2D2B2B;stroke-width:8;stroke-miterlimit:10;}
</style>
<g>
	<path class="st0" d="M45,110.16v70h80v-70H45z M80,170.16H55v-10h25V170.16z M80,150.16H55v-10h25V150.16z M80,130.16H55v-10h25
		V130.16z M115,170.16H90v-10h25V170.16z M115,150.16H90v-10h25V150.16z M115,130.16H90v-10h25V130.16z"/>
	<path class="st0" d="M125.4,220.16H20.63c-5.9,0-10.62-4.63-10.62-10.47V17.5c-0.01-4.12,3.29-7.34,7.49-7.34H100v41.72
		c0,10.06,8.22,18.28,18.28,18.28H160v106.17c1.15-0.1,2.31-0.16,3.48-0.16c2.22,0,4.39,0.2,6.51,0.56V66.1
		c0.14-0.66,0.14-1.37,0-2.03v-1.41c0.04-1.33-0.47-2.64-1.41-3.59l-57.5-57.5c-0.96-0.94-2.27-1.45-3.59-1.41h-1.56
		c-0.44-0.12-0.93-0.18-1.4-0.16c-0.21,0.04-0.43,0.1-0.62,0.16H17.5C7.93,0.16,0,7.95,0,17.5v192.19
		c0,11.27,9.34,20.47,20.62,20.47h107.64C126.88,227.03,125.9,223.67,125.4,220.16z M110,14.85l45.31,45.31h-37.03
		c-4.67,0-8.28-3.61-8.28-8.28V14.85z"/>
</g>
<path class="st1" d="M163.48,244.63c-16.53,0-29.98-13.45-29.98-29.98c0-16.53,13.45-29.98,29.98-29.98s29.98,13.45,29.98,29.98
	C193.46,231.18,180.01,244.63,163.48,244.63z"/>
<g>
	<path class="st0" d="M160.86,217.53h-7.95c-1.68,0-3.08-1.34-3.08-3.08c0-1.68,1.4-3.08,3.08-3.08h7.95v-7.78
		c0-1.79,1.4-3.19,3.19-3.19c1.74,0,3.19,1.4,3.19,3.19v7.78h7.95c1.68,0,3.08,1.4,3.08,3.08c0,1.74-1.4,3.08-3.08,3.08h-7.95v7.78
		c0,1.79-1.46,3.19-3.19,3.19c-1.79,0-3.19-1.4-3.19-3.19V217.53z"/>
</g>
</svg>
