<svg width="20" height="21" viewBox="0 0 20 21" fill="none" xmlns="http://www.w3.org/2000/svg">
<path d="M18.3248 10.1416C18.3301 10.2604 18.3329 10.3798 18.3333 10.4998C17.0565 10.4813 13.9505 10.4872 11.2013 10.498L13.3718 8.32528C12.6603 7.20752 11.3256 6.41925 9.98486 6.41925L9.98496 2.1665C12.5938 2.1665 14.923 3.36472 16.4541 5.2407L18.3248 3.36811V10.1416Z" stroke="#A0B0C0" stroke-width="1.5" stroke-linecap="round" stroke-linejoin="round"/>
<path d="M9.64174 2.17504C9.76055 2.16967 9.87993 2.1669 9.99996 2.1665C9.98141 3.44336 9.98728 6.54935 9.99808 9.29856L7.8254 7.12806C6.70765 7.83955 5.91937 9.17426 5.91937 10.515L1.66663 10.5149C1.66663 7.906 2.86484 5.57683 4.74082 4.04576L2.86823 2.17504H9.64174Z" stroke="#A0B0C0" stroke-width="1.5" stroke-linecap="round" stroke-linejoin="round"/>
<path d="M1.66663 10.5C1.66702 10.62 1.66979 10.7394 1.67517 10.8582V17.6317L3.54588 15.7591C5.07696 17.6351 7.40612 18.8333 10.015 18.8333C12.7299 18.8333 15.1419 17.5361 16.6666 15.5272L13.6003 12.4255C13.2998 12.9818 12.8729 13.4596 12.3582 13.8205C11.8228 14.2387 11.0643 14.5806 10.0151 14.5806C9.88832 14.5806 9.79048 14.5658 9.7186 14.5378C8.41857 14.4351 7.29169 13.7169 6.62818 12.6746L8.79868 10.5019C6.04947 10.5127 2.94348 10.5185 1.66663 10.5Z" stroke="#A0B0C0" stroke-width="1.5" stroke-linecap="round" stroke-linejoin="round"/>
</svg>
