<svg width="20" height="21" viewBox="0 0 20 21" fill="none" xmlns="http://www.w3.org/2000/svg">
<rect x="9.1665" y="3" width="16.6667" height="8.33333" rx="2" stroke="#A0B0C0" stroke-width="1.5"/>
<rect x="12.5" y="14.6665" width="13.3333" height="5" rx="1.5" stroke="#A0B0C0" stroke-width="1.5"/>
<path d="M3.84269 8.83333C3.78714 8.83333 3.73714 8.81389 3.69269 8.775C3.65381 8.73611 3.63436 8.68611 3.63436 8.625V4.65833L2.49269 5.53333C2.44269 5.57222 2.38992 5.58611 2.33436 5.575C2.28436 5.56389 2.23992 5.53333 2.20103 5.48333L1.70936 4.84167C1.67603 4.79167 1.66214 4.73889 1.66769 4.68333C1.67881 4.62222 1.71214 4.575 1.76769 4.54167L3.68436 3.05833C3.71769 3.03611 3.74825 3.02222 3.77603 3.01667C3.80936 3.00556 3.84547 3 3.88436 3H4.92603C4.98158 3 5.02881 3.01944 5.06769 3.05833C5.11214 3.09722 5.13436 3.14722 5.13436 3.20833V8.625C5.13436 8.68611 5.11214 8.73611 5.06769 8.775C5.02881 8.81389 4.98158 8.83333 4.92603 8.83333H3.84269Z" fill="#A0B0C0"/>
<path d="M1.88317 20.0583C1.82206 20.0583 1.76928 20.0389 1.72484 20C1.68595 19.9611 1.6665 19.9111 1.6665 19.85V19.2583C1.6665 19.2194 1.67762 19.1611 1.69984 19.0833C1.72206 19 1.78039 18.9222 1.87484 18.85L2.7415 18C3.18595 17.6611 3.54984 17.375 3.83317 17.1417C4.12206 16.9028 4.33595 16.6917 4.47484 16.5083C4.61373 16.325 4.68317 16.1528 4.68317 15.9917C4.68317 15.8028 4.63317 15.6472 4.53317 15.525C4.43873 15.3972 4.27206 15.3333 4.03317 15.3333C3.87206 15.3333 3.73595 15.3694 3.62484 15.4417C3.51928 15.5083 3.43873 15.5972 3.38317 15.7083C3.32762 15.8194 3.28873 15.9333 3.2665 16.05C3.24428 16.1222 3.20539 16.1722 3.14984 16.2C3.09984 16.2278 3.04428 16.2417 2.98317 16.2417H1.9415C1.8915 16.2417 1.84984 16.225 1.8165 16.1917C1.78317 16.1583 1.7665 16.1167 1.7665 16.0667C1.77206 15.8 1.82762 15.55 1.93317 15.3167C2.04428 15.0833 2.19706 14.8778 2.3915 14.7C2.5915 14.5167 2.82762 14.375 3.09984 14.275C3.37762 14.175 3.68873 14.125 4.03317 14.125C4.50539 14.125 4.90539 14.2 5.23317 14.35C5.5665 14.5 5.81928 14.7111 5.9915 14.9833C6.16373 15.25 6.24984 15.5639 6.24984 15.925C6.24984 16.1972 6.18873 16.4528 6.0665 16.6917C5.94984 16.925 5.78039 17.15 5.55817 17.3667C5.3415 17.5778 5.08317 17.7972 4.78317 18.025L4.0165 18.8H6.15817C6.21928 18.8 6.26928 18.8194 6.30817 18.8583C6.35262 18.8972 6.37484 18.9472 6.37484 19.0083V19.85C6.37484 19.9111 6.35262 19.9611 6.30817 20C6.26928 20.0389 6.21928 20.0583 6.15817 20.0583H1.88317Z" fill="#A0B0C0"/>
</svg>
