<svg width="20" height="21" viewBox="0 0 20 21" fill="none" xmlns="http://www.w3.org/2000/svg">
<path d="M11.25 8.6225C11.25 7.93214 11.8096 7.3725 12.5 7.3725C13.1904 7.3725 13.75 7.93214 13.75 8.6225V9.8725C13.75 9.18214 14.3096 8.6225 15 8.6225C15.6904 8.6225 16.25 9.18214 16.25 9.8725V14.98C16.2507 16.1122 15.8013 17.1983 15.001 17.9992C14.2006 18.8 13.1147 19.25 11.9825 19.25H8.805C7.59512 19.2491 6.46001 18.6644 5.75667 17.68L4.84 16.4008C4.13092 15.4086 3.74981 14.2195 3.75 13C3.75 11.6193 4.86929 10.5 6.25 10.5V3C6.25 2.30964 6.80964 1.75 7.5 1.75C8.19036 1.75 8.75 2.30964 8.75 3V8C8.75 7.30964 9.30964 6.75 10 6.75C10.6904 6.75 11.25 7.30964 11.25 8V8.6225ZM11.25 8.6225V9.8725M6.25 10.4975V12.3725M8.75 9.8725V8.6225" stroke="#A0B0C0" stroke-width="1.5" stroke-linecap="round" stroke-linejoin="round"/>
</svg>
