<svg width="20" height="21" viewBox="0 0 20 21" fill="none" xmlns="http://www.w3.org/2000/svg">
<path d="M6.66683 15.9165C6.66683 17.5273 5.36099 18.8332 3.75016 18.8332C2.13933 18.8332 0.833496 17.5273 0.833496 15.9165C0.833496 14.3057 2.13933 12.9998 3.75016 12.9998C4.03973 12.9998 4.31945 13.042 4.5835 13.1206M6.66683 15.9165H13.3335M6.66683 15.9165C6.66683 14.5952 5.78828 13.4792 4.5835 13.1206M13.3335 15.9165C13.3335 17.5273 14.6393 18.8332 16.2502 18.8332C17.861 18.8332 19.1668 17.5273 19.1668 15.9165C19.1668 14.3057 17.861 12.9998 16.2502 12.9998C15.9606 12.9998 15.6809 13.042 15.4168 13.1206M13.3335 15.9165C13.3335 14.5952 14.212 13.4792 15.4168 13.1206M4.5835 13.1206L7.91683 7.12441M7.91683 7.12441C8.44621 7.66464 9.18404 7.99984 10.0002 7.99984C10.8163 7.99984 11.5541 7.66464 12.0835 7.12441M7.91683 7.12441C7.40133 6.59836 7.0835 5.87788 7.0835 5.08317C7.0835 3.47234 8.38933 2.1665 10.0002 2.1665C11.611 2.1665 12.9168 3.47234 12.9168 5.08317C12.9168 5.87788 12.599 6.59836 12.0835 7.12441M15.4168 13.1206L12.0835 7.12441" stroke="#A0B0C0" stroke-width="1.5" stroke-linecap="round" stroke-linejoin="round"/>
</svg>
