<svg width="20" height="21" viewBox="0 0 20 21" fill="none" xmlns="http://www.w3.org/2000/svg">
<path d="M17.5 6.3335V4.66683C17.5 2.82588 16.0077 1.3335 14.1667 1.3335H4.16671C2.32576 1.3335 0.833374 2.82588 0.833374 4.66683V9.66683C0.833374 11.5078 2.32576 13.0002 4.16671 13.0002H5.00004" stroke="#A0B0C0" stroke-width="1.5" stroke-linecap="round" stroke-linejoin="round"/>
<path fill-rule="evenodd" clip-rule="evenodd" d="M17 11.6286V10.5572C17 9.96548 16.515 9.48579 15.9167 9.48579C15.3184 9.48579 14.8334 9.96548 14.8334 10.5572V10.0236C14.8334 9.43191 14.3483 8.95222 13.75 8.95222C13.1517 8.95222 12.6667 9.43191 12.6667 10.0236V5.73793C12.6667 5.1462 12.1817 4.6665 11.5834 4.6665C10.9851 4.6665 10.5 5.1462 10.5 5.73793V12.1665C9.30342 12.1665 8.33337 13.1259 8.33337 14.3094C8.33321 15.3547 8.66351 16.3739 9.27804 17.2244L10.0725 18.3208C10.6821 19.1646 11.6658 19.6657 12.7144 19.6665H15.4682C16.4495 19.6665 17.3905 19.2808 18.0842 18.5944C18.7779 17.9079 19.1673 16.977 19.1667 16.0065V11.6286C19.1667 11.0369 18.6817 10.5572 18.0834 10.5572C17.4851 10.5572 17 11.0369 17 11.6286Z" fill="white"/>
<path fill-rule="evenodd" clip-rule="evenodd" d="M10.5 12.1644V13.7715Z" fill="white"/>
<path fill-rule="evenodd" clip-rule="evenodd" d="M12.6667 11.6286V10.5572Z" fill="white"/>
<path fill-rule="evenodd" clip-rule="evenodd" d="M14.8334 11.6286V10.5572Z" fill="white"/>
<path d="M14.8334 10.5572C14.8334 9.96548 15.3184 9.48579 15.9167 9.48579C16.515 9.48579 17 9.96548 17 10.5572V11.6286C17 11.0369 17.4851 10.5572 18.0834 10.5572C18.6817 10.5572 19.1667 11.0369 19.1667 11.6286V16.0065C19.1673 16.977 18.7779 17.9079 18.0842 18.5944C17.3905 19.2808 16.4495 19.6665 15.4682 19.6665H12.7144C11.6658 19.6657 10.6821 19.1646 10.0725 18.3208L9.27804 17.2244C8.66351 16.3739 8.33321 15.3547 8.33337 14.3094C8.33337 13.1259 9.30342 12.1665 10.5 12.1665V5.73793C10.5 5.1462 10.9851 4.6665 11.5834 4.6665C12.1817 4.6665 12.6667 5.1462 12.6667 5.73793V10.0236C12.6667 9.43191 13.1517 8.95222 13.75 8.95222C14.3483 8.95222 14.8334 9.43191 14.8334 10.0236V10.5572ZM14.8334 10.5572V11.6286M10.5 12.1644V13.7715M12.6667 11.6286V10.5572" stroke="#A0B0C0" stroke-width="1.5" stroke-linecap="round" stroke-linejoin="round"/>
</svg>
