<?xml version="1.0" encoding="utf-8"?>
<!-- Generator: Adobe Illustrator 23.1.1, SVG Export Plug-In . SVG Version: 6.00 Build 0)  -->
<svg version="1.1" id="Layer_1" xmlns="http://www.w3.org/2000/svg" xmlns:xlink="http://www.w3.org/1999/xlink" x="0px" y="0px"
	 viewBox="0 0 72 72" style="enable-background:new 0 0 72 72;" xml:space="preserve">
<style type="text/css">
	.st0{fill:#2D2B2B;}
</style>
<g>
	<path class="st0" d="M36,57.1c-1.7,0-3.1-1.4-3.1-3.1v-13H16c-0.6,0-1.1-0.5-1.1-1.1c0-0.6,0.5-1,1-1h17v-5c0-1.7,1.4-3.1,3.1-3.1
		h1V17H16c-0.6,0-1.1-0.5-1.1-1.1c0-0.6,0.5-1,1-1h20c1.7,0,3.1,1.4,3.1,3.1v13h17c0.3,0,0.6,0.1,0.8,0.3c0.2,0.2,0.3,0.5,0.3,0.7
		c0,0.6-0.5,1-1,1c0,0-17.8,0-17.8,0l-0.1,0c-0.1,0-0.1,0-0.2,0c-0.1,0-0.1,0-0.2,0l-0.1,0H35v6.7l0,0.1c0,0.1,0,0.2,0,0.3l0,0.1V55
		h21c0.3,0,0.6,0.1,0.8,0.3c0.2,0.2,0.3,0.5,0.3,0.7c0,0.6-0.5,1-1,1H36z M43.4,44l3.7-3.7V43h9c0.3,0,0.6,0.1,0.8,0.3
		c0.2,0.2,0.3,0.5,0.3,0.7c0,0.6-0.5,1-1,1c0,0-9,0-9,0v2.7L43.4,44z M24.9,29h-9c-0.6,0-1.1-0.5-1.1-1.1c0-0.6,0.5-1,1-1h9v-2.7
		l3.7,3.7l-3.7,3.7V29z"/>
</g>
</svg>
