<svg width="20" height="21" viewBox="0 0 20 21" fill="none" xmlns="http://www.w3.org/2000/svg">
<path d="M2.15833 14.3C1.75389 14.3 1.38833 14.2222 1.06167 14.0667C0.735 13.9033 0.474444 13.6894 0.28 13.425C0.0933333 13.1528 0 12.8494 0 12.515C0 11.9706 0.217778 11.5389 0.653333 11.22C1.09667 10.8933 1.68 10.6756 2.40333 10.5667L4.00167 10.3333V10.0883C4.00167 9.76167 3.92 9.50889 3.75667 9.33C3.59333 9.15111 3.31333 9.06167 2.91667 9.06167C2.63667 9.06167 2.40722 9.12 2.22833 9.23667C2.05722 9.34556 1.92889 9.49333 1.84333 9.68C1.78111 9.78111 1.69167 9.83167 1.575 9.83167H0.653333C0.567778 9.83167 0.501667 9.80833 0.455 9.76167C0.416111 9.715 0.396667 9.65278 0.396667 9.575C0.404444 9.45056 0.455 9.29889 0.548333 9.12C0.641667 8.94111 0.789445 8.77 0.991667 8.60667C1.19389 8.43556 1.45444 8.29167 1.77333 8.175C2.09222 8.05833 2.47722 8 2.92833 8C3.41833 8 3.83056 8.06222 4.165 8.18667C4.50722 8.30333 4.77944 8.46278 4.98167 8.665C5.18389 8.86722 5.33167 9.10444 5.425 9.37667C5.51833 9.64889 5.565 9.93667 5.565 10.24V13.9033C5.565 13.9811 5.53778 14.0472 5.48333 14.1017C5.42889 14.1561 5.36278 14.1833 5.285 14.1833H4.34C4.25444 14.1833 4.18444 14.1561 4.13 14.1017C4.08333 14.0472 4.06 13.9811 4.06 13.9033V13.4483C3.95889 13.5961 3.82278 13.7361 3.65167 13.8683C3.48056 13.9928 3.27056 14.0978 3.02167 14.1833C2.78056 14.2611 2.49278 14.3 2.15833 14.3ZM2.555 13.1917C2.82722 13.1917 3.07222 13.1333 3.29 13.0167C3.51556 12.9 3.69056 12.7211 3.815 12.48C3.94722 12.2311 4.01333 11.92 4.01333 11.5467V11.3017L2.84667 11.4883C2.38778 11.5583 2.04556 11.6711 1.82 11.8267C1.59444 11.9822 1.48167 12.1728 1.48167 12.3983C1.48167 12.5694 1.53222 12.7172 1.63333 12.8417C1.74222 12.9583 1.87833 13.0478 2.04167 13.11C2.205 13.1644 2.37611 13.1917 2.555 13.1917Z" fill="#A0B0C0"/>
<path d="M17.5148 14.7335C17.0637 14.7335 16.6865 14.6557 16.3832 14.5002C16.0876 14.3446 15.8426 14.1463 15.6482 13.9052V14.3368C15.6482 14.4146 15.6209 14.4807 15.5665 14.5352C15.5198 14.5896 15.4537 14.6168 15.3682 14.6168H14.4465C14.3687 14.6168 14.3026 14.5896 14.2482 14.5352C14.1937 14.4807 14.1665 14.4146 14.1665 14.3368V6.6135C14.1665 6.53572 14.1937 6.46961 14.2482 6.41516C14.3026 6.36072 14.3687 6.3335 14.4465 6.3335H15.4382C15.5237 6.3335 15.5898 6.36072 15.6365 6.41516C15.6909 6.46961 15.7182 6.53572 15.7182 6.6135V9.2035C15.9126 8.97794 16.1537 8.79516 16.4415 8.65516C16.7371 8.50738 17.0948 8.4335 17.5148 8.4335C17.9271 8.4335 18.2848 8.5035 18.5882 8.6435C18.8915 8.7835 19.1443 8.98183 19.3465 9.2385C19.5565 9.48738 19.7159 9.77905 19.8248 10.1135C19.9337 10.4479 19.9921 10.8096 19.9998 11.1985C20.0076 11.3385 20.0115 11.4668 20.0115 11.5835C20.0115 11.6924 20.0076 11.8168 19.9998 11.9568C19.9843 12.3613 19.9221 12.7346 19.8132 13.0768C19.7043 13.4113 19.5487 13.7029 19.3465 13.9518C19.1443 14.2007 18.8915 14.3952 18.5882 14.5352C18.2848 14.6674 17.9271 14.7335 17.5148 14.7335ZM17.0832 13.4852C17.4176 13.4852 17.6782 13.4152 17.8648 13.2752C18.0515 13.1274 18.1837 12.9368 18.2615 12.7035C18.3471 12.4702 18.3976 12.2135 18.4132 11.9335C18.4287 11.7002 18.4287 11.4668 18.4132 11.2335C18.3976 10.9535 18.3471 10.6968 18.2615 10.4635C18.1837 10.2302 18.0515 10.0435 17.8648 9.9035C17.6782 9.75572 17.4176 9.68183 17.0832 9.68183C16.7721 9.68183 16.5193 9.75183 16.3248 9.89183C16.1304 10.0318 15.9826 10.2107 15.8815 10.4285C15.7804 10.6385 15.7259 10.8602 15.7182 11.0935C15.7104 11.2335 15.7065 11.3852 15.7065 11.5485C15.7065 11.7041 15.7104 11.8518 15.7182 11.9918C15.7337 12.2329 15.7843 12.4702 15.8698 12.7035C15.9632 12.9291 16.1071 13.1157 16.3015 13.2635C16.5037 13.4113 16.7643 13.4852 17.0832 13.4852Z" fill="#A0B0C0"/>
<path d="M10 1.3335V19.6668" stroke="#A0B0C0" stroke-width="1.5" stroke-linecap="round" stroke-linejoin="round"/>
</svg>
