<?xml version="1.0" encoding="utf-8"?>
<!-- Generator: Adobe Illustrator 23.1.1, SVG Export Plug-In . SVG Version: 6.00 Build 0)  -->
<svg version="1.1" id="Layer_1" xmlns="http://www.w3.org/2000/svg" xmlns:xlink="http://www.w3.org/1999/xlink" x="0px" y="0px"
	 viewBox="0 0 72 72" style="enable-background:new 0 0 72 72;" xml:space="preserve">
<style type="text/css">
	.st0{fill:#2D2B2B;}
</style>
<g>
	<g>
		<path class="st0" d="M46.96,23.73c-0.61,0.61-0.61,1.59,0,2.19c0.61,0.61,1.59,0.61,2.19,0l6.2-6.2c0.3-0.3,0.45-0.7,0.45-1.1
			s-0.15-0.79-0.45-1.1l-6.2-6.2c-0.61-0.61-1.59-0.61-2.19,0c-0.61,0.61-0.61,1.59,0,2.19l3.56,3.56H36v3.1h14.51L46.96,23.73z"/>
	</g>
	<path class="st0" d="M28.27,10.65c-4.86,0-8.82,3.96-8.82,8.82c0,3.26,1.77,6.09,4.41,7.61v17.02l-5.68-5.72
		c-1.71-1.71-4.52-1.71-6.23,0s-1.71,4.52,0,6.23l12.5,12.54c2.69,2.69,6.33,4.2,10.13,4.2h8.03c5.46,0,9.92-4.46,9.92-9.92V37.1
		c0-2.42-1.98-4.41-4.41-4.41c-0.92,0-1.77,0.27-2.48,0.76c-0.6-1.72-2.22-2.96-4.13-2.96c-1.09,0-2.05,0.44-2.82,1.1
		c-0.77-1.3-2.17-2.2-3.79-2.2c-0.81,0-1.55,0.24-2.2,0.62v-2.93c2.64-1.52,4.41-4.36,4.41-7.61
		C37.09,14.61,33.13,10.65,28.27,10.65z M28.27,12.85c3.66,0,6.61,2.95,6.61,6.61c0,1.96-0.85,3.72-2.2,4.93v-4.93
		c0-2.42-1.98-4.41-4.41-4.41s-4.41,1.98-4.41,4.41v4.93c-1.36-1.21-2.2-2.96-2.2-4.93C21.66,15.8,24.61,12.85,28.27,12.85z
		 M28.27,17.26c1.23,0,2.2,0.97,2.2,2.2v6.82c-0.02,0.12-0.02,0.23,0,0.34V36c-0.01,0.34,0.14,0.66,0.4,0.88
		c0.26,0.22,0.61,0.3,0.94,0.22c0.11-0.03,0.22-0.08,0.31-0.14c0.02-0.01,0.05-0.02,0.07-0.03c0.06-0.05,0.12-0.11,0.17-0.17
		c0.2-0.2,0.31-0.47,0.31-0.76v-2.2c0-1.23,0.97-2.2,2.2-2.2s2.2,0.97,2.2,2.2V36c0,0.07,0.02,0.14,0.03,0.21
		c0.02,0.11,0.05,0.21,0.1,0.31c0.04,0.1,0.1,0.19,0.17,0.28c0.05,0.05,0.11,0.1,0.17,0.14c0.03,0.03,0.07,0.05,0.1,0.07
		c0.1,0.05,0.2,0.09,0.31,0.1c0.15,0.03,0.3,0.03,0.45,0c0.11-0.03,0.22-0.08,0.31-0.14c0.02-0.01,0.05-0.02,0.07-0.03
		c0.06-0.05,0.12-0.11,0.17-0.17c0.2-0.2,0.31-0.47,0.31-0.76v-1.1c0-1.23,0.97-2.2,2.2-2.2c1.23,0,2.2,0.97,2.2,2.2v2.2
		c0,0.03,0,0.07,0,0.1v1c0,0.4,0.2,0.77,0.55,0.97c0.34,0.2,0.77,0.2,1.11,0c0.34-0.2,0.55-0.57,0.55-0.97v-0.93
		c0-0.06,0-0.12,0-0.17c0-1.23,0.97-2.2,2.2-2.2s2.2,0.97,2.2,2.2v14.33c0,4.28-3.44,7.72-7.72,7.72h-8.03
		c-3.22,0-6.3-1.27-8.58-3.55l-12.5-12.54c-0.87-0.87-0.87-2.23,0-3.1c0.87-0.87,2.23-0.87,3.1,0l7.44,7.41
		c0.04,0.06,0.09,0.12,0.14,0.17c0.02,0.03,0.04,0.05,0.07,0.07c0.15,0.12,0.33,0.21,0.52,0.24c0.15,0.03,0.3,0.03,0.45,0
		c0.07-0.02,0.14-0.04,0.21-0.07c0.03-0.02,0.07-0.04,0.1-0.07c0.31-0.18,0.52-0.5,0.55-0.86c0-0.01,0-0.02,0-0.03
		c0-0.02,0-0.05,0-0.07c0-0.05,0-0.09,0-0.14V26.56c0.02-0.12,0.02-0.23,0-0.34v-6.75C26.07,18.23,27.04,17.26,28.27,17.26z"/>
</g>
</svg>
