<svg width="20" height="21" viewBox="0 0 20 21" fill="none" xmlns="http://www.w3.org/2000/svg">
	<path d="M18.9655 6.50561H10.4166M4.54021 19.4654H3.24711C2.48534 19.4654 1.8678 18.8478 1.8678 18.0861V10.9165M16.2931 19.4654H17.5862C18.348 19.4654 18.9655 18.8478 18.9655 18.0861V3.74699C18.9655 2.98521 18.348 2.36768 17.5862 2.36768H9.99998" stroke="#A0B0C0" stroke-width="1.5" stroke-linecap="round" stroke-linejoin="round"/>
	<path d="M10.4167 13.8332L7.08337 17.1665M10.4167 13.8332L13.75 17.1665M10.4167 13.8332V19.6665" stroke="#A0B0C0" stroke-width="1.5" stroke-miterlimit="10" stroke-linecap="round" stroke-linejoin="round"/>
	<path d="M3.54163 4.0415L7.29163 7.7915" stroke="#A0B0C0" stroke-width="1.5" stroke-linecap="round" stroke-linejoin="round"/>
	<path d="M7.29163 4.0415L3.54163 7.7915" stroke="#A0B0C0" stroke-width="1.5" stroke-linecap="round" stroke-linejoin="round"/>
	<path d="M1.59726 1.3335H9.23615C9.23615 1.3335 10 1.3335 10 2.09738V9.73627C10 9.73627 10 10.5002 9.23615 10.5002H1.59726C1.59726 10.5002 0.833374 10.5002 0.833374 9.73627V2.09738C0.833374 2.09738 0.833374 1.3335 1.59726 1.3335Z" stroke="#A0B0C0" stroke-width="1.5" stroke-linecap="round" stroke-linejoin="round"/>
</svg>
