<svg width="20" height="21" viewBox="0 0 20 21" fill="none" xmlns="http://www.w3.org/2000/svg">
<path d="M10.4222 11.6374C10.264 11.6374 10.1357 11.5091 10.1357 11.3509C10.1357 11.1927 10.264 11.0645 10.4222 11.0645" stroke="#A0B0C0" stroke-width="1.5"/>
<path d="M10.4224 11.6374C10.5806 11.6374 10.7088 11.5091 10.7088 11.3509C10.7088 11.1927 10.5806 11.0645 10.4224 11.0645" stroke="#A0B0C0" stroke-width="1.5"/>
<path d="M15.0827 9.63214C14.7346 9.63234 14.39 9.56365 14.0686 9.43005C13.7472 9.29645 13.4554 9.10057 13.21 8.85368C12.9646 8.60681 12.7704 8.3138 12.6387 7.99153C12.5069 7.66928 12.4402 7.32412 12.4423 6.97595C11.9872 7.32569 11.4298 7.51611 10.8559 7.5179C10.4186 7.51827 9.98803 7.40993 9.60297 7.20261C9.21784 6.99531 8.89027 6.69553 8.64963 6.33021C8.40899 5.9649 8.26288 5.5455 8.22435 5.1097C8.18589 4.6739 8.25619 4.23537 8.42906 3.8335C6.77369 3.90072 5.18111 4.4858 3.87567 5.50631C2.57024 6.52682 1.61772 7.93134 1.1523 9.522C0.686886 11.1127 0.732025 12.8093 1.28136 14.373C1.83069 15.9366 2.85654 17.2885 4.2144 18.2381C5.57225 19.1877 7.19367 19.6872 8.85026 19.6662C10.5069 19.6453 12.1151 19.1049 13.4486 18.1212C14.782 17.1376 15.7734 15.7602 16.283 14.1832C16.7926 12.6061 16.7948 10.9089 16.2894 9.33051C15.9173 9.52679 15.5033 9.63027 15.0827 9.63214Z" stroke="#A0B0C0" stroke-width="1.5" stroke-linecap="round" stroke-linejoin="round"/>
<path d="M5.7085 11.8979C6.65773 11.8979 7.42725 11.1285 7.42725 10.1792C7.42725 9.22996 6.65773 8.46045 5.7085 8.46045C4.75926 8.46045 3.98975 9.22996 3.98975 10.1792C3.98975 11.1285 4.75926 11.8979 5.7085 11.8979Z" stroke="#A0B0C0" stroke-width="1.5" stroke-linecap="round" stroke-linejoin="round"/>
<path d="M10.8646 16.4811C11.4974 16.4811 12.0104 15.9681 12.0104 15.3353C12.0104 14.7025 11.4974 14.1895 10.8646 14.1895C10.2318 14.1895 9.71875 14.7025 9.71875 15.3353C9.71875 15.9681 10.2318 16.4811 10.8646 16.4811Z" stroke="#A0B0C0" stroke-width="1.5" stroke-linecap="round" stroke-linejoin="round"/>
<path d="M5.42367 15.3351C5.26546 15.3351 5.13721 15.2069 5.13721 15.0487C5.13721 14.8905 5.26546 14.7622 5.42367 14.7622" stroke="#A0B0C0" stroke-width="1.5"/>
<path d="M5.42383 15.3351C5.58203 15.3351 5.71029 15.2069 5.71029 15.0487C5.71029 14.8905 5.58203 14.7622 5.42383 14.7622" stroke="#A0B0C0" stroke-width="1.5"/>
<path d="M19 1.5L17 3.5M17 3.5L15 5.5M17 3.5L19 5.5M17 3.5L15 1.5" stroke="#A0B0C0" stroke-width="1.5" stroke-miterlimit="10" stroke-linecap="round" stroke-linejoin="round"/>
</svg>
