<svg width="20" height="21" viewBox="0 0 20 21" fill="none" xmlns="http://www.w3.org/2000/svg">
<path d="M16.1822 16.4782C15.195 17.4977 13.9707 18.2568 12.6187 18.6878C11.2666 19.1188 9.82886 19.2083 8.4338 18.9482C7.03873 18.6882 5.72978 18.0867 4.62381 17.1975C3.51784 16.3084 2.64928 15.1591 2.09568 13.8525C1.54208 12.5458 1.32068 11.1224 1.45125 9.70933C1.58181 8.29626 2.06028 6.93751 2.84392 5.75441C3.62756 4.57131 4.69199 3.60068 5.94216 2.9292C7.19234 2.25771 8.58934 1.90627 10.0084 1.90625" stroke="#A0B0C0" stroke-width="1.5" stroke-linecap="round" stroke-linejoin="round"/>
<path d="M10.0084 7.44434V10.8818L13.8111 14.3384" stroke="#A0B0C0" stroke-width="1.5" stroke-linecap="round" stroke-linejoin="round"/>
<path d="M12.368 2.23486C12.8591 2.37506 13.3367 2.55887 13.795 2.7841" stroke="#A0B0C0" stroke-width="1.5" stroke-linecap="round" stroke-linejoin="round"/>
<path d="M16.1875 4.52344C16.5428 4.89005 16.8644 5.28786 17.1485 5.71205" stroke="#A0B0C0" stroke-width="1.5" stroke-linecap="round" stroke-linejoin="round"/>
<path d="M18.3478 8.41309C18.472 8.90836 18.5515 9.4138 18.5853 9.92329" stroke="#A0B0C0" stroke-width="1.5" stroke-linecap="round" stroke-linejoin="round"/>
<path d="M18.2737 12.8618C18.1339 13.3527 17.95 13.8301 17.7245 14.288" stroke="#A0B0C0" stroke-width="1.5" stroke-linecap="round" stroke-linejoin="round"/>
</svg>
