<svg width="20" height="21" viewBox="0 0 20 21" fill="none" xmlns="http://www.w3.org/2000/svg">
<path d="M18.1572 13.6429V12.4001C18.0261 11.7542 17.6757 11.1735 17.1654 10.7564C16.6551 10.3393 16.0163 10.1115 15.3572 10.1115C14.6982 10.1115 14.0594 10.3393 13.5491 10.7564C13.0388 11.1735 12.6884 11.7542 12.5572 12.4001V13.6429M7.85721 11.2144H2.14293C1.76405 11.2144 1.40068 11.0638 1.13277 10.7959C0.864865 10.528 0.714355 10.1647 0.714355 9.78578V2.64293C0.714355 2.26405 0.864865 1.90068 1.13277 1.63277C1.40068 1.36487 1.76405 1.21436 2.14293 1.21436H15.0001C15.379 1.21436 15.7423 1.36487 16.0102 1.63277C16.2781 1.90068 16.4286 2.26405 16.4286 2.64293V5.50007M12.8572 13.6144H17.8572C18.6462 13.6144 19.2858 14.254 19.2858 15.0429V18.3572C19.2858 19.1462 18.6462 19.7858 17.8572 19.7858H12.8572C12.0682 19.7858 11.4286 19.1462 11.4286 18.3572V15.0429C11.4286 14.254 12.0682 13.6144 12.8572 13.6144ZM6.42866 6.21438C6.42866 6.60887 6.10887 6.92866 5.71438 6.92866C5.31989 6.92866 5.00009 6.60887 5.00009 6.21438C5.00009 5.81989 5.31989 5.50009 5.71438 5.50009C6.10887 5.50009 6.42866 5.81989 6.42866 6.21438ZM12.1429 6.21438C12.1429 6.60887 11.8231 6.92866 11.4286 6.92866C11.0342 6.92866 10.7144 6.60887 10.7144 6.21438C10.7144 5.81989 11.0342 5.50009 11.4286 5.50009C11.8231 5.50009 12.1429 5.81989 12.1429 6.21438Z" stroke="#A0B0C0" stroke-width="1.5" stroke-linecap="round" stroke-linejoin="round"/>
</svg>
