<svg width="20" height="21" viewBox="0 0 20 21" fill="none" xmlns="http://www.w3.org/2000/svg">
<path d="M6.66658 17.1668L9.99992 13.8335M9.99992 13.8335L13.3333 17.1668M9.99992 13.8335V19.6668M4.16658 19.6668H2.49992C1.57909 19.6668 0.833252 18.921 0.833252 18.0002V3.00016C0.833252 2.07933 1.57909 1.3335 2.49992 1.3335H6.66658M15.8333 19.6668H17.4999C18.4208 19.6668 19.1666 18.921 19.1666 18.0002V15.5002" stroke="#A0B0C0" stroke-width="1.5" stroke-miterlimit="10" stroke-linecap="round" stroke-linejoin="round"/>
<path d="M9.58325 11.3335H17.5285L19.1666 8.8335H10.8047" stroke="#A0B0C0" stroke-width="1.5" stroke-linecap="round" stroke-linejoin="round"/>
<path d="M15.605 8.8335H19.1667L15.2285 1.3335H11.6667C11.8296 1.63565 15.605 8.8335 15.605 8.8335Z" stroke="#A0B0C0" stroke-width="1.5" stroke-linecap="round" stroke-linejoin="round"/>
<path d="M11.5133 1.3335L7.5 8.11632L9.33037 11.3335C9.33037 11.3335 13.1622 4.77289 13.3333 4.49511" stroke="#A0B0C0" stroke-width="1.5" stroke-linecap="round" stroke-linejoin="round"/>
</svg>
