<svg width="20" height="21" viewBox="0 0 20 21" fill="none" xmlns="http://www.w3.org/2000/svg">
<path d="M17.7197 14.8447L15.5006 17.8033C15.4513 17.8688 15.3884 17.9231 15.3163 17.9623C15.2443 18.0016 15.1646 18.0249 15.0827 18.0308C15.0009 18.0366 14.9187 18.0249 14.8418 17.9963C14.7648 17.9677 14.6949 17.923 14.6367 17.8651L13.4908 16.7193" stroke="#A0B0C0" stroke-width="1.5" stroke-linecap="round" stroke-linejoin="round"/>
<path d="M9.24238 18.8333H3.18178C2.77993 18.8333 2.39455 18.6664 2.1104 18.3691C1.82626 18.0719 1.66663 17.6688 1.66663 17.2484V4.58492C1.66663 4.16457 1.82626 3.76144 2.1104 3.46421C2.39455 3.16698 2.77993 3 3.18178 3H16.8181C17.22 3 17.6054 3.16698 17.8895 3.46421C18.1737 3.76144 18.3333 4.16457 18.3333 4.58492V10.1572" stroke="#A0B0C0" stroke-width="1.5" stroke-linecap="round" stroke-linejoin="round"/>
<path d="M1.66663 8H18.3333" stroke="#A0B0C0" stroke-width="1.5" stroke-linejoin="round"/>
<path d="M6.66663 4.6665V2.1665" stroke="#A0B0C0" stroke-width="1.5" stroke-linecap="round" stroke-linejoin="round"/>
<path d="M13.3334 4.6665V2.1665" stroke="#A0B0C0" stroke-width="1.5" stroke-linecap="round" stroke-linejoin="round"/>
</svg>
