<svg width="20" height="21" viewBox="0 0 20 21" fill="none" xmlns="http://www.w3.org/2000/svg">
<path d="M19.1667 11.3335V14.0002C19.1667 16.2093 17.3758 18.0002 15.1667 18.0002H6.5C4.29086 18.0002 2.5 16.2093 2.5 14.0002V11.3335" stroke="#A0B0C0" stroke-width="1.5" stroke-linecap="round" stroke-linejoin="round"/>
<path d="M13.3333 14.6667H15.1667C17.3758 14.6667 19.1667 12.8758 19.1667 10.6667V7C19.1667 4.79086 17.3758 3 15.1667 3H15H5V3C3.61929 3 2.5 4.11929 2.5 5.5V5.5V8.41667" stroke="#A0B0C0" stroke-width="1.5" stroke-linecap="round" stroke-linejoin="round"/>
<path fill-rule="evenodd" clip-rule="evenodd" d="M11.8947 11.8317L12.5197 10.7491C12.8648 10.1513 12.66 9.38677 12.0621 9.04159C11.4643 8.69641 10.6998 8.90126 10.3546 9.49912L10.6658 8.96002C11.011 8.36216 10.8062 7.59767 10.2083 7.25249C9.61045 6.90731 8.84596 7.11216 8.50078 7.71002L11.0008 3.37989C11.346 2.78203 11.1411 2.01754 10.5432 1.67236C9.94538 1.32719 9.1809 1.53203 8.83572 2.12989L5.08572 8.62509C3.88999 7.93473 2.36101 8.34442 1.67065 9.54015C1.06072 10.5962 0.796232 11.8165 0.914206 13.0304L1.06848 14.5965C1.18537 15.8007 1.87609 16.8746 2.92341 17.4803L5.67521 19.0691C6.65576 19.6352 7.8211 19.7884 8.91468 19.4951C10.0083 19.2017 10.9404 18.4858 11.506 17.5049L14.0597 13.0817C14.4049 12.4838 14.2001 11.7193 13.6022 11.3741C13.0043 11.0289 12.2398 11.2338 11.8947 11.8317Z" fill="white"/>
<path fill-rule="evenodd" clip-rule="evenodd" d="M5.08697 8.62292L4.14947 10.2467Z" fill="white"/>
<path fill-rule="evenodd" clip-rule="evenodd" d="M7.56453 9.33165L8.18953 8.24912Z" fill="white"/>
<path fill-rule="evenodd" clip-rule="evenodd" d="M9.72959 10.5817L10.3546 9.49912Z" fill="white"/>
<path d="M10.3546 9.49912C10.6998 8.90126 11.4643 8.69641 12.0621 9.04159C12.66 9.38677 12.8648 10.1513 12.5197 10.7491L11.8947 11.8317C12.2398 11.2338 13.0043 11.0289 13.6022 11.3741C14.2001 11.7193 14.4049 12.4838 14.0597 13.0817L11.506 17.5049C10.9404 18.4858 10.0083 19.2017 8.91468 19.4951C7.8211 19.7884 6.65576 19.6352 5.67521 19.0691L2.92341 17.4803C1.87609 16.8746 1.18537 15.8007 1.06848 14.5965L0.914206 13.0304C0.796232 11.8165 1.06072 10.5962 1.67065 9.54015C2.36101 8.34442 3.88999 7.93473 5.08572 8.62509L8.83572 2.12989C9.1809 1.53203 9.94538 1.32719 10.5432 1.67236C11.1411 2.01754 11.346 2.78203 11.0008 3.37989L8.50078 7.71002C8.84596 7.11216 9.61045 6.90731 10.2083 7.25249C10.8062 7.59767 11.011 8.36216 10.6658 8.96002L10.3546 9.49912ZM10.3546 9.49912L9.72959 10.5817M5.08697 8.62292L4.14947 10.2467M7.56453 9.33165L8.18953 8.24912" stroke="#A0B0C0" stroke-width="1.5" stroke-linecap="round" stroke-linejoin="round"/>
</svg>
