<svg width="20" height="21" viewBox="0 0 20 21" fill="none" xmlns="http://www.w3.org/2000/svg">
<path d="M8.40833 9.7335C8.00389 9.7335 7.63833 9.65572 7.31167 9.50016C6.985 9.33683 6.72444 9.12294 6.53 8.8585C6.34333 8.58627 6.25 8.28294 6.25 7.9485C6.25 7.40405 6.46778 6.97239 6.90333 6.6535C7.34667 6.32683 7.93 6.10905 8.65333 6.00016L10.2517 5.76683V5.52183C10.2517 5.19516 10.17 4.94239 10.0067 4.7635C9.84333 4.58461 9.56333 4.49516 9.16667 4.49516C8.88667 4.49516 8.65722 4.5535 8.47833 4.67016C8.30722 4.77905 8.17889 4.92683 8.09333 5.1135C8.03111 5.21461 7.94167 5.26516 7.825 5.26516H6.90333C6.81778 5.26516 6.75167 5.24183 6.705 5.19516C6.66611 5.1485 6.64667 5.08627 6.64667 5.0085C6.65444 4.88405 6.705 4.73239 6.79833 4.5535C6.89167 4.37461 7.03944 4.2035 7.24167 4.04016C7.44389 3.86905 7.70444 3.72516 8.02333 3.6085C8.34222 3.49183 8.72722 3.4335 9.17833 3.4335C9.66833 3.4335 10.0806 3.49572 10.415 3.62016C10.7572 3.73683 11.0294 3.89627 11.2317 4.0985C11.4339 4.30072 11.5817 4.53794 11.675 4.81016C11.7683 5.08239 11.815 5.37016 11.815 5.6735V9.33683C11.815 9.41461 11.7878 9.48072 11.7333 9.53516C11.6789 9.58961 11.6128 9.61683 11.535 9.61683H10.59C10.5044 9.61683 10.4344 9.58961 10.38 9.53516C10.3333 9.48072 10.31 9.41461 10.31 9.33683V8.88183C10.2089 9.02961 10.0728 9.16961 9.90167 9.30183C9.73056 9.42627 9.52056 9.53127 9.27167 9.61683C9.03056 9.69461 8.74278 9.7335 8.40833 9.7335ZM8.805 8.62516C9.07722 8.62516 9.32222 8.56683 9.54 8.45016C9.76556 8.3335 9.94056 8.15461 10.065 7.9135C10.1972 7.66461 10.2633 7.3535 10.2633 6.98016V6.73516L9.09667 6.92183C8.63778 6.99183 8.29556 7.10461 8.07 7.26016C7.84444 7.41572 7.73167 7.60627 7.73167 7.83183C7.73167 8.00294 7.78222 8.15072 7.88333 8.27516C7.99222 8.39183 8.12833 8.48127 8.29167 8.5435C8.455 8.59794 8.62611 8.62516 8.805 8.62516Z" fill="#A0B0C0"/>
<path d="M16.6717 9.7335C16.2206 9.7335 15.8434 9.65572 15.54 9.50016C15.2445 9.34461 14.9995 9.14627 14.805 8.90516V9.33683C14.805 9.41461 14.7778 9.48072 14.7234 9.53516C14.6767 9.58961 14.6106 9.61683 14.525 9.61683H13.6034C13.5256 9.61683 13.4595 9.58961 13.405 9.53516C13.3506 9.48072 13.3234 9.41461 13.3234 9.33683V1.6135C13.3234 1.53572 13.3506 1.46961 13.405 1.41516C13.4595 1.36072 13.5256 1.3335 13.6034 1.3335H14.595C14.6806 1.3335 14.7467 1.36072 14.7934 1.41516C14.8478 1.46961 14.875 1.53572 14.875 1.6135V4.2035C15.0695 3.97794 15.3106 3.79516 15.5984 3.65516C15.8939 3.50739 16.2517 3.4335 16.6717 3.4335C17.0839 3.4335 17.4417 3.5035 17.745 3.6435C18.0484 3.7835 18.3012 3.98183 18.5034 4.2385C18.7134 4.48739 18.8728 4.77905 18.9817 5.1135C19.0906 5.44794 19.1489 5.80961 19.1567 6.1985C19.1645 6.3385 19.1684 6.46683 19.1684 6.5835C19.1684 6.69239 19.1645 6.81683 19.1567 6.95683C19.1412 7.36127 19.0789 7.73461 18.97 8.07683C18.8612 8.41127 18.7056 8.70294 18.5034 8.95183C18.3012 9.20072 18.0484 9.39516 17.745 9.53516C17.4417 9.66739 17.0839 9.7335 16.6717 9.7335ZM16.24 8.48516C16.5745 8.48516 16.835 8.41516 17.0217 8.27516C17.2084 8.12739 17.3406 7.93683 17.4184 7.7035C17.5039 7.47016 17.5545 7.2135 17.57 6.9335C17.5856 6.70016 17.5856 6.46683 17.57 6.2335C17.5545 5.9535 17.5039 5.69683 17.4184 5.4635C17.3406 5.23016 17.2084 5.0435 17.0217 4.9035C16.835 4.75572 16.5745 4.68183 16.24 4.68183C15.9289 4.68183 15.6762 4.75183 15.4817 4.89183C15.2873 5.03183 15.1395 5.21072 15.0384 5.4285C14.9373 5.6385 14.8828 5.86016 14.875 6.0935C14.8673 6.2335 14.8634 6.38516 14.8634 6.5485C14.8634 6.70405 14.8673 6.85183 14.875 6.99183C14.8906 7.23294 14.9412 7.47016 15.0267 7.7035C15.12 7.92905 15.2639 8.11572 15.4584 8.2635C15.6606 8.41127 15.9212 8.48516 16.24 8.48516Z" fill="#A0B0C0"/>
<path d="M1.1135 16.7818C1.02794 16.7818 0.957941 16.7546 0.903496 16.7002C0.856829 16.6457 0.833496 16.5796 0.833496 16.5018V15.7318C0.833496 15.6541 0.856829 15.5879 0.903496 15.5335C0.957941 15.4791 1.02794 15.4518 1.1135 15.4518H4.69516C4.77294 15.4518 4.83905 15.4791 4.8935 15.5335C4.94794 15.5879 4.97516 15.6541 4.97516 15.7318V16.5018C4.97516 16.5796 4.94794 16.6457 4.8935 16.7002C4.83905 16.7546 4.77294 16.7818 4.69516 16.7818H1.1135Z" fill="#A0B0C0"/>
<path d="M8.14449 19.7335C7.74004 19.7335 7.37449 19.6557 7.04782 19.5002C6.72115 19.3368 6.4606 19.1229 6.26615 18.8585C6.07949 18.5863 5.98615 18.2829 5.98615 17.9485C5.98615 17.4041 6.20393 16.9724 6.63949 16.6535C7.08282 16.3268 7.66615 16.1091 8.38949 16.0002L9.98782 15.7668V15.5218C9.98782 15.1952 9.90615 14.9424 9.74282 14.7635C9.57949 14.5846 9.29949 14.4952 8.90282 14.4952C8.62282 14.4952 8.39337 14.5535 8.21449 14.6702C8.04337 14.7791 7.91504 14.9268 7.82949 15.1135C7.76726 15.2146 7.67782 15.2652 7.56115 15.2652H6.63949C6.55393 15.2652 6.48782 15.2418 6.44115 15.1952C6.40226 15.1485 6.38282 15.0863 6.38282 15.0085C6.3906 14.8841 6.44115 14.7324 6.53449 14.5535C6.62782 14.3746 6.7756 14.2035 6.97782 14.0402C7.18004 13.8691 7.4406 13.7252 7.75949 13.6085C8.07837 13.4918 8.46337 13.4335 8.91449 13.4335C9.40449 13.4335 9.81671 13.4957 10.1512 13.6202C10.4934 13.7368 10.7656 13.8963 10.9678 14.0985C11.17 14.3007 11.3178 14.5379 11.4112 14.8102C11.5045 15.0824 11.5512 15.3702 11.5512 15.6735V19.3368C11.5512 19.4146 11.5239 19.4807 11.4695 19.5352C11.415 19.5896 11.3489 19.6168 11.2712 19.6168H10.3262C10.2406 19.6168 10.1706 19.5896 10.1162 19.5352C10.0695 19.4807 10.0462 19.4146 10.0462 19.3368V18.8818C9.94504 19.0296 9.80893 19.1696 9.63782 19.3018C9.46671 19.4263 9.25671 19.5313 9.00782 19.6168C8.76671 19.6946 8.47893 19.7335 8.14449 19.7335ZM8.54115 18.6252C8.81337 18.6252 9.05837 18.5668 9.27615 18.4502C9.50171 18.3335 9.67671 18.1546 9.80115 17.9135C9.93337 17.6646 9.99949 17.3535 9.99949 16.9802V16.7352L8.83282 16.9218C8.37393 16.9918 8.03171 17.1046 7.80615 17.2602C7.5806 17.4157 7.46782 17.6063 7.46782 17.8318C7.46782 18.0029 7.51837 18.1507 7.61949 18.2752C7.72837 18.3918 7.86449 18.4813 8.02782 18.5435C8.19115 18.5979 8.36226 18.6252 8.54115 18.6252Z" fill="#A0B0C0"/>
<path d="M16.4079 19.7335C15.9567 19.7335 15.5795 19.6557 15.2762 19.5002C14.9806 19.3446 14.7356 19.1463 14.5412 18.9052V19.3368C14.5412 19.4146 14.514 19.4807 14.4595 19.5352C14.4129 19.5896 14.3467 19.6168 14.2612 19.6168H13.3395C13.2617 19.6168 13.1956 19.5896 13.1412 19.5352C13.0867 19.4807 13.0595 19.4146 13.0595 19.3368V11.6135C13.0595 11.5357 13.0867 11.4696 13.1412 11.4152C13.1956 11.3607 13.2617 11.3335 13.3395 11.3335H14.3312C14.4167 11.3335 14.4829 11.3607 14.5295 11.4152C14.584 11.4696 14.6112 11.5357 14.6112 11.6135V14.2035C14.8056 13.9779 15.0467 13.7952 15.3345 13.6552C15.6301 13.5074 15.9879 13.4335 16.4079 13.4335C16.8201 13.4335 17.1779 13.5035 17.4812 13.6435C17.7845 13.7835 18.0373 13.9818 18.2395 14.2385C18.4495 14.4874 18.609 14.7791 18.7179 15.1135C18.8267 15.4479 18.8851 15.8096 18.8929 16.1985C18.9006 16.3385 18.9045 16.4668 18.9045 16.5835C18.9045 16.6924 18.9006 16.8168 18.8929 16.9568C18.8773 17.3613 18.8151 17.7346 18.7062 18.0768C18.5973 18.4113 18.4417 18.7029 18.2395 18.9518C18.0373 19.2007 17.7845 19.3952 17.4812 19.5352C17.1779 19.6674 16.8201 19.7335 16.4079 19.7335ZM15.9762 18.4852C16.3106 18.4852 16.5712 18.4152 16.7579 18.2752C16.9445 18.1274 17.0767 17.9368 17.1545 17.7035C17.2401 17.4702 17.2906 17.2135 17.3062 16.9335C17.3217 16.7002 17.3217 16.4668 17.3062 16.2335C17.2906 15.9535 17.2401 15.6968 17.1545 15.4635C17.0767 15.2302 16.9445 15.0435 16.7579 14.9035C16.5712 14.7557 16.3106 14.6818 15.9762 14.6818C15.6651 14.6818 15.4123 14.7518 15.2179 14.8918C15.0234 15.0318 14.8756 15.2107 14.7745 15.4285C14.6734 15.6385 14.619 15.8602 14.6112 16.0935C14.6034 16.2335 14.5995 16.3852 14.5995 16.5485C14.5995 16.7041 14.6034 16.8518 14.6112 16.9918C14.6267 17.2329 14.6773 17.4702 14.7629 17.7035C14.8562 17.9291 15.0001 18.1157 15.1945 18.2635C15.3967 18.4113 15.6573 18.4852 15.9762 18.4852Z" fill="#A0B0C0"/>
</svg>
