<?xml version="1.0" encoding="utf-8"?>
<!-- Generator: Adobe Illustrator 23.1.1, SVG Export Plug-In . SVG Version: 6.00 Build 0)  -->
<svg version="1.1" id="Layer_1" xmlns="http://www.w3.org/2000/svg" xmlns:xlink="http://www.w3.org/1999/xlink" x="0px" y="0px"
	 viewBox="0 0 72 72" style="enable-background:new 0 0 72 72;" xml:space="preserve">
<style type="text/css">
	.st0{fill:#2D2B2B;}
</style>
<path class="st0" d="M18.5,21c-1.7,0-3,1.3-3,3s1.3,3,3,3c1.7,0,3-1.3,3-3S20.1,21,18.5,21z M28.5,22c-1.1,0-2,0.9-2,2
	c0,1.1,0.9,2,2,2c0,0,0,0,0.1,0h26c1.1,0,2-0.9,2-2c0-1.1-0.9-2-2-2c0,0,0,0-0.1,0H28.5z M18.5,33c-1.7,0-3,1.3-3,3s1.3,3,3,3
	c1.7,0,3-1.3,3-3S20.1,33,18.5,33z M28.5,34c-1.1,0-2,0.9-2,2c0,1.1,0.9,2,2,2c0,0,0,0,0.1,0h26c1.1,0,2-0.9,2-2c0-1.1-0.9-2-2-2
	c0,0,0,0-0.1,0H28.5z M18.5,45c-1.7,0-3,1.3-3,3s1.3,3,3,3c1.7,0,3-1.3,3-3S20.1,45,18.5,45z M28.5,46c-1.1,0-2,0.9-2,2
	c0,1.1,0.9,2,2,2c0,0,0,0,0.1,0h26c1.1,0,2-0.9,2-2s-0.9-2-2-2c0,0,0,0-0.1,0H28.5z"/>
</svg>
