<svg width="20" height="21" viewBox="0 0 20 21" fill="none" xmlns="http://www.w3.org/2000/svg">
<path d="M17.6993 8.43069C17.8675 8.43069 18.0288 8.36394 18.1477 8.24513C18.2666 8.12633 18.3334 7.96519 18.3334 7.79716C18.3334 7.62914 18.2666 7.468 18.1477 7.34919C18.0288 7.23039 17.8675 7.16364 17.6993 7.16364L3.34543 2.23481C3.12098 2.15803 2.87949 2.1457 2.64838 2.19923C2.41727 2.25276 2.20583 2.36999 2.03808 2.53761C1.87033 2.70524 1.753 2.91652 1.69944 3.14745C1.64587 3.37838 1.65821 3.6197 1.73505 3.84397L6.73103 18.1996C6.73103 18.3677 6.79782 18.5288 6.91672 18.6476C7.03562 18.7664 7.19688 18.8332 7.36503 18.8332C7.53318 18.8332 7.69444 18.7664 7.81334 18.6476C7.93224 18.5288 7.99904 18.3677 7.99904 18.1996L10.5351 11.0281L17.6993 8.43069Z" stroke="#A0B0C0" stroke-width="1.5" stroke-linecap="round" stroke-linejoin="round"/>
<path d="M12.5 17.8483L15.5769 19.6665L19.1667 14.6665" stroke="#A0B0C0" stroke-width="1.5" stroke-miterlimit="10" stroke-linecap="round" stroke-linejoin="round"/>
</svg>
