<svg width="20" height="21" viewBox="0 0 20 21" fill="none" xmlns="http://www.w3.org/2000/svg">
<path d="M5.06402 17.1668C2.72743 17.1668 0.833252 15.2726 0.833252 12.9361V5.56427C0.833252 3.22768 2.72743 1.3335 5.06402 1.3335H14.9358C17.2724 1.3335 19.1666 3.22768 19.1666 5.56427V12.9361C19.1666 15.2726 17.2724 17.1668 14.9358 17.1668H11.2499" stroke="#A0B0C0" stroke-width="1.5" stroke-linecap="round" stroke-linejoin="round"/>
<path d="M13.3333 19.6665L10.8333 17.1665L13.3333 14.6665" stroke="#A0B0C0" stroke-width="1.25" stroke-linecap="round" stroke-linejoin="round"/>
<path d="M4.28345 11.5498C4.21011 11.5498 4.15011 11.5265 4.10345 11.4798C4.05678 11.4331 4.03345 11.3731 4.03345 11.2998V4.79981C4.03345 4.72647 4.05678 4.66647 4.10345 4.6198C4.15011 4.57314 4.21011 4.5498 4.28345 4.5498H5.62345C5.69678 4.5498 5.75678 4.57314 5.80345 4.6198C5.85011 4.66647 5.87345 4.72647 5.87345 4.79981V11.2998C5.87345 11.3731 5.85011 11.4331 5.80345 11.4798C5.75678 11.5265 5.69678 11.5498 5.62345 11.5498H4.28345Z" fill="#A0B0C0"/>
<path d="M7.12564 11.5498C7.0523 11.5498 6.9923 11.5265 6.94563 11.4798C6.89897 11.4331 6.87563 11.3731 6.87563 11.2998V4.79981C6.87563 4.72647 6.89897 4.66647 6.94563 4.6198C6.9923 4.57314 7.0523 4.5498 7.12564 4.5498H11.7156C11.789 4.5498 11.849 4.57314 11.8956 4.6198C11.949 4.66647 11.9756 4.72647 11.9756 4.79981V5.80981C11.9756 5.88314 11.949 5.94314 11.8956 5.9898C11.849 6.03647 11.789 6.0598 11.7156 6.0598H8.63563V7.5298H11.5156C11.589 7.5298 11.649 7.55647 11.6956 7.6098C11.749 7.65647 11.7756 7.71647 11.7756 7.7898V8.7898C11.7756 8.85647 11.749 8.91647 11.6956 8.9698C11.649 9.01647 11.589 9.0398 11.5156 9.0398H8.63563V11.2998C8.63563 11.3731 8.6123 11.4331 8.56563 11.4798C8.51897 11.5265 8.45897 11.5498 8.38564 11.5498H7.12564Z" fill="#A0B0C0"/>
</svg>
