<svg width="20" height="21" viewBox="0 0 20 21" fill="none" xmlns="http://www.w3.org/2000/svg">
<path d="M6.07158 1.21436L2.8573 8.80007C2.81284 8.90828 2.79564 9.02576 2.80722 9.14218C2.81879 9.25859 2.85878 9.37038 2.92368 9.46772C2.98857 9.56506 3.07638 9.64498 3.17939 9.70043C3.2824 9.75589 3.39745 9.7852 3.51444 9.78578H7.50015L4.64301 19.7858L16.9144 8.15721C17.0164 8.05899 17.0868 7.9327 17.1168 7.79436C17.1469 7.65602 17.1351 7.51189 17.0831 7.38025C17.031 7.2486 16.941 7.13539 16.8245 7.05499C16.708 6.97458 16.5703 6.93061 16.4287 6.92864H11.0716L13.9287 1.21436H6.07158Z" stroke="#A0B0C0" stroke-width="1.5" stroke-linecap="round" stroke-linejoin="round"/>
</svg>
