<?xml version="1.0" encoding="utf-8"?>
<!-- Generator: Adobe Illustrator 23.1.1, SVG Export Plug-In . SVG Version: 6.00 Build 0)  -->
<svg version="1.1" id="Layer_1" xmlns="http://www.w3.org/2000/svg" xmlns:xlink="http://www.w3.org/1999/xlink" x="0px" y="0px"
	 viewBox="0 0 72 72" style="enable-background:new 0 0 72 72;" xml:space="preserve">
<style type="text/css">
	.st0{fill:#2D2B2B;}
</style>
<path class="st0" d="M33,39.7c-0.5,0-0.9,0.4-0.9,1v5.7h-5.7c-0.5,0-1,0.4-1,0.9s0.4,1,0.9,1c0,0,0,0,0,0H32V54c0,0.5,0.4,1,0.9,1
	c0.5,0,1-0.4,1-0.9c0,0,0,0,0,0v-5.7h5.7c0.5,0,1-0.4,1-0.9c0-0.5-0.4-1-0.9-1c0,0,0,0,0,0H34v-5.7C34,40.1,33.5,39.7,33,39.7
	C33,39.7,33,39.7,33,39.7z"/>
<path class="st0" d="M33,34.2c-7.2,0-13.1,5.9-13.1,13.1c0,7.2,5.9,13.1,13.1,13.1c7.2,0,13.1-5.9,13.1-13.1
	C46.1,40.1,40.2,34.2,33,34.2z M33,58.4c-6.1,0-11.1-5-11.1-11.1s5-11.1,11.1-11.1s11.1,5,11.1,11.1S39.1,58.4,33,58.4z"/>
<path class="st0" d="M58.5,11.6h-37v0h-8c-1.6,0-3,1.4-3,3l0,39c0,1.1,0.9,2,2,2h5v-2h-5l0-39c0-0.6,0.4-1,1-1h10c0.6,0,1,0.4,1,1v6
	h35v33H48v2h11.5c1.1,0,2-0.9,2-2v-33v-2v-4C61.5,12.9,60.1,11.6,58.5,11.6z M59.5,18.6h-33v-4c0-0.4-0.1-0.7-0.2-1h32.2
	c0.6,0,1,0.4,1,1V18.6z"/>
</svg>
