<svg width="20" height="21" viewBox="0 0 20 21" fill="none" xmlns="http://www.w3.org/2000/svg">
<path d="M19.0049 15.3799V18.1299C19.0049 18.8632 18.3632 19.5049 17.6299 19.5049H14.8799" stroke="#A0B0C0" stroke-width="1.5" stroke-miterlimit="10" stroke-linecap="round" stroke-linejoin="round"/>
<path d="M14.8799 1.5H17.6299C18.3632 1.5 19.0049 2.14167 19.0049 2.875V5.625" stroke="#A0B0C0" stroke-width="1.5" stroke-miterlimit="10" stroke-linecap="round" stroke-linejoin="round"/>
<path d="M1 5.625V2.875C1 2.14167 1.64167 1.5 2.375 1.5H5.125" stroke="#A0B0C0" stroke-width="1.5" stroke-miterlimit="10" stroke-linecap="round" stroke-linejoin="round"/>
<path d="M5.125 19.5049H2.375C1.64167 19.5049 1 18.8632 1 18.1299V15.3799" stroke="#A0B0C0" stroke-width="1.5" stroke-miterlimit="10" stroke-linecap="round" stroke-linejoin="round"/>
<path d="M5.83325 16.3333H14.7306L16.6666 13H7.7692" stroke="#A0B0C0" stroke-width="1.5" stroke-linecap="round" stroke-linejoin="round"/>
<path d="M12.7091 12.9998H16.6666L12.2907 4.6665H8.33325C8.51417 5.00224 12.7091 12.9998 12.7091 12.9998Z" stroke="#A0B0C0" stroke-width="1.5" stroke-linecap="round" stroke-linejoin="round"/>
<path d="M7.91992 4.6665L3.33325 12.5798L5.4251 16.3332C5.4251 16.3332 9.80436 8.67913 9.99992 8.35506" stroke="#A0B0C0" stroke-width="1.5" stroke-linecap="round" stroke-linejoin="round"/>
</svg>
