<svg width="20" height="21" viewBox="0 0 20 21" fill="none" xmlns="http://www.w3.org/2000/svg">
<path d="M10.4756 12.9046L8.33337 15.0469C6.61792 16.7624 3.8361 16.7624 2.11996 15.0469C0.40451 13.3315 0.40451 10.5496 2.11996 8.8335L4.26224 6.69122M6.1911 4.76236L8.33337 2.62009C10.0488 0.904632 12.8306 0.904632 14.5468 2.62009C16.2622 4.33554 16.2622 7.11736 14.5468 8.8335L12.4045 10.9758M5.6061 11.5608L11.0606 6.10622" stroke="#A0B0C0" stroke-width="1.5" stroke-miterlimit="10" stroke-linecap="round" stroke-linejoin="round"/>
<path d="M18.3288 14.9043V13.9407C18.2315 13.44 17.9713 12.9898 17.5925 12.6665C17.2136 12.3431 16.7394 12.1665 16.2501 12.1665C15.7608 12.1665 15.2865 12.3431 14.9076 12.6665C14.5288 12.9898 14.2686 13.44 14.1713 13.9407V14.9043M14.394 14.8821H18.1061C18.6919 14.8821 19.1667 15.3779 19.1667 15.9896V18.559C19.1667 19.1707 18.6919 19.6665 18.1061 19.6665H14.394C13.8082 19.6665 13.3334 19.1707 13.3334 18.559V15.9896C13.3334 15.3779 13.8082 14.8821 14.394 14.8821Z" stroke="#A0B0C0" stroke-width="1.5" stroke-linecap="round" stroke-linejoin="round"/>
</svg>
