<?xml version="1.0" encoding="utf-8"?>
<!-- Generator: Adobe Illustrator 23.1.1, SVG Export Plug-In . SVG Version: 6.00 Build 0)  -->
<svg version="1.1" id="Layer_1" xmlns="http://www.w3.org/2000/svg" xmlns:xlink="http://www.w3.org/1999/xlink" x="0px" y="0px"
	 viewBox="0 0 72 72" style="enable-background:new 0 0 72 72;" xml:space="preserve">
<style type="text/css">
	.st0{fill:#2D2B2B;}
</style>
<g>
	<g>
		<path class="st0" d="M28.4,46.8h34c2.5,0,4.5-2,4.5-4.5V29.6c0-2.5-2-4.5-4.5-4.5H28.5c-0.1,0.1-0.2,0.1-0.2,0.2
			c0,0.1-0.1,0.1-0.1,0.1v2h34.2c1.2,0,2.2,1,2.2,2.2v12.7c0,1.2-1,2.2-2.2,2.2H28.2v2c0,0,0,0,0,0.1C28.3,46.7,28.3,46.8,28.4,46.8
			z"/>
		<path class="st0" d="M5.2,29.6v12.7c0,2.5,2,4.5,4.5,4.5h11.2c0.1-0.1,0.2-0.1,0.2-0.2c0,0,0.1-0.1,0.1-0.1v-2H9.6
			c-1.2,0-2.2-1-2.2-2.2V29.6c0-1.2,1-2.2,2.2-2.2h11.4v-2c0,0,0,0-0.1-0.1c0-0.1-0.1-0.1-0.2-0.2H9.6C7.2,25.2,5.2,27.2,5.2,29.6z"
			/>
	</g>
	<path class="st0" d="M24.6,21.8c-1.1-1.2-3-2.1-5.9-2.1c0,0,0,0,0,0c-0.8,0-1.5,0.7-1.5,1.5c0,0.8,0.7,1.5,1.5,1.5
		c2.6,0,3.5,0.8,4,1.4c0.4,0.6,0.4,1.2,0.4,1.2v0v9.2h-2.2c0,0,0,0,0,0c-0.8,0-1.5,0.7-1.5,1.5s0.7,1.5,1.5,1.5h2.2v9.2v0
		c0,0,0,0.5-0.5,1.2c-0.5,0.6-1.4,1.4-4,1.4c0,0,0,0,0,0c-0.8,0-1.5,0.7-1.5,1.5c0,0.8,0.7,1.5,1.5,1.5c2.8,0,4.8-1,5.9-2.1
		c1.1,1.2,3.1,2.1,6,2.1c0,0,0,0,0,0c0.8,0,1.5-0.7,1.5-1.5c0-0.8-0.7-1.5-1.5-1.5c-2.7,0-3.5-0.8-4-1.4s-0.4-1.2-0.4-1.2
		c0,0,0,0,0,0v0v-0.1v-9.2h2.2c0,0,0,0,0,0c0.8,0,1.5-0.7,1.5-1.5c0-0.8-0.7-1.5-1.5-1.5h-2.2v-9.2c0,0,0-0.6,0.5-1.2
		c0.5-0.6,1.4-1.4,4-1.4c0,0,0,0,0,0c0.8,0,1.5-0.7,1.5-1.5c0-0.8-0.7-1.5-1.5-1.5C27.7,19.7,25.8,20.7,24.6,21.8z"/>
</g>
</svg>
