<svg width="20" height="21" viewBox="0 0 20 21" fill="none" xmlns="http://www.w3.org/2000/svg">
<path d="M10 2.1665H19.1667M10 6.33317H19.1667M10 10.4998H19.1667" stroke="#A0B0C0" stroke-width="1.5" stroke-miterlimit="10" stroke-linecap="round" stroke-linejoin="round"/>
<path d="M5.21973 2.34473L3.00064 5.30327C2.95127 5.36884 2.88843 5.42307 2.81635 5.46231C2.74426 5.50156 2.6646 5.52489 2.58273 5.53076C2.50087 5.53662 2.4187 5.52487 2.34175 5.4963C2.26481 5.46774 2.19488 5.42301 2.13668 5.36514L0.990845 4.21931" stroke="#A0B0C0" stroke-width="1.5" stroke-linecap="round" stroke-linejoin="round"/>
<path d="M5.21973 8.17822L3.00064 11.1368C2.95127 11.2023 2.88843 11.2566 2.81635 11.2958C2.74426 11.3351 2.6646 11.3584 2.58273 11.3643C2.50087 11.3701 2.4187 11.3584 2.34175 11.3298C2.26481 11.3012 2.19488 11.2565 2.13668 11.1986L0.990845 10.0528" stroke="#A0B0C0" stroke-width="1.5" stroke-linecap="round" stroke-linejoin="round"/>
<path d="M5.21973 14.0117L3.00064 16.9703C2.95127 17.0358 2.88843 17.0901 2.81635 17.1293C2.74426 17.1685 2.6646 17.1919 2.58273 17.1977C2.50087 17.2036 2.4187 17.1919 2.34175 17.1633C2.26481 17.1347 2.19488 17.09 2.13668 17.0321L0.990845 15.8863" stroke="#A0B0C0" stroke-width="1.5" stroke-linecap="round" stroke-linejoin="round"/>
</svg>
