<svg width="20" height="21" viewBox="0 0 20 21" fill="none" xmlns="http://www.w3.org/2000/svg">
<path d="M13.75 8.6225C13.75 7.93214 14.3096 7.3725 15 7.3725C15.6904 7.3725 16.25 7.93214 16.25 8.6225V9.8725C16.25 9.18214 16.8096 8.6225 17.5 8.6225C18.1904 8.6225 18.75 9.18214 18.75 9.8725V14.98C18.7507 16.1122 18.3013 17.1983 17.501 17.9992C16.7006 18.8 15.6147 19.25 14.4825 19.25H11.305C10.0951 19.2491 8.96001 18.6644 8.25667 17.68L7.34 16.4008C6.63092 15.4086 6.24981 14.2195 6.25 13C6.25 11.6193 7.36929 10.5 8.75 10.5V3C8.75 2.30964 9.30964 1.75 10 1.75C10.6904 1.75 11.25 2.30964 11.25 3V8C11.25 7.30964 11.8096 6.75 12.5 6.75C13.1904 6.75 13.75 7.30964 13.75 8V8.6225ZM13.75 8.6225V9.8725M8.75 10.4975V12.3725M11.25 9.8725V8.6225" stroke="#A0B0C0" stroke-width="1.5" stroke-linecap="round" stroke-linejoin="round"/>
<line x1="0.75" y1="2.25" x2="5.91667" y2="2.25" stroke="#A0B0C0" stroke-width="1.5" stroke-linecap="round" stroke-linejoin="round"/>
<line x1="0.75" y1="5.5835" x2="4.25" y2="5.5835" stroke="#A0B0C0" stroke-width="1.5" stroke-linecap="round" stroke-linejoin="round"/>
<line x1="0.75" y1="8.9165" x2="2.58333" y2="8.9165" stroke="#A0B0C0" stroke-width="1.5" stroke-linecap="round" stroke-linejoin="round"/>
</svg>
