<?xml version="1.0" encoding="utf-8"?>
<!-- Generator: Adobe Illustrator 23.1.1, SVG Export Plug-In . SVG Version: 6.00 Build 0)  -->
<svg version="1.1" id="Layer_1" xmlns="http://www.w3.org/2000/svg" xmlns:xlink="http://www.w3.org/1999/xlink" x="0px" y="0px"
	 viewBox="0 0 72 72" style="enable-background:new 0 0 72 72;" xml:space="preserve">
<style type="text/css">
	.st0{fill:none;}
	.st1{fill:#2D2B2B;}
</style>
<g>
	<g>
		<path class="st0" d="M32.8,51.9c1.1,0,1.9-0.8,1.9-1.9v-3.6l-5.5,5.5H32.8z"/>
		<path class="st0" d="M33.2,43.9l-8,8h1.9l7-7C33.8,44.5,33.5,44.2,33.2,43.9z"/>
		<path class="st0" d="M21.8,55.3c-0.2,0.2-0.2,0.3-0.2,0.4c0,0.1,0,0.3,0.2,0.4l0.1,0.1c0.2,0.2,0.3,0.2,0.4,0.2s0.3,0,0.4-0.2
			l2.6-2.6h-1.9L21.8,55.3z"/>
		<path class="st0" d="M34.7,42.3l-0.4,0.4c0.1,0.2,0.3,0.3,0.4,0.5V42.3z"/>
		<path class="st1" d="M39.3,30.8c-1,0-2,0.2-2.9,0.5V33c0.9-0.4,1.8-0.7,2.9-0.7c3.6,0,6.5,2.9,6.5,6.5s-2.9,6.5-6.5,6.5
			c-1,0-2-0.2-2.8-0.7l0,0v1.6c0.9,0.3,1.8,0.5,2.9,0.5c4.4,0,8-3.6,8-8S43.8,30.8,39.3,30.8z"/>
		<path class="st1" d="M31.4,38.8c0,1.4,0.3,2.7,1,3.8l1.1-1.1c-0.4-0.8-0.6-1.7-0.6-2.7c0-1.7,0.7-3.3,1.8-4.5v-2
			C32.7,33.7,31.4,36.1,31.4,38.8z"/>
		<path class="st1" d="M34.3,42.8l-1.1,1.1c0.3,0.3,0.6,0.7,0.9,1l0.6-0.6v-1C34.5,43.1,34.4,43,34.3,42.8z"/>
		<path class="st1" d="M34.7,34.3c0.5-0.5,1.1-1,1.8-1.3v-1.7c-0.6,0.2-1.2,0.6-1.8,1V34.3z"/>
		<path class="st1" d="M34.7,43.3v1l0.5-0.5C35,43.6,34.9,43.4,34.7,43.3z"/>
		<path class="st1" d="M35.4,45.7c0.4,0.2,0.7,0.4,1.1,0.5v-1.6L35.4,45.7z"/>
		<path class="st1" d="M22.7,56.2c-0.2,0.2-0.3,0.2-0.4,0.2s-0.3,0-0.4-0.2h-0.1c-0.2-0.2-0.2-0.3-0.2-0.4c0-0.1,0-0.3,0.2-0.4
			l1.6-1.6h-2.2l-0.5,0.4c-0.8,0.8-0.8,2.2,0,3l0.1,0.1c0.8,0.8,2.2,0.8,3,0l3.7-3.7h-2.2L22.7,56.2z"/>
		<path class="st1" d="M34.1,44.8l-7,7h2.2l5.5-5.5v-1.1C34.5,45.1,34.3,45,34.1,44.8z"/>
		<path class="st1" d="M32.3,42.6L23,51.9h2.2l8-8C32.9,43.5,32.6,43,32.3,42.6z"/>
		<polygon class="st1" points="27.1,51.9 25.3,53.7 27.5,53.7 29.2,51.9 		"/>
		<path class="st1" d="M34.7,46.4l0.7-0.7c-0.2-0.1-0.5-0.3-0.7-0.4V46.4z"/>
		<polygon class="st1" points="25.2,51.9 23,51.9 21.2,53.7 23.4,53.7 		"/>
		<path class="st1" d="M33.5,41.4l-1.1,1.1c0.2,0.5,0.5,0.9,0.9,1.3l1.1-1.1C33.9,42.4,33.7,41.9,33.5,41.4z"/>
		<path class="st1" d="M34.7,45.3v-1l-0.6,0.6C34.3,45,34.5,45.1,34.7,45.3z"/>
		<path class="st1" d="M36.5,44.6L36.5,44.6L36.5,44.6L36.5,44.6z"/>
		<path class="st1" d="M35.2,43.7l-0.5,0.6v1c0.2,0.2,0.4,0.3,0.7,0.4l1.1-1.1l0,0C36,44.4,35.6,44.1,35.2,43.7z"/>
	</g>
	<g>
		<path class="st0" d="M48.1,37.7V45h2.6v-1.5v-1.9v-1.1V25.7l-13.4,9.7c-0.8,0.6-1.8,0.6-2.6,0l-13.4-9.7v14.9c0,2.2,0,1.6,0,2.9
			V45h4.1v-7.3H48.1z"/>
		<path class="st0" d="M55.3,15.8l-18,13c-0.4,0.3-0.8,0.4-1.3,0.4s-0.9-0.1-1.3-0.4l-18-13c-0.8,0.3-1.3,1.1-1.3,2v25
			c0,1.2,1,2.2,2.2,2.2h2.2V24.3c0-0.3,0.2-0.5,0.4-0.7c0.2-0.1,0.5-0.1,0.8,0.1l14.6,10.6c0.3,0.2,0.6,0.2,0.9,0L51,23.7
			c0.2-0.2,0.5-0.2,0.8-0.1c0.2,0.1,0.4,0.4,0.4,0.7V45h2.2c1.2,0,2.2-1,2.2-2.2v-25C56.6,16.9,56.1,16.1,55.3,15.8z"/>
		<path class="st0" d="M36.4,27.6l16.6-12H18.9l16.6,12C35.8,27.8,36.2,27.8,36.4,27.6z"/>
	</g>
	<path class="st1" d="M54.4,14.1H17.6c-2,0-3.7,1.7-3.7,3.7v25c0,2,1.7,3.7,3.7,3.7h7.7V45h-4.1v-1.5c0-1.4,0-0.8,0-2.9V25.7
		l8.4,6.1v-1.8L21,23.7c-0.2-0.2-0.5-0.2-0.8-0.1c-0.2,0.1-0.4,0.4-0.4,0.7V45h-2.2c-1.2,0-2.2-1-2.2-2.2v-25c0-0.9,0.5-1.7,1.3-2
		l18,13c0.4,0.3,0.8,0.4,1.3,0.4s0.9-0.1,1.3-0.4l18-13c0.8,0.3,1.3,1.1,1.3,2v25c0,1.2-1,2.2-2.2,2.2h-2.2V24.3
		c0-0.3-0.2-0.5-0.4-0.7c-0.2-0.1-0.5-0.1-0.8,0.1l-8.7,6.3h2.5l5.8-4.2v14.9v1.1v1.9V45h-2.6v1.5h6.3c2,0,3.7-1.7,3.7-3.7v-25
		C58.1,15.8,56.4,14.1,54.4,14.1z M36.4,27.6c-0.3,0.2-0.6,0.2-0.9,0l-16.6-12h34.1L36.4,27.6z"/>
</g>
</svg>
