<svg width="20" height="21" viewBox="0 0 20 21" fill="none" xmlns="http://www.w3.org/2000/svg">
<path d="M1.39826 14.8675C1.32401 14.8675 1.25802 14.8417 1.20027 14.7901C1.15078 14.7384 1.13016 14.6739 1.1384 14.5964L1.33639 13.1891H0.284601C0.202108 13.1891 0.131989 13.1633 0.0742438 13.1117C0.0247479 13.0514 0 12.9783 0 12.8922V12.1692C0 12.0745 0.0247479 12.0013 0.0742438 11.9497C0.131989 11.898 0.202108 11.8722 0.284601 11.8722H1.522L1.8066 9.90979H0.606324C0.523831 9.90979 0.453712 9.88397 0.395967 9.83232C0.346471 9.77207 0.321723 9.69891 0.321723 9.61284V8.88983C0.321723 8.79516 0.346471 8.72199 0.395967 8.67035C0.453712 8.61871 0.523831 8.59289 0.606324 8.59289H1.99221L2.20257 7.18561C2.21906 7.11675 2.24794 7.0565 2.28918 7.00486C2.33868 6.94461 2.40467 6.91448 2.48717 6.91448H3.20486C3.2791 6.91448 3.34097 6.9403 3.39047 6.99195C3.43996 7.04359 3.46059 7.10814 3.45234 7.18561L3.25435 8.59289H4.8011L5.01146 7.18561C5.02795 7.11675 5.05683 7.0565 5.09807 7.00486C5.14757 6.94461 5.21356 6.91448 5.29606 6.91448H6.01375C6.08799 6.91448 6.14986 6.9403 6.19936 6.99195C6.24885 7.04359 6.26948 7.10814 6.26123 7.18561L6.06324 8.59289H7.10266C7.18515 8.59289 7.25114 8.61871 7.30064 8.67035C7.35838 8.72199 7.38726 8.79516 7.38726 8.88983V9.61284C7.38726 9.69891 7.35838 9.77207 7.30064 9.83232C7.25114 9.88397 7.18515 9.90979 7.10266 9.90979H5.87763L5.60541 11.8722H6.78093C6.86343 11.8722 6.92942 11.898 6.97892 11.9497C7.03666 12.0013 7.06553 12.0745 7.06553 12.1692V12.8922C7.06553 12.9783 7.03666 13.0514 6.97892 13.1117C6.92942 13.1633 6.86343 13.1891 6.78093 13.1891H5.40742L5.20944 14.5964C5.18469 14.7772 5.08982 14.8675 4.92484 14.8675H4.20715C4.1329 14.8675 4.06691 14.8417 4.00916 14.7901C3.95967 14.7384 3.93905 14.6739 3.94729 14.5964L4.14528 13.1891H2.59853L2.40055 14.5964C2.3758 14.7772 2.28093 14.8675 2.11595 14.8675H1.39826ZM2.79652 11.8722H4.33089L4.61549 9.90979H3.06874L2.79652 11.8722Z" fill="#A0B0C0"/>
<path d="M11.4014 15.3711C11.3107 15.3711 11.2365 15.3409 11.1787 15.2807C11.1292 15.2204 11.1045 15.1473 11.1045 15.0612V8.3734L9.22363 9.88397C9.14939 9.93561 9.07514 9.95713 9.0009 9.94852C8.92666 9.93131 8.86066 9.88397 8.80292 9.8065L8.28321 9.10932C8.23371 9.03185 8.21309 8.95008 8.22134 8.86401C8.23784 8.77794 8.28321 8.70908 8.35745 8.65744L11.1292 6.42387C11.1787 6.38084 11.2282 6.35501 11.2777 6.34641C11.3272 6.3378 11.3808 6.3335 11.4386 6.3335H12.5275C12.61 6.3335 12.6801 6.36362 12.7378 6.42387C12.7956 6.48412 12.8245 6.55728 12.8245 6.64336V15.0612C12.8245 15.1473 12.7956 15.2204 12.7378 15.2807C12.6801 15.3409 12.61 15.3711 12.5275 15.3711H11.4014Z" fill="#A0B0C0"/>
<path d="M16.3868 15.5002C15.9578 15.5002 15.5701 15.4141 15.2236 15.2419C14.8772 15.0612 14.6008 14.8245 14.3946 14.5319C14.1966 14.2306 14.0976 13.8949 14.0976 13.5248C14.0976 12.9223 14.3286 12.4446 14.7906 12.0917C15.2608 11.7302 15.8795 11.4892 16.6467 11.3687L18.3419 11.1105V10.8394C18.3419 10.4779 18.2553 10.1981 18.082 10.0002C17.9088 9.8022 17.6118 9.70321 17.1911 9.70321C16.8941 9.70321 16.6508 9.76777 16.461 9.89688C16.2796 10.0174 16.1434 10.1809 16.0527 10.3875C15.9867 10.4994 15.8918 10.5553 15.7681 10.5553H14.7906C14.6998 10.5553 14.6297 10.5295 14.5802 10.4779C14.539 10.4262 14.5183 10.3574 14.5183 10.2713C14.5266 10.1336 14.5802 9.96573 14.6792 9.76777C14.7782 9.5698 14.9349 9.38044 15.1494 9.19969C15.3639 9.01034 15.6402 8.8511 15.9785 8.72199C16.3167 8.59289 16.725 8.52833 17.2035 8.52833C17.7232 8.52833 18.1604 8.59719 18.5151 8.7349C18.8781 8.86401 19.1668 9.04046 19.3813 9.26425C19.5958 9.48803 19.7525 9.75055 19.8515 10.0518C19.9505 10.3531 20 10.6715 20 11.0072V15.0612C20 15.1473 19.9711 15.2204 19.9134 15.2807C19.8556 15.3409 19.7855 15.3711 19.703 15.3711H18.7007C18.61 15.3711 18.5357 15.3409 18.478 15.2807C18.4285 15.2204 18.4038 15.1473 18.4038 15.0612V14.5577C18.2965 14.7212 18.1522 14.8761 17.9707 15.0225C17.7892 15.1602 17.5665 15.2764 17.3025 15.3711C17.0467 15.4571 16.7415 15.5002 16.3868 15.5002ZM16.8075 14.2736C17.0962 14.2736 17.3561 14.2091 17.5871 14.08C17.8263 13.9509 18.0119 13.7529 18.1439 13.4861C18.2841 13.2106 18.3543 12.8664 18.3543 12.4532V12.1821L17.1169 12.3887C16.6302 12.4661 16.2672 12.5909 16.028 12.7631C15.7887 12.9352 15.6691 13.1461 15.6691 13.3957C15.6691 13.5851 15.7227 13.7486 15.83 13.8863C15.9455 14.0154 16.0898 14.1144 16.2631 14.1833C16.4363 14.2435 16.6178 14.2736 16.8075 14.2736Z" fill="#A0B0C0"/>
</svg>
