<svg width="20" height="21" viewBox="0 0 20 21" fill="none" xmlns="http://www.w3.org/2000/svg">
<path d="M14.9361 1.3335H5.06426C2.72768 1.3335 0.833496 3.22768 0.833496 5.56426V15.4361C0.833496 17.7726 2.72768 19.6668 5.06426 19.6668H14.9361C17.2726 19.6668 19.1668 17.7726 19.1668 15.4361V5.56426C19.1668 3.22768 17.2726 1.3335 14.9361 1.3335Z" stroke="#A0B0C0" stroke-width="1.5" stroke-linecap="round" stroke-linejoin="round"/>
<path d="M4.57508 14.6667C4.51286 14.6667 4.45452 14.6433 4.40008 14.5967C4.35341 14.55 4.33008 14.4917 4.33008 14.4217C4.33008 14.3906 4.33786 14.3556 4.35341 14.3167L7.16508 6.79167C7.18841 6.71389 7.23119 6.64778 7.29341 6.59333C7.36341 6.53111 7.45675 6.5 7.57341 6.5H8.84508C8.96175 6.5 9.05119 6.53111 9.11341 6.59333C9.17563 6.64778 9.2223 6.71389 9.25341 6.79167L12.0651 14.3167C12.0729 14.3556 12.0767 14.3906 12.0767 14.4217C12.0767 14.4917 12.0534 14.55 12.0067 14.5967C11.9601 14.6433 11.9056 14.6667 11.8434 14.6667H10.8284C10.7195 14.6667 10.6379 14.6433 10.5834 14.5967C10.5367 14.5422 10.5056 14.4917 10.4901 14.445L9.94175 13.0217H6.47675L5.92841 14.445C5.91286 14.4917 5.87786 14.5422 5.82341 14.5967C5.77674 14.6433 5.69897 14.6667 5.59008 14.6667H4.57508ZM6.88508 11.68H9.53341L8.20341 8.075L6.88508 11.68Z" fill="#A0B0C0"/>
<path d="M13.4459 14.6667C13.3682 14.6667 13.302 14.6394 13.2476 14.585C13.1932 14.5306 13.1659 14.4644 13.1659 14.3867V6.78C13.1659 6.70222 13.1932 6.63611 13.2476 6.58167C13.302 6.52722 13.3682 6.5 13.4459 6.5H14.5426C14.6282 6.5 14.6943 6.52722 14.7409 6.58167C14.7954 6.63611 14.8226 6.70222 14.8226 6.78V14.3867C14.8226 14.4644 14.7954 14.5306 14.7409 14.585C14.6943 14.6394 14.6282 14.6667 14.5426 14.6667H13.4459Z" fill="#A0B0C0"/>
</svg>
